<svg width="65" height="65" viewBox="0 0 65 65" fill="none" xmlns="http://www.w3.org/2000/svg">
<path d="M21.3333 7.17529C21.3333 6.07072 20.4379 5.17529 19.3333 5.17529C18.2288 5.17529 17.3333 6.07072 17.3333 7.17529V11.3866C13.4951 11.694 10.9754 12.4483 9.12419 14.2995C7.273 16.1507 6.5187 18.6704 6.21135 22.5086H59.122C58.8146 18.6704 58.0603 16.1507 56.2091 14.2995C54.3579 12.4483 51.8382 11.694 48 11.3866V7.17529C48 6.07072 47.1046 5.17529 46 5.17529C44.8954 5.17529 44 6.07072 44 7.17529V11.2097C42.226 11.1753 40.2374 11.1753 38 11.1753H27.3333C25.0959 11.1753 23.1074 11.1753 21.3333 11.2097V7.17529Z" fill="#6B73C2"/>
<path fill-rule="evenodd" clip-rule="evenodd" d="M59.3333 32.5086C59.3333 30.2712 59.3333 28.2827 59.2989 26.5086H6.03441C6 28.2827 6 30.2712 6 32.5086V37.842C6 47.8986 6 52.9269 9.12419 56.0511C12.2484 59.1753 17.2767 59.1753 27.3333 59.1753H38C48.0566 59.1753 53.0849 59.1753 56.2091 56.0511C59.3333 52.9269 59.3333 47.8986 59.3333 37.842V32.5086ZM38 33.1753C35.4227 33.1753 33.3333 35.2646 33.3333 37.842V43.1753C33.3333 45.7526 35.4227 47.842 38 47.842C40.5773 47.842 42.6667 45.7526 42.6667 43.1753V37.842C42.6667 35.2646 40.5773 33.1753 38 33.1753ZM38 37.1753C37.6318 37.1753 37.3333 37.4738 37.3333 37.842V43.1753C37.3333 43.5435 37.6318 43.842 38 43.842C38.3682 43.842 38.6667 43.5435 38.6667 43.1753V37.842C38.6667 37.4738 38.3682 37.1753 38 37.1753ZM29.432 33.3275C30.1794 33.6371 30.6667 34.3664 30.6667 35.1753V45.842C30.6667 46.9465 29.7712 47.842 28.6667 47.842C27.5621 47.842 26.6667 46.9465 26.6667 45.842V40.0037L26.0809 40.5895C25.2998 41.3706 24.0335 41.3706 23.2525 40.5895C22.4714 39.8085 22.4714 38.5421 23.2525 37.7611L27.2525 33.7611C27.8244 33.1891 28.6847 33.018 29.432 33.3275Z" fill="#6B73C2"/>
</svg>
