<svg width="65" height="65" viewBox="0 0 65 65" fill="none" xmlns="http://www.w3.org/2000/svg">
<path d="M18.9995 32.509V35.1756H32.3328H45.6662V32.509C45.6662 28.0967 49.2381 24.5188 53.648 24.509C53.6255 23.6343 53.5748 22.9991 53.4612 22.428C52.6196 18.1966 49.3118 14.8889 45.0805 14.0472C44.0501 13.8423 42.811 13.8423 40.3328 13.8423H32.3328H24.3328C21.8547 13.8423 20.6156 13.8423 19.5852 14.0472C15.3538 14.8889 12.0461 18.1966 11.2045 22.428C11.0909 22.9991 11.0402 23.6343 11.0177 24.509C15.4276 24.5188 18.9995 28.0967 18.9995 32.509Z" fill="#6B73C2"/>
<path d="M49.5183 48.5086H15.148C14.4092 48.5086 13.6901 48.4241 12.9998 48.2642V51.1753C12.9998 52.2799 12.1044 53.1753 10.9998 53.1753C9.89527 53.1753 8.99984 52.2799 8.99984 51.1753V46.2453C6.96004 44.5062 5.6665 41.9178 5.6665 39.0271V32.5086C5.6665 29.5631 8.05432 27.1753 10.9998 27.1753C13.9454 27.1753 16.3332 29.5631 16.3332 32.5086V35.7086C16.3332 36.8868 17.2883 37.842 18.4665 37.842H46.1998C47.378 37.842 48.3332 36.8868 48.3332 35.7086V32.5086C48.3332 29.5631 50.721 27.1753 53.6665 27.1753C56.612 27.1753 58.9998 29.5631 58.9998 32.5086V39.0271C58.9998 41.9178 57.7063 44.5062 55.6665 46.2453V51.1753C55.6665 52.2799 54.7711 53.1753 53.6665 53.1753C52.5619 53.1753 51.6665 52.2799 51.6665 51.1753V48.2642C50.9763 48.4241 50.2572 48.5086 49.5183 48.5086Z" fill="#6B73C2"/>
</svg>
