<svg width="64" height="65" viewBox="0 0 64 65" fill="none" xmlns="http://www.w3.org/2000/svg">
<path fill-rule="evenodd" clip-rule="evenodd" d="M30.0002 5.84229C30.0002 4.73772 30.8956 3.84229 32.0002 3.84229C47.8323 3.84229 60.6668 16.6768 60.6668 32.5089C60.6668 48.3411 47.8323 61.1756 32.0002 61.1756C16.168 61.1756 3.3335 48.3411 3.3335 32.5089C3.3335 31.4044 4.22893 30.5089 5.3335 30.5089C6.43807 30.5089 7.3335 31.4044 7.3335 32.5089C7.3335 46.132 18.3771 57.1756 32.0002 57.1756C45.6232 57.1756 56.6668 46.132 56.6668 32.5089C56.6668 18.8859 45.6232 7.84228 32.0002 7.84228C30.8956 7.84228 30.0002 6.94685 30.0002 5.84229ZM32.0002 22.509C33.1047 22.509 34.0002 23.4044 34.0002 24.509V33.1756H42.6668C43.7714 33.1756 44.6668 34.071 44.6668 35.1756C44.6668 36.2802 43.7714 37.1756 42.6668 37.1756H32.0002C30.8956 37.1756 30.0002 36.2802 30.0002 35.1756V24.509C30.0002 23.4044 30.8956 22.509 32.0002 22.509Z" fill="#6B73C2"/>
<path fill-rule="evenodd" clip-rule="evenodd" d="M24.2657 6.90239C24.6635 7.93285 24.1506 9.09067 23.1201 9.48844C22.743 9.63404 22.3703 9.78864 22.0023 9.952C20.9927 10.4002 19.811 9.9451 19.3628 8.93555C18.9146 7.92599 19.3697 6.74426 20.3793 6.29607C20.8073 6.10606 21.2408 5.92621 21.6796 5.75682C22.7101 5.35904 23.8679 5.87193 24.2657 6.90239ZM15.0607 11.8163C15.8225 12.6162 15.7916 13.8821 14.9917 14.6439C14.6993 14.9224 14.4136 15.2081 14.1351 15.5005C13.3734 16.3004 12.1074 16.3313 11.3075 15.5695C10.5077 14.8077 10.4768 13.5418 11.2385 12.7419C11.5619 12.4024 11.8936 12.0707 12.2331 11.7473C13.033 10.9856 14.2989 11.0165 15.0607 11.8163ZM8.42676 19.8716C9.43631 20.3198 9.8914 21.5015 9.44321 22.5111C9.27985 22.8791 9.12525 23.2518 8.97965 23.6289C8.58188 24.6594 7.42406 25.1723 6.3936 24.7745C5.36314 24.3767 4.85025 23.2189 5.24803 22.1884C5.41742 21.7496 5.59727 21.3161 5.78728 20.8881C6.23547 19.8785 7.4172 19.4234 8.42676 19.8716Z" fill="#6B73C2"/>
</svg>
