<svg width="413" height="518" viewBox="0 0 413 518" fill="none" xmlns="http://www.w3.org/2000/svg">
<path fill-rule="evenodd" clip-rule="evenodd" d="M305.282 106.179C297.948 93.407 284.76 85.2643 271.069 83.5453C268.226 83.1964 265.443 83.1312 262.779 83.3112C261.869 83.4013 260.546 83.7621 260.128 84.7295C259.474 86.174 260.18 88.0188 260.299 88.2639C268.419 104.029 281.731 116.661 298.033 125.436C301.91 127.553 307.357 130.07 309.823 131.45C313.253 133.399 314.757 134.535 317.486 136.251C317.486 136.251 318.044 136.715 318.6 136.535C319.114 136.29 318.951 135.335 318.916 135.219C316.776 124.899 308.741 111.895 305.282 106.179Z" fill="white" fill-opacity="0.6"/>
<path fill-rule="evenodd" clip-rule="evenodd" d="M326.011 133.062C328.826 122.4 329.566 108.578 328.352 97.7475C326.669 82.6103 317.926 57.9431 298.698 51.3758C293.509 49.5695 295.469 56.4034 295.469 56.4034C295.589 56.9708 295.717 57.4865 295.786 58.0409C297.808 68.4335 299.843 75.1256 298.546 85.8526C298.546 85.8526 298.399 87.4255 298.953 89.2307C299.472 90.9199 300.605 92.0677 300.791 92.2224C304.265 95.524 307.337 99.3669 309.812 103.648C315.056 112.34 321.336 123.12 323.853 133.048C323.853 133.048 324.11 134.08 325.087 133.9C325.626 133.822 325.894 133.461 326.053 133.126L326.011 133.062Z" fill="white" fill-opacity="0.6"/>
<path d="M217.989 409.658L218.264 409.552C230.651 404.78 238.979 393.087 241.21 379.495C241.658 376.696 241.849 373.886 241.774 371.117C241.749 370.658 241.678 370.127 241.517 369.647C241.354 369.162 241.119 368.787 240.798 368.56L240.793 368.556L240.793 368.556C240.241 368.155 239.578 368.009 238.989 367.981C238.441 367.955 238.009 368.034 237.895 368.059C222.537 373.031 209.899 384.024 200.816 398.888L200.814 398.89C199.721 400.66 198.515 402.803 197.392 404.797L197.384 404.812C196.265 406.799 195.224 408.648 194.479 409.794L217.989 409.658ZM217.989 409.658L217.98 409.718M217.989 409.658L217.98 409.718M217.98 409.718C217.804 409.791 217.622 409.866 217.435 409.944C214.557 411.139 210.311 412.903 205.626 414.427C200.488 416.098 194.867 417.466 189.979 417.492C189.958 417.489 189.94 417.487 189.931 417.486L189.927 417.486L189.917 417.485C189.884 417.481 189.849 417.477 189.81 417.471C189.724 417.459 189.629 417.442 189.537 417.414C189.353 417.358 189.306 417.299 189.295 417.281C189.263 417.167 189.283 417.059 189.336 416.951C189.364 416.895 189.397 416.849 189.422 416.817C189.435 416.802 189.444 416.791 189.449 416.786C189.45 416.784 189.451 416.784 189.452 416.783L189.486 416.752L189.516 416.709C190.155 415.806 190.721 415.055 191.283 414.31C192.246 413.034 193.196 411.774 194.478 409.795L217.98 409.718Z" fill="#6B73C2" stroke="#EFEEF4" stroke-width="1.15146"/>
<path d="M270.694 413.87C271.196 413.895 271.727 413.921 272.271 413.897C272.293 413.9 272.324 413.903 272.364 413.908C272.45 413.918 272.576 413.935 272.73 413.96C273.039 414.009 273.455 414.088 273.889 414.208C274.326 414.329 274.76 414.486 275.115 414.683C275.479 414.884 275.693 415.09 275.788 415.277C276.015 415.732 275.98 416.351 275.781 416.981C275.686 417.282 275.562 417.555 275.446 417.768C275.389 417.874 275.334 417.961 275.289 418.027C275.267 418.06 275.248 418.085 275.233 418.103C275.218 418.121 275.211 418.128 275.211 418.129L275.203 418.137L275.195 418.145C263.02 430.898 245.986 437.153 225.596 435.1L225.594 435.099C215.198 434.099 202.085 430.439 192.028 425.33C191.836 425.159 191.684 424.957 191.647 424.655C191.624 424.473 191.652 424.378 191.674 424.332C191.697 424.284 191.732 424.247 191.782 424.217C191.834 424.185 191.895 424.166 191.948 424.155C191.973 424.15 191.993 424.148 192.005 424.147L192.012 424.146L192.015 424.146L192.025 424.146C201.8 423.652 212.507 419.451 221.087 415.845C225.358 414.161 229.201 411.824 232.606 408.887L232.606 408.887L232.615 408.878C232.757 408.75 233.865 407.893 235.328 407.73L235.332 407.729C236.128 407.634 236.88 407.699 237.436 407.791C237.713 407.836 237.938 407.887 238.092 407.927C238.169 407.946 238.227 407.963 238.266 407.974C238.285 407.98 238.299 407.984 238.307 407.987L238.311 407.988C248.541 411.621 260.543 413.71 270.691 413.869L270.694 413.87Z" fill="#6B73C2" stroke="#EFEEF4" stroke-width="1.15146"/>
<path d="M267.744 379.094L267.589 379.22L267.579 379.28C267.532 379.32 267.484 379.362 267.435 379.403C265.095 381.407 261.436 384.539 257.243 387.551C252.866 390.696 247.943 393.684 243.361 395.128L243.294 395.149L243.267 395.167C243.252 395.172 243.228 395.178 243.198 395.185C243.126 395.2 243.034 395.212 242.942 395.21C242.847 395.209 242.775 395.195 242.73 395.177C242.712 395.17 242.702 395.164 242.697 395.16C242.645 395.056 242.635 394.931 242.657 394.794C242.668 394.724 242.687 394.663 242.702 394.62C242.709 394.599 242.715 394.584 242.719 394.576L242.72 394.572L242.721 394.571L242.721 394.57L242.722 394.569L242.736 394.541L242.748 394.506C243.088 393.501 243.399 392.647 243.705 391.808C244.287 390.21 244.851 388.665 245.553 386.231L245.553 386.229C245.917 384.949 246.381 382.87 246.884 380.619L246.903 380.536C247.416 378.242 247.97 375.764 248.508 373.714L248.509 373.713C253.002 356.452 261.919 341.952 274.95 332.612C275.04 332.555 275.431 332.339 275.97 332.199C276.524 332.054 277.179 332.004 277.804 332.229L277.805 332.229C278.157 332.355 278.48 332.651 278.769 333.076C279.052 333.494 279.268 333.989 279.419 334.425C280.232 337.117 280.814 339.962 281.13 342.847L281.13 342.85C282.732 356.884 278.053 370.779 267.744 379.094ZM243.286 395.16C243.286 395.16 243.285 395.161 243.282 395.162C243.284 395.161 243.286 395.16 243.286 395.16Z" fill="#6B73C2" stroke="#EFEEF4" stroke-width="1.15146"/>
<path d="M318.851 367.909L319.575 367.703L319.587 367.7C319.607 367.697 319.639 367.691 319.681 367.684C319.763 367.669 319.884 367.65 320.033 367.63C320.333 367.59 320.739 367.549 321.174 367.543C321.612 367.537 322.058 367.567 322.442 367.658C322.833 367.752 323.093 367.892 323.239 368.051C323.586 368.453 323.716 369.076 323.694 369.743C323.683 370.064 323.638 370.365 323.583 370.604C323.556 370.723 323.528 370.823 323.502 370.899C323.49 370.936 323.478 370.966 323.469 370.988C323.46 371.008 323.456 371.017 323.456 371.017L323.447 371.032L323.439 371.048C315.488 387.107 301.182 398.206 281.52 402.093C271.489 404.059 258.232 404.354 247.455 402.209C247.242 402.111 247.047 401.959 246.914 401.661C246.82 401.363 246.899 401.235 246.961 401.163C247.003 401.113 247.055 401.075 247.098 401.05C247.119 401.037 247.136 401.029 247.145 401.025C247.148 401.024 247.15 401.023 247.151 401.023C247.152 401.023 247.152 401.022 247.152 401.022L247.154 401.022C256.157 397.675 265.056 390.475 272.128 384.447C275.674 381.603 278.681 378.136 281.056 374.293C281.064 374.282 281.074 374.268 281.085 374.253C281.307 373.943 282.053 372.899 283.286 372.36L283.289 372.358C283.997 372.042 284.723 371.888 285.278 371.813C285.553 371.776 285.783 371.759 285.942 371.752C286.021 371.748 286.082 371.746 286.123 371.746C286.143 371.746 286.158 371.746 286.167 371.746L286.169 371.746C296.777 372.343 308.546 370.92 318.107 368.121C318.108 368.121 318.108 368.121 318.109 368.121L318.851 367.909Z" fill="#6B73C2" stroke="#EFEEF4" stroke-width="1.15146"/>
<path fill-rule="evenodd" clip-rule="evenodd" d="M305.837 336.669C313.064 325.095 313.201 309.781 307.487 296.464C306.299 293.692 304.926 291.088 303.368 288.651C302.809 287.865 301.828 286.756 300.724 286.743C299.106 286.652 297.939 288.018 297.754 288.186C288.393 301.577 284.386 318.694 285.329 337.128C285.57 341.537 286.188 347.544 286.272 350.302C286.377 354.247 286.147 356.013 286.107 359.222C286.107 359.222 285.991 359.944 286.506 360.344C286.971 360.731 287.736 360.228 287.795 360.19C295.579 354.339 302.61 342.018 305.786 336.656L305.837 336.669Z" fill="white" fill-opacity="0.6"/>
<path fill-rule="evenodd" clip-rule="evenodd" d="M293.479 365.996C304.179 364.644 316.547 360.121 325.272 354.991C342.443 344.821 352.509 329.35 355.148 310.911C355.214 310.499 355.047 308.255 353.763 307.391C352.42 306.565 349.678 308.228 349.678 308.228C349.257 308.55 348.845 308.821 348.424 309.143C340.443 314.892 329.982 320.009 320.062 322.74C320.062 322.74 318.613 323.23 317.378 324.364C316.201 325.46 315.802 326.969 315.76 327.227C314.729 331.688 312.989 335.969 310.574 339.862C305.846 347.998 299.741 357.822 292.444 363.906C292.444 363.906 291.712 364.525 292.364 365.389C292.711 365.854 293.167 365.97 293.529 366.009L293.479 365.996Z" fill="white" fill-opacity="0.6"/>
<path fill-rule="evenodd" clip-rule="evenodd" d="M329.433 283.518C333.41 270.202 329.789 255.003 321.132 243.296C319.363 240.859 317.393 238.693 315.288 236.707C314.544 236.088 313.362 235.25 312.326 235.469C310.794 235.829 309.999 237.505 309.915 237.698C304.336 253.45 304.78 271.381 310.222 289.353C311.483 293.646 313.616 299.396 314.383 302.168C315.449 306.035 315.682 307.866 316.442 311.011C316.442 311.011 316.486 311.72 317.069 312.03C317.609 312.275 318.188 311.618 318.255 311.527C324.146 303.691 327.818 289.654 329.484 283.531L329.433 283.518Z" fill="white" fill-opacity="0.6"/>
<path fill-rule="evenodd" clip-rule="evenodd" d="M324.931 315.81C334.71 311.648 345.27 303.928 352.308 296.491C366.074 281.914 371.748 263.931 369.716 245.057C369.681 244.618 368.975 242.452 367.524 241.975C366.073 241.498 363.847 243.882 363.847 243.882C363.52 244.282 363.243 244.694 362.915 245.094C356.822 252.879 348.141 260.702 339.436 266.05C339.377 266.089 338.192 266.914 337.278 268.345C336.422 269.737 336.428 271.348 336.445 271.567C336.536 276.26 335.944 280.94 334.644 285.439C332.153 294.733 328.81 306.064 323.433 313.979C323.433 313.979 322.879 314.804 323.724 315.448C324.189 315.835 324.619 315.784 324.939 315.758L324.931 315.81Z" fill="white" fill-opacity="0.6"/>
<path fill-rule="evenodd" clip-rule="evenodd" d="M337.765 223.952C337.896 209.654 330.427 195.779 319.172 186.789C316.84 184.906 314.408 183.32 311.934 181.991C311.056 181.552 309.757 181.114 308.831 181.629C307.494 182.415 307.196 184.272 307.155 184.53C306.156 201.613 311.403 219.162 321.307 235.269C323.645 239.086 327.201 244.179 328.65 246.642C330.675 250.111 331.397 251.852 332.983 254.779C332.983 254.779 333.238 255.488 333.853 255.592C334.46 255.747 334.812 254.87 334.837 254.715C338.245 245.278 337.937 230.438 337.824 223.914L337.765 223.952Z" fill="white" fill-opacity="0.6"/>
<path fill-rule="evenodd" clip-rule="evenodd" d="M342.246 257.031C350.305 250.124 358.124 239.452 362.721 230.16C371.713 211.845 372.174 192.535 365.207 174.552C365.063 174.139 363.793 172.205 362.326 172.153C360.81 172.088 359.387 175.053 359.387 175.053C359.203 175.543 359.019 176.032 358.835 176.522C355.216 185.957 349.165 196.113 342.491 203.91C342.491 203.91 341.559 205.122 341.076 206.823C340.66 208.434 341.095 209.994 341.154 210.278C342.526 214.867 343.24 219.611 343.205 224.432C343.362 234.293 343.316 246.41 340.346 255.741C340.346 255.741 340.038 256.682 341.025 257.095C341.565 257.34 341.96 257.173 342.246 257.031Z" fill="white" fill-opacity="0.6"/>
<path fill-rule="evenodd" clip-rule="evenodd" d="M329.517 163.215C325.822 149.119 315.13 137.587 302.112 132.012C299.403 130.838 296.694 129.986 294.003 129.354C293.083 129.173 291.717 129.147 291.012 129.933C289.979 131.119 290.204 133.002 290.213 133.273C293.85 150.362 303.494 166.137 317.057 179.152C320.304 182.235 324.987 186.221 326.983 188.234C329.85 191.059 330.976 192.581 333.226 194.98C333.226 194.98 333.649 195.625 334.247 195.509C334.837 195.445 334.936 194.503 334.952 194.4C335.653 184.109 331.341 169.587 329.517 163.215Z" fill="white" fill-opacity="0.6"/>
<path fill-rule="evenodd" clip-rule="evenodd" d="M342.551 194.456C348.277 185.344 352.745 172.584 354.532 162.091C358.048 141.467 353.319 122.337 341.986 106.621C341.732 106.234 340.025 104.725 338.653 105.073C337.222 105.459 336.685 108.811 336.685 108.811C336.602 109.326 336.621 109.868 336.58 110.448C335.661 120.786 332.783 132.502 328.558 142.105C328.558 142.105 328.006 143.574 328.037 145.353C328.076 147.08 328.907 148.473 329.025 148.718C331.524 152.843 333.493 157.317 334.73 162.086C337.499 171.755 340.697 183.679 340.459 193.708C340.459 193.708 340.403 194.713 341.482 194.881C342.047 194.972 342.409 194.688 342.602 194.469L342.551 194.456Z" fill="white" fill-opacity="0.6"/>
<path d="M196.104 389.724L196.11 389.732L196.117 389.74C196.361 390.007 196.497 390.406 196.538 390.915C196.577 391.41 196.521 391.932 196.451 392.376C195.819 395.015 194.93 397.641 193.8 400.153C188.253 412.38 177.135 421.21 163.743 422.412C163.657 422.395 163.569 422.391 163.482 422.402C160.519 422.774 155.722 423.355 150.521 423.568L150.508 423.569L150.496 423.57C139.1 424.58 122.801 425.947 112.476 426.584C90.9535 427.909 55.3548 438.442 28.2828 447.379C28.1369 447.428 27.9834 447.453 27.8269 447.456C22.1456 447.556 17.4037 446.98 13.9872 445.462C12.2872 444.707 10.9371 443.728 9.95752 442.504C8.98162 441.284 8.34714 439.789 8.12114 437.953C8.03612 437.262 8.48788 436.632 9.21617 436.465C28.0277 432.157 50.8591 427.447 72.9333 424.32L72.9336 424.32C104.87 419.778 126.447 418.021 137.995 417.309C138.518 417.277 139.008 417.095 139.413 416.768C139.614 416.605 139.819 416.434 140.027 416.245C141.051 415.386 142.548 413.927 144.15 412.356C144.288 412.221 144.427 412.084 144.566 411.948C146.059 410.483 147.624 408.947 149.001 407.688L149.001 407.688C161.714 396.057 176.961 389.093 193.361 388.485C193.497 388.494 193.943 388.534 194.474 388.703C195.042 388.885 195.655 389.197 196.104 389.724Z" fill="#6B73C2" stroke="#EFEEF4" stroke-width="1.15146"/>
<path d="M136.118 428.852C135.998 428.704 135.876 428.463 135.93 428.101C135.992 427.827 136.121 427.771 136.217 427.748C136.283 427.732 136.35 427.73 136.405 427.734C136.431 427.736 136.451 427.739 136.462 427.741L136.466 427.742C146.167 430.375 157.919 429.91 167.346 429.261C172.02 429.093 176.501 428.117 180.663 426.464L180.711 426.445L180.753 426.417C180.745 426.422 180.748 426.421 180.761 426.416C180.787 426.405 180.855 426.377 180.977 426.34C181.141 426.291 181.366 426.236 181.635 426.194C182.177 426.109 182.876 426.082 183.605 426.244C184.409 426.424 185.125 426.732 185.643 426.997C185.901 427.129 186.107 427.249 186.247 427.335C186.316 427.378 186.369 427.412 186.404 427.435C186.421 427.446 186.434 427.454 186.442 427.46L186.445 427.462C195.403 434.114 206.511 439.856 216.423 443.193C216.469 443.209 216.514 443.226 216.56 443.242C217.036 443.41 217.505 443.576 217.981 443.7C218.002 443.709 218.031 443.721 218.068 443.737C218.149 443.773 218.268 443.827 218.411 443.896C218.699 444.035 219.082 444.235 219.471 444.479C219.862 444.725 220.238 445.003 220.525 445.295C220.819 445.595 220.966 445.854 221.002 446.063L221.002 446.063L221.005 446.077C221.102 446.563 220.89 447.12 220.506 447.64C220.323 447.887 220.12 448.101 219.942 448.259C219.853 448.338 219.773 448.401 219.71 448.447C219.64 448.496 219.606 448.512 219.606 448.512L219.59 448.519L219.574 448.527C203.93 456.494 185.419 456.886 166.027 448.534C156.256 444.297 144.519 436.828 136.218 428.975L136.118 428.852Z" fill="#6B73C2" stroke="#EFEEF4" stroke-width="1.15146"/>
<path fill-rule="evenodd" clip-rule="evenodd" d="M235.636 34.6786C234.717 34.8197 233.444 35.1925 233.026 36.1586C232.415 37.6657 233.189 39.4187 233.257 39.6506C241.732 55.2219 255.367 67.5497 271.857 75.885C275.762 77.8463 281.28 80.2725 283.757 81.6014C287.257 83.4593 288.763 84.5942 291.561 86.2197C291.561 86.2197 292.12 86.684 292.692 86.4009C293.206 86.1564 293.043 85.2028 293.008 85.0868C288.605 46.4151 272.023 31.083 235.695 34.64L235.636 34.6786Z" fill="white" fill-opacity="0.6"/>
</svg>
