<svg width="65" height="65" viewBox="0 0 65 65" fill="none" xmlns="http://www.w3.org/2000/svg">
<path d="M38 11.1753H27.3333C17.2767 11.1753 12.2484 11.1753 9.12419 14.2995C6.87475 16.5489 6.24492 19.7855 6.06858 25.1753H59.2648C59.0884 19.7855 58.4586 16.5489 56.2091 14.2995C53.0849 11.1753 48.0566 11.1753 38 11.1753Z" fill="#6B73C2"/>
<path d="M27.3333 53.842H38C48.0566 53.842 53.0849 53.842 56.2091 50.7178C59.3333 47.5936 59.3333 42.5653 59.3333 32.5086C59.3333 31.3301 59.3333 30.2207 59.3283 29.1753H6.00503C6 30.2207 6 31.3301 6 32.5086C6 42.5653 6 47.5936 9.12419 50.7178C12.2484 53.842 17.2767 53.842 27.3333 53.842Z" fill="#6B73C2"/>
<path fill-rule="evenodd" clip-rule="evenodd" d="M14.6667 43.1753C14.6667 42.0707 15.5621 41.1753 16.6667 41.1753H27.3333C28.4379 41.1753 29.3333 42.0707 29.3333 43.1753C29.3333 44.2799 28.4379 45.1753 27.3333 45.1753H16.6667C15.5621 45.1753 14.6667 44.2799 14.6667 43.1753Z" fill="white"/>
<path fill-rule="evenodd" clip-rule="evenodd" d="M32 43.1753C32 42.0707 32.8954 41.1753 34 41.1753H38C39.1046 41.1753 40 42.0707 40 43.1753C40 44.2799 39.1046 45.1753 38 45.1753H34C32.8954 45.1753 32 44.2799 32 43.1753Z" fill="white"/>
</svg>
