<svg width="64" height="65" viewBox="0 0 64 65" fill="none" xmlns="http://www.w3.org/2000/svg">
<path d="M37.9118 9.84119C34.1225 8.06466 29.8759 8.06466 26.0866 9.84119L14.6377 15.2087C16.7229 15.4337 18.6292 16.7472 19.5142 18.8122C20.8196 21.858 19.4086 25.3852 16.3629 26.6906L13.4944 27.9199C12.069 28.5308 11.2601 28.8838 10.714 29.1637C10.711 29.2073 10.7082 29.2522 10.7056 29.2987L26.0868 36.5097C29.8761 38.2863 34.1227 38.2863 37.9121 36.5097L55.755 28.1445C59.6363 26.3249 59.6363 20.0261 55.7551 18.2065L37.9118 9.84119Z" fill="#6B73C2"/>
<path d="M13.3326 34.9481V44.8433C13.3326 47.5313 14.6753 50.048 17.0269 51.3503C20.9425 53.5188 27.21 56.5088 31.9993 56.5088C36.7887 56.5088 43.0561 53.5188 46.9718 51.3503C49.3233 50.048 50.666 47.5313 50.666 44.8433V34.9482L39.61 40.1315C34.7449 42.4123 29.254 42.4123 24.3888 40.1315L13.3326 34.9481Z" fill="#6B73C2"/>
<path d="M14.7877 23.0143C15.8029 22.5791 16.2732 21.4034 15.8381 20.3881C15.403 19.3729 14.2273 18.9026 13.212 19.3377L10.2483 20.6078C8.76174 21.2449 7.50191 21.7847 6.51327 22.3409C5.4613 22.9327 4.55588 23.6273 3.87768 24.6558C3.19948 25.6843 2.91774 26.7901 2.78817 27.9902C2.66641 29.118 2.66645 30.4886 2.66651 32.1059V39.8426C2.66651 40.9472 3.56194 41.8426 4.66651 41.8426C5.77108 41.8426 6.66651 40.9472 6.66651 39.8426V32.2095C6.66651 30.4607 6.66921 29.3074 6.76506 28.4196C6.85571 27.58 7.01439 27.1651 7.21704 26.8578C7.41969 26.5505 7.73855 26.2412 8.47451 25.8271C9.25277 25.3893 10.3118 24.9325 11.9192 24.2436L14.7877 23.0143Z" fill="#6B73C2"/>
</svg>
