<svg width="64" height="65" viewBox="0 0 64 65" fill="none" xmlns="http://www.w3.org/2000/svg">
<path d="M42.6667 16.5087C42.6667 22.3997 37.8911 27.1754 32 27.1754C26.109 27.1754 21.3334 22.3997 21.3334 16.5087C21.3334 10.6177 26.109 5.84204 32 5.84204C37.8911 5.84204 42.6667 10.6177 42.6667 16.5087Z" fill="#6B73C2"/>
<path d="M41.8085 36.5163C40.547 36.5316 39.3711 36.5776 38.3464 36.7154C36.6321 36.9458 34.7556 37.4967 33.2051 39.0472C31.6546 40.5977 31.1037 42.4742 30.8732 44.1886C30.6661 45.7292 30.6663 47.6115 30.6666 49.6129V50.0714C30.6663 52.0729 30.6661 53.9552 30.8732 55.4958C31.0349 56.6987 31.3544 57.9815 32.0664 59.1755C32.0443 59.1755 32.0221 59.1755 32 59.1755C10.6666 59.1755 10.6666 53.803 10.6666 47.1755C10.6666 40.5481 20.2179 35.1755 32 35.1755C35.5364 35.1755 38.8719 35.6596 41.8085 36.5163Z" fill="#6B73C2"/>
<path fill-rule="evenodd" clip-rule="evenodd" d="M36.0335 57.8086C37.4003 59.1755 39.6002 59.1755 44 59.1755C48.3997 59.1755 50.5996 59.1755 51.9665 57.8086C53.3333 56.4418 53.3333 54.2419 53.3333 49.8421C53.3333 45.4423 53.3333 43.2425 51.9665 41.8756C50.5996 40.5088 48.3997 40.5088 44 40.5088C39.6002 40.5088 37.4003 40.5088 36.0335 41.8756C34.6666 43.2425 34.6666 45.4423 34.6666 49.8421C34.6666 54.2419 34.6666 56.4418 36.0335 57.8086ZM41.4041 53.7794C39.5321 52.4388 37.3333 50.8643 37.3333 48.1349C37.3333 45.1217 41.0001 42.9849 44 45.8817C46.9999 42.9849 50.6666 45.1217 50.6666 48.1349C50.6666 50.8643 48.4678 52.4388 46.5958 53.7794C46.4012 53.9187 46.2102 54.0555 46.0255 54.1908C45.3333 54.698 44.6666 55.1755 44 55.1755C43.3333 55.1755 42.6666 54.698 41.9744 54.1908C41.7898 54.0555 41.5987 53.9187 41.4041 53.7794Z" fill="#6B73C2"/>
</svg>
