<svg width="64" height="65" viewBox="0 0 64 65" fill="none" xmlns="http://www.w3.org/2000/svg">
<path d="M58.6668 23.1756C58.6668 13.6027 50.9064 5.84229 41.3335 5.84229C35.7792 5.84229 30.835 8.46175 27.6628 12.5282C41.1924 13.0512 52.0002 24.1846 52.0002 37.8423C52.0002 38.1364 51.9951 38.4294 51.9852 38.7212L52.8712 38.9583C55.4481 39.6477 57.8056 37.2902 57.1161 34.7134L56.7765 33.4439C56.5021 32.4185 56.667 31.3351 57.1081 30.3695C58.109 28.1782 58.6668 25.7421 58.6668 23.1756Z" fill="#6B73C2"/>
<path fill-rule="evenodd" clip-rule="evenodd" d="M48.0002 37.8423C48.0002 49.6244 38.4489 59.1756 26.6668 59.1756C23.3721 59.1756 20.2519 58.4287 17.4662 57.0951C16.5087 56.6367 15.424 56.4758 14.3985 56.7501L11.1291 57.6249C8.5522 58.3144 6.19471 55.9569 6.88419 53.38L7.75897 50.1106C8.03335 49.0851 7.87241 48.0004 7.41403 47.0429C6.08036 44.2572 5.3335 41.137 5.3335 37.8423C5.3335 26.0602 14.8848 16.509 26.6668 16.509C38.4489 16.509 48.0002 26.0602 48.0002 37.8423ZM17.3335 40.5089C18.8063 40.5089 20.0002 39.315 20.0002 37.8423C20.0002 36.3695 18.8063 35.1756 17.3335 35.1756C15.8607 35.1756 14.6668 36.3695 14.6668 37.8423C14.6668 39.315 15.8607 40.5089 17.3335 40.5089ZM26.6668 40.5089C28.1396 40.5089 29.3335 39.315 29.3335 37.8423C29.3335 36.3695 28.1396 35.1756 26.6668 35.1756C25.1941 35.1756 24.0002 36.3695 24.0002 37.8423C24.0002 39.315 25.1941 40.5089 26.6668 40.5089ZM36.0002 40.5089C37.4729 40.5089 38.6668 39.315 38.6668 37.8423C38.6668 36.3695 37.4729 35.1756 36.0002 35.1756C34.5274 35.1756 33.3335 36.3695 33.3335 37.8423C33.3335 39.315 34.5274 40.5089 36.0002 40.5089Z" fill="#6B73C2"/>
</svg>
