<svg width="65" height="65" viewBox="0 0 65 65" fill="none" xmlns="http://www.w3.org/2000/svg">
<path fill-rule="evenodd" clip-rule="evenodd" d="M17.0556 6.13965C14.8964 6.42405 13.7531 6.94426 12.9387 7.74213C12.1243 8.54001 11.5933 9.66022 11.303 11.7756C11.0042 13.9532 10.9995 16.8393 10.9995 20.9774V43.8269C12.036 43.1173 13.2041 42.5773 14.4635 42.2467C15.8719 41.8769 17.5143 41.8775 19.9212 41.8783L53.6662 41.8783V20.9774C53.6662 16.8393 53.6615 13.9532 53.3627 11.7756C53.0724 9.66022 52.5414 8.54001 51.727 7.74213C50.9126 6.94426 49.7693 6.42405 47.6101 6.13965C45.3875 5.84688 42.4417 5.84229 38.2179 5.84229H26.4478C22.224 5.84229 19.2782 5.84688 17.0556 6.13965ZM18.3558 18.0945C18.3558 16.9004 19.3439 15.9324 20.5627 15.9324H44.103C45.3218 15.9324 46.3099 16.9004 46.3099 18.0945C46.3099 19.2887 45.3218 20.2567 44.103 20.2567H20.5627C19.3439 20.2567 18.3558 19.2887 18.3558 18.0945ZM20.5627 26.0225C19.3439 26.0225 18.3558 26.9905 18.3558 28.1846C18.3558 29.3788 19.3439 30.3468 20.5627 30.3468H35.2754C36.4942 30.3468 37.4823 29.3788 37.4823 28.1846C37.4823 26.9905 36.4942 26.0225 35.2754 26.0225H20.5627Z" fill="#6B73C2"/>
<path d="M23.5053 46.2026H20.2619C17.3834 46.2026 16.377 46.2212 15.6058 46.4237C13.4892 46.9793 11.8019 48.5208 11.0782 50.5244C11.123 51.5443 11.1931 52.4412 11.303 53.2423C11.5933 55.3577 12.1243 56.4779 12.9387 57.2758C13.7531 58.0737 14.8964 58.5939 17.0556 58.8783C19.2782 59.171 22.224 59.1756 26.4478 59.1756H38.2179C42.4417 59.1756 45.3875 59.171 47.6101 58.8783C49.7693 58.5939 50.9126 58.0737 51.727 57.2758C52.5414 56.4779 53.0724 55.3577 53.3627 53.2423C53.6065 51.4657 53.6545 49.2176 53.6639 46.2026H35.2754V54.2203C35.2754 55.0147 35.2754 55.412 34.9963 55.5725C34.7172 55.7331 34.3354 55.5554 33.572 55.2001L29.9167 53.499C29.6584 53.3788 29.5292 53.3187 29.3903 53.3187C29.2514 53.3187 29.1222 53.3788 28.8639 53.499L25.2086 55.2001C24.4452 55.5554 24.0635 55.7331 23.7844 55.5725C23.5053 55.412 23.5053 55.0147 23.5053 54.2203V46.2026Z" fill="#6B73C2"/>
</svg>
