<svg width="64" height="65" viewBox="0 0 64 65" fill="none" xmlns="http://www.w3.org/2000/svg">
<path d="M28.2042 23.8902C29.893 20.8605 30.7375 19.3457 32 19.3457C33.2624 19.3457 34.1069 20.8605 35.7957 23.8902L36.2327 24.674C36.7126 25.5349 36.9526 25.9654 37.3267 26.2494C37.7008 26.5335 38.1668 26.6389 39.0988 26.8498L39.9472 27.0417C43.2268 27.7838 44.8666 28.1548 45.2567 29.4093C45.6469 30.6639 44.529 31.9711 42.2932 34.5856L41.7147 35.262C41.0794 36.0049 40.7617 36.3764 40.6188 36.836C40.4759 37.2956 40.5239 37.7912 40.62 38.7824L40.7074 39.6849C41.0455 43.1732 41.2145 44.9173 40.1931 45.6927C39.1717 46.468 37.6364 45.7611 34.5657 44.3473L33.7713 43.9815C32.8987 43.5797 32.4624 43.3788 32 43.3788C31.5375 43.3788 31.1012 43.5797 30.2286 43.9815L29.4342 44.3473C26.3635 45.7611 24.8282 46.468 23.8068 45.6927C22.7855 44.9173 22.9545 43.1732 23.2925 39.6849L23.3799 38.7824C23.476 37.7912 23.524 37.2956 23.3811 36.836C23.2382 36.3764 22.9205 36.0049 22.2852 35.262L21.7068 34.5856C19.471 31.9711 18.3531 30.6639 18.7432 29.4093C19.1333 28.1548 20.7731 27.7838 24.0527 27.0417L24.9011 26.8498C25.8331 26.6389 26.2991 26.5335 26.6732 26.2494C27.0474 25.9654 27.2873 25.5349 27.7672 24.674L28.2042 23.8902Z" fill="#6B73C2"/>
<path opacity="0.8" fill-rule="evenodd" clip-rule="evenodd" d="M32 4.01172C33.1046 4.01172 34 4.90715 34 6.01172V11.3451C34 12.4496 33.1046 13.3451 32 13.3451C30.8955 13.3451 30 12.4496 30 11.3451V6.01172C30 4.90715 30.8955 4.01172 32 4.01172ZM3.33337 32.6784C3.33337 31.5738 4.2288 30.6784 5.33337 30.6784H10.6667C11.7713 30.6784 12.6667 31.5738 12.6667 32.6784C12.6667 33.783 11.7713 34.6784 10.6667 34.6784H5.33337C4.2288 34.6784 3.33337 33.783 3.33337 32.6784ZM51.3334 32.6784C51.3334 31.5738 52.2288 30.6784 53.3334 30.6784H58.6667C59.7713 30.6784 60.6667 31.5738 60.6667 32.6784C60.6667 33.783 59.7713 34.6784 58.6667 34.6784H53.3334C52.2288 34.6784 51.3334 33.783 51.3334 32.6784ZM32 52.0117C33.1046 52.0117 34 52.9072 34 54.0117V59.3451C34 60.4496 33.1046 61.3451 32 61.3451C30.8955 61.3451 30 60.4496 30 59.3451V54.0117C30 52.9072 30.8955 52.0117 32 52.0117Z" fill="#6B73C2"/>
<g opacity="0.5">
<path d="M49.4145 15.2645C50.1956 16.0455 50.1956 17.3119 49.4145 18.0929L48.4992 19.0083C47.7181 19.7893 46.4518 19.7893 45.6707 19.0083C44.8897 18.2272 44.8897 16.9609 45.6707 16.1799L46.5861 15.2645C47.3671 14.4834 48.6335 14.4834 49.4145 15.2645Z" fill="#6B73C2"/>
<path d="M14.5858 15.2648C15.3668 14.4838 16.6332 14.4838 17.4142 15.2648L18.3296 16.1802C19.1106 16.9612 19.1106 18.2276 18.3296 19.0086C17.5485 19.7896 16.2822 19.7896 15.5012 19.0086L14.5858 18.0932C13.8047 17.3122 13.8047 16.0459 14.5858 15.2648Z" fill="#6B73C2"/>
<path d="M18.3293 46.3498C19.1103 47.1308 19.1103 48.3971 18.3293 49.1782L17.4145 50.093C16.6334 50.874 15.3671 50.874 14.586 50.093C13.805 49.3119 13.805 48.0456 14.5861 47.2645L15.5008 46.3498C16.2819 45.5687 17.5482 45.5687 18.3293 46.3498Z" fill="#6B73C2"/>
<path d="M45.6707 46.3503C46.4517 45.5693 47.718 45.5693 48.4991 46.3503L49.4139 47.2651C50.1949 48.0462 50.1949 49.3125 49.4139 50.0936C48.6328 50.8746 47.3665 50.8746 46.5855 50.0936L45.6707 49.1788C44.8896 48.3977 44.8896 47.1314 45.6707 46.3503Z" fill="#6B73C2"/>
</g>
</svg>
