<svg width="56" height="56" viewBox="0 0 56 56" fill="none" xmlns="http://www.w3.org/2000/svg">
<path opacity="0.1" d="M51.3333 28C51.3333 40.8866 40.8866 51.3333 28 51.3333C15.1133 51.3333 4.66663 40.8866 4.66663 28C4.66663 15.1133 15.1133 4.66663 28 4.66663C40.8866 4.66663 51.3333 15.1133 51.3333 28Z" fill="white"/>
<path d="M39.2162 44.3595C36.0261 46.5509 32.1628 47.8333 28 47.8333C23.8372 47.8333 19.9738 46.5508 16.7836 44.3593C15.3746 43.3914 14.7725 41.5477 15.5917 40.0474C17.29 36.9372 20.7893 35 27.9999 35C35.2106 35 38.7099 36.9373 40.4082 40.0475C41.2274 41.5479 40.6252 43.3916 39.2162 44.3595Z" fill="white"/>
<path d="M28.0001 28C31.8661 28 35.0001 24.866 35.0001 21C35.0001 17.134 31.8661 14 28.0001 14C24.1341 14 21.0001 17.134 21.0001 21C21.0001 24.866 24.1341 28 28.0001 28Z" fill="white"/>
</svg>
