<svg width="47" height="47" viewBox="0 0 47 47" fill="none" xmlns="http://www.w3.org/2000/svg">
<path opacity="0.1" d="M46.6667 23.3333C46.6667 36.22 36.22 46.6667 23.3333 46.6667C10.4467 46.6667 0 36.22 0 23.3333C0 10.4467 10.4467 0 23.3333 0C36.22 0 46.6667 10.4467 46.6667 23.3333Z" fill="white"/>
<path d="M34.5496 39.6927C31.3594 41.8841 27.4962 43.1666 23.3334 43.1666C19.1705 43.1666 15.3072 41.8841 12.117 39.6926C10.708 38.7247 10.1059 36.881 10.9251 35.3806C12.6234 32.2704 16.1227 30.3333 23.3333 30.3333C30.544 30.3333 34.0433 32.2705 35.7416 35.3808C36.5607 36.8811 35.9586 38.7248 34.5496 39.6927Z" fill="white"/>
<path d="M23.3334 23.3333C27.1994 23.3333 30.3334 20.1992 30.3334 16.3333C30.3334 12.4673 27.1994 9.33325 23.3334 9.33325C19.4674 9.33325 16.3334 12.4673 16.3334 16.3333C16.3334 20.1992 19.4674 23.3333 23.3334 23.3333Z" fill="white"/>
</svg>
