<svg width="42" height="42" viewBox="0 0 42 42" fill="none" xmlns="http://www.w3.org/2000/svg">
<path opacity="0.1" d="M21 38.4996C30.665 38.4996 38.5 30.6646 38.5 20.9996C38.5 11.3347 30.665 3.49963 21 3.49963C11.335 3.49963 3.5 11.3347 3.5 20.9996C3.5 30.6646 11.335 38.4996 21 38.4996Z" fill="#6B73C2"/>
<path d="M19.5035 14.4364C18.7871 14.3264 18.1171 14.8181 18.0072 15.5346C17.8972 16.2511 18.389 16.9211 19.1055 17.031L23.3122 17.6764L14.5804 24.0853C13.996 24.5142 13.87 25.3356 14.2989 25.92C14.7278 26.5043 15.5492 26.6303 16.1336 26.2014L24.8654 19.7926L24.22 23.9993C24.11 24.7158 24.6018 25.3858 25.3183 25.4957C26.0347 25.6056 26.7047 25.1139 26.8146 24.3974L27.9406 17.0587C28.0505 16.3422 27.5588 15.6722 26.8423 15.5623L19.5035 14.4364Z" fill="#6B73C2"/>
</svg>
