<svg width="48" height="49" viewBox="0 0 48 49" fill="none" xmlns="http://www.w3.org/2000/svg">
<path opacity="0.1" d="M4 24.5C4 35.5457 12.9543 44.5 24 44.5C35.0457 44.5 44 35.5457 44 24.5C44 13.4543 35.0457 4.5 24 4.5C12.9543 4.5 4 13.4543 4 24.5Z" fill="white"/>
<path d="M31.0607 22.5607C31.6464 21.9749 31.6464 21.0251 31.0607 20.4393C30.4749 19.8536 29.5251 19.8536 28.9393 20.4393L24 25.3787L19.0607 20.4393C18.4749 19.8536 17.5251 19.8536 16.9393 20.4393C16.3536 21.0251 16.3536 21.9749 16.9393 22.5607L22.9393 28.5607C23.5251 29.1464 24.4749 29.1464 25.0607 28.5607L31.0607 22.5607Z" fill="white"/>
</svg>
