<svg width="72" height="72" viewBox="0 0 72 72" fill="none" xmlns="http://www.w3.org/2000/svg">
<path opacity="0.1" d="M36 66C19.4315 66 6 52.5685 6 36C6 19.4315 19.4315 6 36 6C52.5685 6 66 19.4315 66 36C66 52.5685 52.5685 66 36 66Z" fill="#6B73C2"/>
<path d="M38.909 25.409C39.7877 24.5303 41.2123 24.5303 42.091 25.409C42.9697 26.2877 42.9697 27.7123 42.091 28.591L34.682 36L42.091 43.409C42.9697 44.2877 42.9697 45.7123 42.091 46.591C41.2123 47.4697 39.7877 47.4697 38.909 46.591L29.909 37.591C29.0303 36.7123 29.0303 35.2877 29.909 34.409L38.909 25.409Z" fill="#6B73C2"/>
</svg>
