<svg width="40" height="22" viewBox="0 0 40 22" fill="none" xmlns="http://www.w3.org/2000/svg">
<path d="M40 1.73684C40 2.69607 39.0051 3.47368 37.7778 3.47368H2.22222C0.994921 3.47368 0 2.69607 0 1.73684C0 0.777611 0.994921 0 2.22222 0H37.7778C39.0051 0 40 0.777611 40 1.73684Z" fill="white"/>
<path d="M40 11C40 11.9592 39.0051 12.7368 37.7778 12.7368H2.22222C0.994921 12.7368 0 11.9592 0 11C0 10.0408 0.994921 9.26316 2.22222 9.26316H37.7778C39.0051 9.26316 40 10.0408 40 11Z" fill="white"/>
<path d="M40 20.2632C40 21.2224 39.0051 22 37.7778 22H2.22222C0.994921 22 0 21.2224 0 20.2632C0 19.3039 0.994921 18.5263 2.22222 18.5263H37.7778C39.0051 18.5263 40 19.3039 40 20.2632Z" fill="white"/>
</svg>
