<svg width="56" height="56" viewBox="0 0 56 56" fill="none" xmlns="http://www.w3.org/2000/svg">
<path opacity="0.1" d="M51.3333 27.9998C51.3333 40.8865 40.8867 51.3332 28 51.3332C15.1134 51.3332 4.66669 40.8865 4.66669 27.9998C4.66669 15.1132 15.1134 4.6665 28 4.6665C40.8867 4.6665 51.3333 15.1132 51.3333 27.9998Z" fill="#6B73C2"/>
<path d="M29.75 21C29.75 20.0335 28.9665 19.25 28 19.25C27.0335 19.25 26.25 20.0335 26.25 21L26.25 26.2501H21C20.0335 26.2501 19.25 27.0336 19.25 28.0001C19.25 28.9666 20.0335 29.7501 21 29.7501H26.25V35C26.25 35.9665 27.0335 36.75 28 36.75C28.9665 36.75 29.75 35.9665 29.75 35L29.75 29.7501H35C35.9665 29.7501 36.75 28.9666 36.75 28.0001C36.75 27.0336 35.9665 26.2501 35 26.2501H29.75V21Z" fill="#6B73C2"/>
</svg>
