<svg width="47" height="47" viewBox="0 0 47 47" fill="none" xmlns="http://www.w3.org/2000/svg">
<path opacity="0.1" d="M2.28882e-05 23.3333C2.28882e-05 36.22 10.4467 46.6667 23.3334 46.6667C36.22 46.6667 46.6667 36.22 46.6667 23.3333C46.6667 10.4467 36.22 0 23.3334 0C10.4467 0 2.28882e-05 10.4467 2.28882e-05 23.3333Z" fill="white"/>
<path d="M30.4041 16.2626C29.7207 15.5791 28.6127 15.5791 27.9293 16.2626L23.3333 20.8585L18.7375 16.2626C18.054 15.5792 16.946 15.5792 16.2626 16.2626C15.5792 16.946 15.5792 18.0541 16.2626 18.7375L20.8585 23.3334L16.2626 27.9292C15.5792 28.6126 15.5792 29.7206 16.2626 30.4041C16.9461 31.0875 18.0541 31.0875 18.7375 30.4041L23.3333 25.8082L27.9292 30.4041C28.6126 31.0875 29.7207 31.0875 30.4041 30.4041C31.0875 29.7207 31.0875 28.6126 30.4041 27.9292L25.8082 23.3334L30.4041 18.7374C31.0875 18.054 31.0875 16.946 30.4041 16.2626Z" fill="white"/>
</svg>
