<svg width="32" height="32" viewBox="0 0 32 32" fill="none" xmlns="http://www.w3.org/2000/svg">
<path opacity="0.1" d="M29.3333 16.0001C29.3333 23.3639 23.3638 29.3334 16 29.3334C8.63616 29.3334 2.66663 23.3639 2.66663 16.0001C2.66663 8.63628 8.63616 2.66675 16 2.66675C23.3638 2.66675 29.3333 8.63628 29.3333 16.0001Z" fill="#6B73C2"/>
<path d="M21.3738 11.9596C21.7643 12.3502 21.7643 12.9833 21.3738 13.3739L14.7071 20.0405C14.3166 20.431 13.6835 20.431 13.2929 20.0405L10.6263 17.3739C10.2357 16.9833 10.2357 16.3502 10.6263 15.9596C11.0168 15.5691 11.65 15.5691 12.0405 15.9596L14 17.9192L16.9798 14.9394L19.9596 11.9596C20.3501 11.5691 20.9833 11.5691 21.3738 11.9596Z" fill="#6B73C2"/>
</svg>
