<svg width="68" height="68" viewBox="0 0 68 68" fill="none" xmlns="http://www.w3.org/2000/svg">
<path fill-rule="evenodd" clip-rule="evenodd" d="M21.1699 22.3939C21.9179 21.5326 23.0739 21.1473 24.2073 21.3059C24.4339 21.3286 24.6606 21.3739 24.8646 21.4419C24.9553 21.4646 25.0459 21.5326 25.0686 21.6006C25.1139 21.7366 25.0233 21.8726 25.0006 21.8953C24.1619 22.9606 22.9153 23.6859 21.4873 24.0713C21.1473 24.1393 20.6939 24.2299 20.4673 24.2979C20.1726 24.3886 20.0366 24.4339 19.7873 24.5246C19.7873 24.5246 19.7419 24.5473 19.6966 24.5246C19.6513 24.5019 19.6739 24.4113 19.6966 24.4113C19.9913 23.6406 20.8073 22.7793 21.1699 22.3939Z" fill="#FEFEFE"/>
<path fill-rule="evenodd" clip-rule="evenodd" d="M19.1525 24.0939C19.0618 23.1872 19.1752 22.0992 19.4018 21.2605C19.7418 20.1045 20.7618 18.3139 22.3938 18.2005C22.8472 18.1552 22.5978 18.6539 22.5978 18.6539C22.5752 18.6992 22.5525 18.7219 22.5525 18.7672C22.2578 19.5605 22.0085 20.0365 21.9632 20.9205C21.9632 20.9205 21.9632 21.0339 21.8952 21.1699C21.8272 21.2832 21.7138 21.3512 21.7138 21.3739C21.3738 21.5552 21.0792 21.8045 20.8298 22.0992C20.2858 22.6659 19.6512 23.3912 19.3338 24.1392C19.3338 24.1392 19.2885 24.2072 19.2205 24.1845C19.1752 24.1619 19.1525 24.1165 19.1525 24.0939Z" fill="#FEFEFE"/>
<path fill-rule="evenodd" clip-rule="evenodd" d="M24.2296 48.1664C23.2776 47.5317 22.7563 46.4211 22.7336 45.2877C22.7336 45.0611 22.7563 44.8344 22.8016 44.6077C22.8243 44.5397 22.8696 44.4264 22.9376 44.3811C23.0736 44.3357 23.2096 44.4037 23.2323 44.4037C24.411 45.1291 25.295 46.2624 25.839 47.6224C25.975 47.9397 26.111 48.3931 26.2016 48.5971C26.3376 48.8917 26.4056 49.0277 26.519 49.2544C26.519 49.2544 26.5416 49.2997 26.519 49.3451C26.4963 49.3904 26.4283 49.3677 26.4056 49.3677C25.6123 49.1637 24.6376 48.4611 24.2296 48.1664Z" fill="#FEFEFE"/>
<path fill-rule="evenodd" clip-rule="evenodd" d="M26.179 49.9346C25.295 50.1613 24.1844 50.184 23.323 50.048C21.6457 49.7986 20.331 48.96 19.515 47.6906C19.4924 47.668 19.447 47.4866 19.515 47.396C19.583 47.3053 19.855 47.328 19.855 47.328C19.9004 47.3506 19.9457 47.3506 19.991 47.3733C20.807 47.5546 21.7817 47.6453 22.643 47.5546C22.6657 47.5546 22.779 47.5546 22.915 47.6C23.051 47.6453 23.119 47.736 23.1417 47.7586C23.3684 48.0533 23.6404 48.3253 23.9804 48.5293C24.615 48.9826 25.4084 49.5266 26.179 49.7533C26.179 49.7533 26.2697 49.776 26.247 49.8666C26.2244 49.912 26.2017 49.9346 26.179 49.9346Z" fill="#FEFEFE"/>
<path fill-rule="evenodd" clip-rule="evenodd" d="M20.6261 44.7435C19.9008 43.8822 19.6968 42.6582 20.0141 41.5702C20.0821 41.3435 20.1501 41.1395 20.2635 40.9355C20.2861 40.8675 20.3541 40.7768 20.4448 40.7542C20.5808 40.7542 20.6941 40.8448 20.7168 40.8675C21.6461 41.8648 22.1901 43.2022 22.3261 44.6755C22.3715 45.0155 22.3715 45.4915 22.4168 45.7181C22.4395 46.0355 22.4848 46.1715 22.5301 46.4208C22.5301 46.4208 22.5528 46.4888 22.5075 46.5115C22.4621 46.5568 22.3941 46.5115 22.3941 46.5115C21.6915 46.0808 20.9435 45.1515 20.6261 44.7435Z" fill="#FEFEFE"/>
<path fill-rule="evenodd" clip-rule="evenodd" d="M22.0087 47.0104C21.102 46.9424 20.014 46.6704 19.2434 46.3077C17.702 45.5824 16.682 44.4264 16.2514 42.9757C16.2287 42.9531 16.2287 42.7717 16.3194 42.7037C16.41 42.6131 16.6594 42.7264 16.6594 42.7264C16.7047 42.7491 16.75 42.7717 16.7727 42.7944C17.498 43.2024 18.4274 43.5651 19.2887 43.7237C19.2887 43.7237 19.4247 43.7464 19.538 43.8371C19.6514 43.9277 19.6967 44.0411 19.6967 44.0637C19.8327 44.4037 20.0367 44.7437 20.286 45.0384C20.762 45.6504 21.3967 46.3984 22.0767 46.8291C22.0767 46.8291 22.1447 46.8744 22.0994 46.9424C22.0767 46.9877 22.0314 46.9877 22.0087 47.0104Z" fill="#FEFEFE"/>
<path fill-rule="evenodd" clip-rule="evenodd" d="M18.1551 40.5954C17.7245 39.5301 17.9058 38.3288 18.5405 37.3768C18.6538 37.1954 18.8125 37.0141 18.9711 36.8554C19.0165 36.8101 19.1071 36.7421 19.1978 36.7648C19.3338 36.7874 19.4018 36.9008 19.4245 36.9234C19.9911 38.1701 20.1045 39.6208 19.7871 41.0488C19.7191 41.3888 19.5831 41.8421 19.5378 42.0688C19.4925 42.3861 19.4698 42.5221 19.4471 42.7714C19.4471 42.7714 19.4471 42.8394 19.4018 42.8621C19.3565 42.8848 19.2885 42.8168 19.2885 42.8168C18.7445 42.2048 18.3365 41.0941 18.1551 40.5954Z" fill="#FEFEFE"/>
<path fill-rule="evenodd" clip-rule="evenodd" d="M18.7673 43.1569C17.9286 42.8396 16.9766 42.2276 16.342 41.6609C15.0953 40.5049 14.4833 39.0769 14.506 37.5809C14.506 37.5356 14.5513 37.3543 14.6646 37.3316C14.8006 37.2863 14.982 37.4676 14.982 37.4676C15.0273 37.5129 15.05 37.5356 15.0726 37.5583C15.6393 38.1929 16.4326 38.8049 17.1806 39.2129C17.2033 39.2129 17.294 39.2809 17.3846 39.3943C17.4526 39.5076 17.4753 39.6436 17.4753 39.6436V39.6663C17.498 40.0289 17.5886 40.3916 17.7246 40.7543C18.0193 41.5023 18.382 42.3863 18.8806 43.0209C18.8806 43.0209 18.926 43.0889 18.858 43.1343C18.8353 43.1796 18.79 43.1796 18.7673 43.1569Z" fill="#FEFEFE"/>
<path fill-rule="evenodd" clip-rule="evenodd" d="M16.9311 35.9264C16.7951 34.7931 17.2711 33.6597 18.1324 32.9117C18.2911 32.7531 18.4951 32.6171 18.6764 32.5037C18.7444 32.4811 18.8577 32.4357 18.9257 32.4811C19.0617 32.5264 19.0844 32.6851 19.1071 32.7077C19.3337 34.0451 19.0844 35.4731 18.4044 36.7651C18.2457 37.0824 17.9964 37.5131 17.9057 37.6944C17.7697 37.9891 17.7244 38.1251 17.6337 38.3517C17.6337 38.3517 17.6111 38.4197 17.5657 38.4197C17.5204 38.4424 17.4751 38.3744 17.4751 38.3744V38.3517C17.1124 37.6264 16.9991 36.4477 16.9311 35.9264Z" fill="#FEFEFE"/>
<path fill-rule="evenodd" clip-rule="evenodd" d="M16.8859 38.5556C16.1379 38.0342 15.3899 37.2182 14.9365 36.4929C14.0072 35.0649 13.7805 33.5236 14.1885 32.0729C14.2112 32.0276 14.2792 31.8916 14.4152 31.8689C14.5285 31.8689 14.6872 32.0956 14.6872 32.0956C14.6872 32.1409 14.7099 32.1636 14.7325 32.2089C15.1405 32.9569 15.7299 33.7502 16.3645 34.3396C16.3645 34.3396 16.4552 34.4302 16.5005 34.5662C16.5459 34.7022 16.5232 34.8156 16.5232 34.8382C16.4552 35.2009 16.4552 35.5862 16.5005 35.9716C16.5685 36.7649 16.7045 37.7169 17.0219 38.4649C17.0219 38.4649 17.0672 38.5329 16.9765 38.5556C16.9539 38.5782 16.9085 38.5782 16.8859 38.5556Z" fill="#FEFEFE"/>
<path fill-rule="evenodd" clip-rule="evenodd" d="M17.0217 31.0532C17.2031 29.9199 17.9737 28.9679 19.0164 28.4919C19.2204 28.3785 19.4244 28.3105 19.6511 28.2425C19.7191 28.2425 19.8324 28.2199 19.9004 28.2879C20.0137 28.3785 20.0137 28.5372 20.0137 28.5599C19.8551 29.9199 19.2204 31.1892 18.2004 32.2772C17.9737 32.5265 17.6111 32.8665 17.4751 33.0252C17.2711 33.2519 17.1804 33.3879 17.0217 33.5919C17.0217 33.5919 16.9991 33.6372 16.9311 33.6372C16.8857 33.6145 16.8631 33.5465 16.8631 33.5465C16.7271 32.7305 16.9311 31.5519 17.0217 31.0532Z" fill="#FEFEFE"/>
<path fill-rule="evenodd" clip-rule="evenodd" d="M16.251 33.5692C15.6843 32.8665 15.1856 31.8692 14.9363 31.0305C14.4603 29.3985 14.6643 27.8572 15.4576 26.5879C15.4803 26.5652 15.6163 26.4292 15.7296 26.4519C15.843 26.4745 15.9336 26.7465 15.9336 26.7465C15.9336 26.7919 15.9336 26.8372 15.9563 26.8599C16.115 27.6985 16.4776 28.6052 16.9083 29.3759C16.9083 29.3759 16.9763 29.4892 16.999 29.6252C16.999 29.7612 16.9536 29.8745 16.931 29.8972C16.7723 30.2372 16.659 30.5999 16.591 30.9625C16.455 31.7559 16.2963 32.7079 16.4096 33.5012C16.4096 33.5012 16.4323 33.5919 16.3416 33.5919C16.2963 33.6145 16.2736 33.5919 16.251 33.5692Z" fill="#FEFEFE"/>
<path fill-rule="evenodd" clip-rule="evenodd" d="M18.4726 26.4057C18.9486 25.3631 19.9686 24.6831 21.0792 24.5017C21.3059 24.4564 21.5552 24.4337 21.7592 24.4564C21.8499 24.4564 21.9632 24.4791 22.0086 24.5471C22.0766 24.6604 22.0312 24.8191 22.0312 24.8417C21.5099 26.1111 20.5352 27.1537 19.2659 27.9244C18.9712 28.1057 18.5406 28.3097 18.3592 28.4457C18.0872 28.6044 17.9739 28.6951 17.7699 28.8537C17.7699 28.8537 17.7246 28.8764 17.6792 28.8764C17.6339 28.8537 17.6339 28.7631 17.6339 28.7631C17.7246 27.9471 18.2459 26.8817 18.4726 26.4057Z" fill="#FEFEFE"/>
<path fill-rule="evenodd" clip-rule="evenodd" d="M17.0218 28.6272C16.6818 27.7885 16.4778 26.6778 16.4778 25.8165C16.4551 24.1165 17.0898 22.7112 18.2004 21.6912C18.2231 21.6685 18.3818 21.5778 18.4951 21.6458C18.6084 21.6912 18.6084 21.9632 18.6084 21.9632C18.6084 22.0085 18.5858 22.0538 18.5858 22.0992C18.5404 22.9378 18.6084 23.9125 18.8351 24.7738C18.8351 24.7738 18.8578 24.8872 18.8351 25.0232C18.8124 25.1592 18.7218 25.2725 18.6991 25.2725C18.4498 25.5445 18.2458 25.8618 18.0871 26.2245C17.7244 26.9272 17.3164 27.8112 17.2031 28.6045C17.2031 28.6045 17.2031 28.6952 17.1124 28.6725C17.0671 28.6725 17.0444 28.6498 17.0218 28.6272Z" fill="#FEFEFE"/>
<path fill-rule="evenodd" clip-rule="evenodd" d="M28.446 50.2971C27.3807 49.9118 26.5873 48.9824 26.2927 47.8944C26.2247 47.6678 26.1793 47.4411 26.1793 47.2144C26.1793 47.1238 26.1793 47.0104 26.2473 46.9651C26.3607 46.8744 26.5193 46.9198 26.5193 46.9198C27.8567 47.3051 28.99 48.1664 29.874 49.3451C30.078 49.6171 30.35 50.0251 30.486 50.2064C30.5087 50.2291 30.5313 50.2744 30.554 50.2971C31.4607 50.5691 33.1833 51.1584 35.7447 52.1784C37.5353 52.8811 39.3487 53.7424 40.822 54.4678C40.2327 54.6718 39.6207 54.8304 39.0087 54.9891C36.946 53.7424 34.226 52.1784 32.5033 51.6571C31.6873 51.3851 30.3953 50.9544 29.4887 50.6371C29.0807 50.5238 28.6953 50.3651 28.446 50.2971Z" fill="#FEFEFE"/>
<path fill-rule="evenodd" clip-rule="evenodd" d="M30.6444 51.3398C29.8511 51.8158 28.8084 52.1785 27.9471 52.3145C26.2698 52.5865 24.7738 52.1785 23.6178 51.2265C23.5951 51.2038 23.4818 51.0451 23.5044 50.9318C23.5498 50.8185 23.8218 50.7731 23.8218 50.7731C23.8671 50.7731 23.9124 50.7731 23.9578 50.7731C24.7964 50.7051 25.7484 50.4785 26.5644 50.1385C26.5644 50.1385 26.6778 50.0931 26.8138 50.0931C26.9498 50.0931 27.0631 50.1611 27.0858 50.1838C27.4031 50.3878 27.7431 50.5691 28.1058 50.6598C28.8538 50.9091 29.7831 51.1811 30.5991 51.1585C30.5991 51.1585 30.6671 51.1585 30.6898 51.2491C30.6898 51.2945 30.6671 51.3171 30.6444 51.3398Z" fill="#FEFEFE"/>
<path fill-rule="evenodd" clip-rule="evenodd" d="M27.6752 18.1328C27.7432 18.1782 27.8566 18.2235 27.8792 18.3142C27.9019 18.4502 27.8112 18.5635 27.8112 18.5862C26.9272 19.6515 25.6806 20.3542 24.2299 20.6715C23.8899 20.7622 23.4139 20.8302 23.2099 20.8755C22.8926 20.9662 22.7792 21.0115 22.5299 21.1022C22.5299 21.1022 22.4619 21.1248 22.4392 21.0795C22.3939 21.0568 22.4166 20.9888 22.4166 20.9888V20.9662C23.2779 18.0195 24.7966 17.1355 27.6752 18.1328Z" fill="#FEFEFE"/>
<path fill-rule="evenodd" clip-rule="evenodd" d="M46.8965 22.3938C46.1485 21.5325 44.9698 21.1471 43.8591 21.3058C43.6325 21.3285 43.4058 21.3738 43.1791 21.4418C43.1111 21.4645 43.0205 21.5325 42.9978 21.6005C42.9525 21.7365 43.0431 21.8725 43.0431 21.8951C43.9045 22.9605 45.1285 23.6858 46.5565 24.0711C46.8965 24.1391 47.3725 24.2298 47.5991 24.2978C47.8938 24.3885 48.0298 24.4338 48.2791 24.5245C48.2791 24.5245 48.3245 24.5471 48.3698 24.5245C48.3925 24.5018 48.3698 24.4111 48.3698 24.4111C48.0751 23.6405 47.2591 22.7791 46.8965 22.3938Z" fill="#FEFEFE"/>
<path fill-rule="evenodd" clip-rule="evenodd" d="M48.9139 24.0936C49.0045 23.187 48.8912 22.099 48.6419 21.2603C48.3245 20.1043 47.2819 18.3136 45.6499 18.2003C45.2192 18.155 45.4685 18.6536 45.4685 18.6536C45.4912 18.699 45.4912 18.7216 45.5139 18.767C45.8085 19.5603 46.0579 20.0363 46.1032 20.9203C46.1032 20.9203 46.1032 21.0336 46.1712 21.1696C46.2392 21.283 46.3299 21.351 46.3525 21.3736C46.6699 21.555 46.9645 21.8043 47.2365 22.099C47.7579 22.6656 48.4152 23.391 48.7325 24.139C48.7325 24.139 48.7779 24.207 48.8459 24.1843C48.8912 24.1616 48.9139 24.1163 48.9139 24.0936Z" fill="#FEFEFE"/>
<path fill-rule="evenodd" clip-rule="evenodd" d="M43.8369 48.1663C44.7889 47.5316 45.3103 46.4209 45.3103 45.2876C45.3103 45.0609 45.2876 44.8343 45.2649 44.6076C45.2423 44.5396 45.1969 44.4263 45.1063 44.3809C44.9929 44.3356 44.8569 44.4036 44.8343 44.4036C43.6556 45.1289 42.7716 46.2623 42.2276 47.6223C42.0916 47.9396 41.9556 48.3929 41.8649 48.5969C41.7289 48.8916 41.6609 49.0276 41.5476 49.2543C41.5476 49.2543 41.5023 49.2996 41.5476 49.3449C41.5703 49.3903 41.6383 49.3676 41.6383 49.3676C42.4543 49.1636 43.4063 48.4609 43.8369 48.1663Z" fill="#FEFEFE"/>
<path fill-rule="evenodd" clip-rule="evenodd" d="M41.8876 49.9345C42.7716 50.1612 43.8822 50.1838 44.7436 50.0478C46.4209 49.7985 47.7129 48.9598 48.5516 47.6905C48.5516 47.6678 48.6196 47.4865 48.5516 47.3958C48.4836 47.3052 48.2116 47.3278 48.2116 47.3278C48.1662 47.3505 48.1209 47.3505 48.0756 47.3732C47.2596 47.5545 46.2849 47.6452 45.4009 47.5545C45.4009 47.5545 45.2876 47.5545 45.1516 47.5998C45.0156 47.6452 44.9249 47.7358 44.9249 47.7585C44.6756 48.0532 44.4036 48.3252 44.0862 48.5292C43.4516 48.9825 42.6356 49.5265 41.8649 49.7532C41.8649 49.7532 41.7969 49.7758 41.8196 49.8665C41.8196 49.9118 41.8649 49.9345 41.8876 49.9345Z" fill="#FEFEFE"/>
<path fill-rule="evenodd" clip-rule="evenodd" d="M47.4407 44.7432C48.166 43.8819 48.37 42.6579 48.0527 41.5699C47.9847 41.3432 47.894 41.1392 47.8033 40.9352C47.758 40.8672 47.69 40.7766 47.5993 40.7766C47.4633 40.7539 47.35 40.8446 47.35 40.8672C46.398 41.8646 45.8767 43.2019 45.7407 44.6752C45.6953 45.0152 45.6727 45.4912 45.65 45.7179C45.6273 46.0352 45.582 46.1712 45.5367 46.4206C45.5367 46.4206 45.514 46.4886 45.5593 46.5112C45.582 46.5566 45.65 46.5112 45.6727 46.5112C46.3753 46.0806 47.1007 45.1512 47.4407 44.7432Z" fill="#FEFEFE"/>
<path fill-rule="evenodd" clip-rule="evenodd" d="M46.0582 47.0099C46.9648 46.9419 48.0302 46.6699 48.8235 46.3072C50.3648 45.5819 51.3848 44.4259 51.8155 42.9752C51.8382 42.9526 51.8382 42.7712 51.7475 42.7032C51.6342 42.6126 51.3848 42.7259 51.3848 42.7259C51.3622 42.7486 51.3168 42.7712 51.2715 42.7939C50.5462 43.2019 49.6168 43.5646 48.7782 43.7232C48.7555 43.7232 48.6422 43.7459 48.5288 43.8366C48.4155 43.9272 48.3702 44.0406 48.3702 44.0632H48.3475C48.2115 44.4032 48.0302 44.7432 47.7808 45.0379C47.2822 45.6499 46.6702 46.3979 45.9902 46.8286C45.9902 46.8286 45.9222 46.8739 45.9675 46.9419C45.9902 46.9872 46.0355 46.9872 46.0582 47.0099Z" fill="#FEFEFE"/>
<path fill-rule="evenodd" clip-rule="evenodd" d="M49.9113 40.5953C50.342 39.53 50.1607 38.3286 49.526 37.3766C49.39 37.1953 49.254 37.014 49.0953 36.8553C49.05 36.81 48.9367 36.742 48.8687 36.7646C48.7327 36.7873 48.642 36.9006 48.642 36.9233C48.0527 38.17 47.962 39.6206 48.2793 41.0486C48.3473 41.3886 48.4833 41.842 48.5287 42.0686C48.574 42.386 48.574 42.522 48.6193 42.7713C48.6193 42.7713 48.6193 42.8393 48.6647 42.862C48.71 42.8846 48.7553 42.8166 48.778 42.8166C49.322 42.2046 49.73 41.094 49.9113 40.5953Z" fill="#FEFEFE"/>
<path fill-rule="evenodd" clip-rule="evenodd" d="M49.2992 43.1568C50.1379 42.8395 51.0672 42.2275 51.7019 41.6608C52.9712 40.5048 53.5605 39.0768 53.5379 37.5808C53.5379 37.5355 53.4925 37.3542 53.3792 37.3315C53.2659 37.2862 53.0619 37.4675 53.0619 37.4675C53.0392 37.5128 53.0165 37.5355 52.9712 37.5582C52.4045 38.1928 51.6339 38.8048 50.8632 39.2128C50.8632 39.2128 50.7725 39.2808 50.6819 39.3942C50.5912 39.5075 50.5912 39.6435 50.5912 39.6435V39.6662C50.5459 40.0288 50.4779 40.3915 50.3192 40.7542C50.0472 41.5022 49.6845 42.3862 49.1859 43.0208C49.1859 43.0208 49.1179 43.0888 49.1859 43.1342C49.2312 43.1795 49.2765 43.1795 49.2992 43.1568Z" fill="#FEFEFE"/>
<path fill-rule="evenodd" clip-rule="evenodd" d="M51.1356 35.9263C51.2716 34.7929 50.7956 33.6596 49.9342 32.9116C49.7529 32.7529 49.5716 32.6169 49.3902 32.5036C49.3222 32.4809 49.2089 32.4356 49.1182 32.4809C49.0049 32.5263 48.9596 32.6849 48.9596 32.7076C48.7102 34.0449 48.9822 35.4729 49.6396 36.7649C49.7982 37.0823 50.0476 37.5129 50.1382 37.6943C50.2742 37.9889 50.3196 38.1249 50.4329 38.3516C50.4329 38.3516 50.4329 38.4196 50.5009 38.4196C50.5462 38.4423 50.5689 38.3743 50.5916 38.3743V38.3516C50.9542 37.6263 51.0676 36.4476 51.1356 35.9263Z" fill="#FEFEFE"/>
<path fill-rule="evenodd" clip-rule="evenodd" d="M51.181 38.5557C51.9063 38.0344 52.6543 37.2184 53.1303 36.493C54.0596 35.065 54.2863 33.5237 53.8783 32.073C53.8556 32.0277 53.765 31.8917 53.6516 31.869C53.5383 31.869 53.3796 32.0957 53.3796 32.0957C53.357 32.141 53.3343 32.1637 53.3116 32.209C52.9263 32.957 52.337 33.7504 51.7023 34.3397C51.7023 34.3397 51.6116 34.4304 51.5663 34.5664C51.4983 34.7024 51.521 34.8157 51.521 34.8384C51.6116 35.201 51.6116 35.5864 51.5663 35.9717C51.4756 36.765 51.3623 37.717 51.0223 38.465C51.0223 38.465 50.9996 38.533 51.0676 38.5557C51.113 38.5784 51.1583 38.5784 51.181 38.5557Z" fill="#FEFEFE"/>
<path fill-rule="evenodd" clip-rule="evenodd" d="M51.0223 31.0531C50.8636 29.9197 50.0703 28.9677 49.0503 28.4917C48.8463 28.3784 48.6196 28.3104 48.4156 28.2424C48.325 28.2424 48.2116 28.2197 48.1436 28.2877C48.053 28.3784 48.053 28.5371 48.053 28.5597C48.189 29.9197 48.8463 31.1891 49.8436 32.2771C50.093 32.5264 50.433 32.8664 50.5916 33.0251C50.7956 33.2517 50.8863 33.3877 51.045 33.5917C51.045 33.5917 51.0676 33.6371 51.113 33.6371C51.1583 33.6144 51.181 33.5464 51.181 33.5464C51.3396 32.7304 51.113 31.5517 51.0223 31.0531Z" fill="#FEFEFE"/>
<path fill-rule="evenodd" clip-rule="evenodd" d="M51.8156 33.5691C52.3823 32.8664 52.8583 31.8691 53.1076 31.0304C53.6063 29.3984 53.3796 27.8571 52.5863 26.5878C52.5863 26.5651 52.4503 26.4291 52.337 26.4518C52.201 26.4744 52.133 26.7464 52.133 26.7464C52.133 26.7918 52.1103 26.8371 52.1103 26.8598C51.929 27.6984 51.589 28.6051 51.1356 29.3758C51.1356 29.3758 51.0903 29.4891 51.0676 29.6251C51.0676 29.7611 51.113 29.8744 51.113 29.8971C51.2943 30.2371 51.4076 30.5998 51.4756 30.9624C51.6116 31.7558 51.7476 32.7078 51.6343 33.5011C51.6343 33.5011 51.6343 33.5918 51.725 33.5918C51.7703 33.6144 51.793 33.5918 51.8156 33.5691Z" fill="#FEFEFE"/>
<path fill-rule="evenodd" clip-rule="evenodd" d="M49.5717 26.4056C49.0957 25.3629 48.0983 24.6829 46.965 24.5016C46.7383 24.4563 46.5117 24.4336 46.285 24.4563C46.217 24.4563 46.1037 24.4789 46.0583 24.5469C45.9903 24.6603 46.0357 24.8189 46.0357 24.8416C46.557 26.1109 47.5317 27.1536 48.7783 27.9243C49.0957 28.1056 49.5263 28.3096 49.7077 28.4456C49.9797 28.6043 50.0703 28.6949 50.297 28.8536C50.297 28.8536 50.3423 28.8763 50.3877 28.8763C50.433 28.8536 50.433 28.7629 50.433 28.7629C50.3423 27.9469 49.821 26.8816 49.5717 26.4056Z" fill="#FEFEFE"/>
<path fill-rule="evenodd" clip-rule="evenodd" d="M51.0224 28.627C51.3851 27.7884 51.5664 26.6777 51.5891 25.8164C51.5891 24.1164 50.9771 22.711 49.8438 21.691C49.8211 21.6684 49.6624 21.5777 49.5718 21.6457C49.4584 21.691 49.4584 21.963 49.4584 21.963C49.4584 22.0084 49.4584 22.0537 49.4584 22.099C49.5264 22.9377 49.4358 23.9124 49.2318 24.7737C49.2318 24.7737 49.2091 24.887 49.2318 25.023C49.2544 25.159 49.3451 25.2724 49.3451 25.2724C49.6171 25.5444 49.8211 25.8617 49.9798 26.2244C50.3424 26.927 50.7504 27.811 50.8411 28.6044C50.8411 28.6044 50.8638 28.695 50.9544 28.6724C50.9998 28.6724 51.0224 28.6497 51.0224 28.627Z" fill="#FEFEFE"/>
<path fill-rule="evenodd" clip-rule="evenodd" d="M39.5982 50.297C40.6862 49.9117 41.4795 48.9823 41.7742 47.8943C41.8422 47.6677 41.8648 47.441 41.8875 47.2143C41.8875 47.1237 41.8875 47.0103 41.7968 46.965C41.7062 46.8743 41.5475 46.9197 41.5248 46.9197C40.2102 47.305 39.0542 48.1663 38.1928 49.345C37.9662 49.617 37.7168 50.025 37.5808 50.2063C37.5582 50.229 37.5355 50.2743 37.5128 50.297C36.5835 50.569 34.8608 51.1583 32.2995 52.1783C30.5315 52.881 28.6955 53.7423 27.2222 54.4903C27.8115 54.6717 28.4235 54.853 29.0355 54.989C31.0982 53.7423 33.8408 52.1783 35.5408 51.657C36.3795 51.385 37.6715 50.9543 38.5782 50.637C38.9862 50.5237 39.3715 50.365 39.5982 50.297Z" fill="#FEFEFE"/>
<path fill-rule="evenodd" clip-rule="evenodd" d="M37.4223 51.3397C38.193 51.8157 39.2583 52.1784 40.097 52.3144C41.7743 52.5864 43.2703 52.1784 44.449 51.2264C44.4716 51.2037 44.585 51.045 44.5396 50.9317C44.4943 50.8184 44.2223 50.773 44.2223 50.773C44.1996 50.773 44.1543 50.773 44.109 50.773C43.2703 50.705 42.2956 50.4784 41.5023 50.1384C41.5023 50.1384 41.389 50.093 41.2303 50.093C41.0943 50.093 41.0036 50.161 40.981 50.1837C40.6636 50.3877 40.3236 50.569 39.961 50.6597C39.1903 50.909 38.261 51.181 37.4676 51.1584C37.4676 51.1584 37.377 51.1584 37.377 51.249C37.377 51.2944 37.3996 51.317 37.4223 51.3397Z" fill="#FEFEFE"/>
<path fill-rule="evenodd" clip-rule="evenodd" d="M40.3689 18.1327C40.3009 18.1781 40.2102 18.2234 40.1875 18.3141C40.1649 18.4501 40.2329 18.5634 40.2555 18.5861C41.1395 19.6514 42.3862 20.3541 43.8142 20.6714C44.1542 20.7621 44.6302 20.8301 44.8569 20.8754C45.1515 20.9661 45.2875 21.0114 45.5369 21.1021C45.5369 21.1021 45.5822 21.1247 45.6275 21.0794C45.6729 21.0567 45.6502 20.9887 45.6275 20.9887V20.9661C44.7889 18.0194 43.2475 17.1354 40.3689 18.1327Z" fill="#FEFEFE"/>
<path d="M33.9996 11.7861C40.1423 11.7861 45.6956 14.2795 49.7076 18.2915C53.7196 22.3035 56.2129 27.8568 56.2129 33.9995C56.2129 40.1421 53.7196 45.6955 49.7076 49.7075C45.6956 53.7195 40.1423 56.2128 33.9996 56.2128C27.8569 56.2128 22.3036 53.7195 18.2916 49.7075C14.2796 45.6955 11.7863 40.1421 11.7863 33.9995C11.7863 27.8568 14.2796 22.3035 18.2916 18.2915C22.3036 14.2795 27.8569 11.7861 33.9996 11.7861ZM49.1636 18.8355C45.2876 14.9368 39.9156 12.5341 33.9996 12.5341C28.0836 12.5341 22.7116 14.9368 18.8356 18.8355C14.9369 22.7115 12.5343 28.0835 12.5343 33.9995C12.5343 39.9155 14.9369 45.2875 18.8356 49.1635C22.7116 53.0621 28.0836 55.4648 33.9996 55.4648C39.9156 55.4648 45.2876 53.0621 49.1636 49.1635C53.0623 45.2875 55.4649 39.9155 55.4649 33.9995C55.4649 28.0835 53.0623 22.7115 49.1636 18.8355Z" fill="#FEFEFE"/>
<path d="M23.4142 38.1017L25.9075 28.287L25.9982 28.2644C25.9982 28.2644 28.2195 27.4484 30.7582 27.6297C32.5715 27.7657 33.5689 28.219 33.9995 28.4684V38.2604C33.6142 38.1017 31.6422 37.2857 28.6049 37.6257C25.1822 37.9884 23.6182 38.3284 23.6182 38.3284L23.3462 38.3737L23.4142 38.1017ZM30.7582 27.9697C30.6902 28.5817 30.6222 29.1937 30.5769 29.8284C30.5089 30.3497 30.4635 30.9164 30.3955 31.483C30.9169 31.5057 31.4155 31.551 31.8915 31.6417C32.5942 31.755 33.2969 32.027 33.9769 32.299V31.9364C33.4329 31.7097 32.9115 31.5284 32.3675 31.3697C32.9342 30.8937 33.4555 30.5084 33.9769 30.1684V29.8284C33.7049 30.0097 33.4102 30.191 33.1382 30.395C32.7755 30.667 32.4129 30.9617 32.0502 31.3017C31.8915 31.2564 31.7102 31.2337 31.5515 31.211C32.0275 30.7804 32.4582 30.3724 32.9115 30.0324C33.2742 29.7604 33.6369 29.5337 33.9769 29.3297V28.8537C33.9315 28.8084 33.8182 28.7404 33.6595 28.6724C33.2742 28.9217 32.8435 29.1937 32.4355 29.5337C31.9369 29.919 31.4382 30.395 30.9169 30.8937C30.9849 30.327 31.0302 29.8057 31.0755 29.2844C31.0982 28.8537 31.1435 28.423 31.1662 28.015C31.0302 27.9924 30.8942 27.9924 30.7582 27.9697ZM30.2822 32.571C30.2142 33.2284 30.1462 33.8857 30.0555 34.5884C29.9649 35.427 29.8515 36.2884 29.7609 37.195C29.9422 37.195 30.1235 37.195 30.3049 37.195C30.3729 36.5377 30.4409 35.8804 30.5089 35.2457C30.5769 34.5657 30.6449 33.9084 30.7129 33.2737C31.1662 33.9537 31.6422 34.679 32.1182 35.4497C32.5715 36.175 33.0475 36.923 33.5235 37.7164C33.7049 37.7844 33.8635 37.8524 33.9769 37.8977V37.1497C33.5462 36.4244 33.1382 35.7444 32.7302 35.087C32.2769 34.3617 31.8462 33.6817 31.4155 33.047C31.5969 33.0697 31.7782 33.0924 31.9369 33.1377C32.2995 33.659 32.6395 34.2257 33.0022 34.815C33.3195 35.3137 33.6369 35.8577 33.9769 36.4017V35.9484C33.7049 35.5177 33.4555 35.087 33.1835 34.6564C32.8889 34.1577 32.5715 33.659 32.2769 33.2057C32.8435 33.3417 33.4102 33.523 33.9769 33.7497V33.3644C33.2742 33.0924 32.5489 32.843 31.8462 32.707C31.3249 32.6164 30.8035 32.571 30.2822 32.571ZM28.1969 37.331C28.3329 36.379 28.4915 35.495 28.6275 34.6337C28.7409 33.931 28.8542 33.251 28.9449 32.5937C28.3782 32.6164 27.8115 32.6844 27.2675 32.775C26.4969 32.911 25.7489 33.0924 25.0009 33.2737L24.8875 33.6817C25.5449 33.523 26.1569 33.387 26.7915 33.251C26.3835 33.727 25.9302 34.2257 25.4769 34.7017C25.1142 35.1324 24.7062 35.5404 24.3209 35.9484L24.2075 36.379C24.6835 35.8804 25.1595 35.3817 25.6355 34.883C26.1569 34.2937 26.6555 33.727 27.1542 33.183C27.3355 33.1604 27.5169 33.1377 27.6982 33.115C27.0862 33.7724 26.4742 34.4524 25.8169 35.1777C25.2502 35.8124 24.6382 36.447 24.0262 37.1044L23.7995 37.943C23.9129 37.9204 24.0489 37.8977 24.2075 37.875C24.9329 37.0817 25.6355 36.311 26.3155 35.563C27.0182 34.7697 27.6982 34.0217 28.3329 33.319C28.2422 33.9537 28.1062 34.6337 27.9929 35.3137C27.8795 35.9937 27.7435 36.6737 27.6302 37.3764C27.8115 37.3537 28.0155 37.331 28.1969 37.331ZM29.1035 31.5057C29.1715 30.939 29.2395 30.3724 29.3075 29.8284C29.3982 29.1937 29.4889 28.559 29.5569 27.9697C29.4209 27.9697 29.2622 27.9697 29.1262 27.9924C29.0809 28.423 29.0129 28.8537 28.9449 29.307C28.8542 29.8284 28.7862 30.3497 28.6955 30.9164C28.3102 30.395 27.9249 29.8964 27.5395 29.4657C27.2222 29.0804 26.9049 28.7404 26.6102 28.423C26.4289 28.491 26.2702 28.5364 26.2022 28.559L26.0889 29.0124C26.3609 29.307 26.6555 29.6017 26.9502 29.9417C27.2902 30.3497 27.6302 30.7804 27.9929 31.2337C27.8342 31.2564 27.6529 31.279 27.4942 31.3017C27.1995 30.939 26.9049 30.599 26.6329 30.2817C26.4062 30.0324 26.1795 29.783 25.9529 29.5337L25.8622 29.8737C26.2929 30.327 26.7009 30.8257 27.1542 31.3697C26.5649 31.483 25.9755 31.6417 25.3635 31.8004L25.2729 32.163C26.0209 31.9817 26.7235 31.8004 27.4489 31.6644C28.0155 31.5737 28.5595 31.5284 29.1035 31.5057Z" fill="#FEFEFE"/>
<path fill-rule="evenodd" clip-rule="evenodd" d="M32.9342 39.6883H22.1222L24.7289 29.6923H24.4569L21.5329 40.1416L32.8436 40.2549H33.2289C33.2742 40.3229 33.3196 40.3683 33.3649 40.4363C33.5236 40.5949 33.7502 40.6856 33.9996 40.6856V41.0483C33.6596 41.0483 33.3422 40.8896 33.1156 40.6856C33.0929 40.6629 33.0702 40.6176 33.0476 40.5949L21.0569 40.5043C22.0996 36.7643 23.1422 33.0469 24.1849 29.3296H24.8196L24.9329 28.8989C24.9329 28.8989 25.0916 28.8309 25.3636 28.7629L22.8476 38.6003L22.7796 38.8723L23.0742 38.8043C23.0742 38.8043 24.6836 38.4643 28.2649 38.0789C31.3476 37.7389 33.3876 38.5549 33.8409 38.7589C33.3649 38.8269 33.0022 39.2123 32.9342 39.6883Z" fill="#FEFEFE"/>
<path fill-rule="evenodd" clip-rule="evenodd" d="M35.065 39.6883H45.877L43.2703 29.6923H43.5423L46.4663 40.1416L35.1556 40.2549H34.7703C34.725 40.3229 34.6796 40.3683 34.6343 40.4363C34.4756 40.5949 34.249 40.6856 33.9996 40.6856V41.0483C34.3396 41.0483 34.657 40.8896 34.8836 40.6856C34.9063 40.6629 34.929 40.6176 34.9516 40.5949L46.9423 40.5043C45.8996 36.7643 44.857 33.0469 43.8143 29.3296H43.1796L43.0663 28.8989C43.0663 28.8989 42.9076 28.8309 42.6356 28.7629L45.1516 38.6003L45.2196 38.8723L44.925 38.8043C44.925 38.8043 44.585 38.7363 43.8596 38.6229C44.4943 38.6003 44.857 38.5549 44.857 38.5549L45.0836 38.5323L41.661 26.9496L41.457 27.3803C40.913 28.6269 39.2356 28.2643 37.989 27.9923C37.6036 27.9243 37.241 27.8336 36.9463 27.8109C35.7223 27.7203 34.453 28.2643 33.9996 28.4683V28.8536C34.113 28.7856 35.5636 28.0603 36.9236 28.1736C37.1956 28.1963 37.5356 28.2643 37.921 28.3549C39.1676 28.6043 40.777 28.9669 41.5703 27.9016L44.6076 38.2149C44.109 38.2603 42.749 38.3509 40.8903 38.2149C40.5276 38.1696 40.1423 38.1243 39.7343 38.0789C36.6516 37.7389 34.6116 38.5549 34.1583 38.7589C34.6343 38.8269 34.997 39.2123 35.065 39.6883Z" fill="#FEFEFE"/>
<path fill-rule="evenodd" clip-rule="evenodd" d="M37.2181 29.7375C37.2181 29.7375 37.4448 29.7602 37.4448 29.7149C37.4448 29.6695 37.3315 29.4655 37.3768 29.4429C37.4448 29.3975 37.4448 29.2615 37.4448 29.2615C37.4448 29.2615 37.4901 29.1029 37.5355 29.0802C37.5808 29.0802 38.1248 29.1935 38.2155 29.1935C38.3061 29.1709 38.3288 29.1709 38.3968 29.2842C38.4648 29.4202 38.1701 29.6922 38.1248 29.7375C38.0795 29.8055 38.0115 29.8509 38.0795 29.8962C38.1248 29.9415 38.0795 30.1002 38.0795 30.1002C38.0795 30.1002 38.2835 30.1002 38.3515 30.1002C38.4195 30.1002 38.3968 30.0322 38.5555 30.1002C38.7368 30.1682 39.0315 30.1002 39.0995 30.2135C39.1901 30.3269 39.1448 30.5309 39.0995 30.6442C39.0541 30.7575 39.0088 30.9842 38.9181 31.0295C38.8501 31.0749 38.6461 31.1655 38.6915 31.2109C38.7595 31.2562 38.8955 31.3922 38.8955 31.3922C38.8955 31.3922 38.7595 31.4829 38.6688 31.5055C38.5555 31.5509 38.5555 31.6415 38.5781 31.6642C38.6008 31.6642 38.8728 31.6642 38.8728 31.6642C38.8728 31.6642 38.9635 31.5962 39.0541 31.6642C39.0995 31.7095 39.1448 31.7322 39.1901 31.7549C39.1448 31.8002 39.1221 31.8455 39.0995 31.8682V31.8909C39.0768 31.9589 39.0541 32.0042 39.1221 32.0722C39.1448 32.0722 39.1448 32.0949 39.1675 32.1175C39.1675 32.1402 39.1675 32.1629 39.1675 32.1629C39.1675 32.1629 39.0995 32.1855 39.0541 32.2082C39.0315 32.2082 39.0088 32.2082 38.9861 32.2309C38.9635 32.2309 38.9408 32.2535 38.9181 32.2762C38.8955 32.2989 38.8728 32.3215 38.8501 32.3669L38.8275 32.3895C38.8048 32.4349 38.7595 32.5255 38.7141 32.5255C38.6915 32.5255 38.6688 32.5255 38.6461 32.5255C38.5781 32.5255 38.5328 32.5482 38.4875 32.5709C38.4875 32.5482 38.4648 32.5482 38.4421 32.5482C38.3968 32.5482 38.3741 32.6389 38.2608 32.6389C38.1248 32.6389 37.9661 32.5935 37.8981 32.6389C37.8075 32.7069 37.6488 32.6615 37.5808 32.5935C37.5128 32.5255 37.5128 32.4349 37.5581 32.3442C37.6035 32.2762 37.6715 32.1175 37.7168 32.0722C37.7395 32.0269 37.7168 32.0042 37.6715 31.9362C37.6488 31.8455 37.5128 31.6642 37.4448 31.6869C37.3541 31.7095 37.3541 31.8682 37.3541 31.9135C37.3541 31.9815 37.3315 32.1629 37.2635 32.1402C37.1955 32.1175 37.1275 32.0269 37.1275 31.9135C37.1275 31.8229 37.1955 31.5735 37.1955 31.5735C37.1955 31.5735 37.1048 31.5509 37.0141 31.5282C36.9235 31.4829 36.9235 31.4149 36.9688 31.4149C37.0141 31.3922 37.1955 31.3469 37.2181 31.2789C37.2635 31.1882 37.0368 31.1202 36.9915 31.0975C36.9461 31.0975 36.9461 30.9842 36.9461 30.9162C36.9461 30.8482 37.0141 30.8482 37.0821 30.7575C37.1501 30.6669 37.2181 30.6215 37.1728 30.5762C37.1501 30.5082 36.9008 30.4402 36.8781 30.3495C36.8328 30.2815 36.6968 30.2135 36.6968 30.1682C36.6968 30.1455 36.6741 30.1002 36.7875 30.0549C36.9008 30.0095 36.9915 29.9642 36.9915 30.0095C37.0141 30.0549 37.1275 30.3042 37.1501 30.2815C37.1955 30.2589 37.1728 30.1229 37.1501 30.1002C37.1501 30.0775 37.1728 29.8962 37.1728 29.8735C37.1728 29.8509 37.2181 29.7375 37.2181 29.7375ZM39.2355 31.8002C39.2355 31.8229 39.2581 31.8229 39.2581 31.8229C39.3488 31.8909 39.4395 31.9589 39.4848 32.0269C39.5301 32.1175 39.5301 32.1402 39.5528 32.2535C39.5981 32.3442 39.6435 32.5255 39.7115 32.5935C39.7795 32.6615 39.8928 32.8429 40.0288 32.8882C40.1648 32.9109 40.4141 33.0922 40.4595 33.2055C40.5275 33.2962 40.8448 33.6135 40.8221 33.6589C40.8221 33.7042 40.8221 33.6815 40.8675 33.7269C40.8221 33.7495 40.7768 33.7722 40.7315 33.7495C40.6635 33.7495 40.5955 33.7495 40.5275 33.7495C40.4368 33.7495 40.3461 33.7722 40.3008 33.7722C40.2328 33.7949 40.0968 33.8175 39.9835 33.8402C39.9155 33.8402 39.8475 33.8629 39.8248 33.8402C39.8021 33.8402 39.7568 33.8175 39.7115 33.7722C39.6435 33.7042 39.5755 33.6135 39.5301 33.5682C39.5075 33.5455 39.5075 33.5002 39.5075 33.4775C39.5075 33.4549 39.5075 33.4322 39.5075 33.4095C39.5075 33.3415 39.3941 33.2962 39.3035 33.2735C39.2581 33.2509 39.2355 33.2282 39.2128 33.2282C39.2128 33.2282 39.2128 33.2282 39.2355 33.2055L39.2581 33.1829C39.3035 33.1602 39.3035 33.1375 39.3261 33.0922C39.3488 33.0469 39.3715 32.9789 39.3715 32.9562C39.3715 32.9562 39.3715 32.9335 39.3488 32.8882C39.3488 32.8655 39.3261 32.8429 39.3035 32.7975C39.3035 32.7975 39.2808 32.7749 39.2581 32.7522C39.1901 32.6842 39.1448 32.6389 39.1221 32.5935C39.0995 32.5709 39.1221 32.5482 39.1221 32.5482C39.1221 32.5029 39.1448 32.4802 39.1221 32.4122C39.0768 32.3669 39.0088 32.3215 38.9861 32.2989C38.9861 32.2989 39.0088 32.2989 39.0088 32.2762H39.0768C39.1448 32.2309 39.2355 32.2082 39.2355 32.1629C39.2355 32.1402 39.2355 32.1175 39.2128 32.0722C39.2128 32.0495 39.1901 32.0269 39.1675 32.0042C39.1448 31.9815 39.1448 31.9589 39.1675 31.9135V31.8909C39.1901 31.8682 39.2128 31.8455 39.2355 31.8002ZM40.9128 33.7722V33.7949C41.0035 33.9082 41.1395 34.0442 41.1621 34.0895C41.1621 34.1575 40.9355 34.2029 40.9808 34.2935C41.0261 34.3389 41.1168 34.3615 41.1848 34.3615C41.1395 34.4069 41.0488 34.4295 41.0035 34.4522H40.9808C40.9581 34.4522 40.9128 34.4522 40.8675 34.4522C40.7995 34.4295 40.7315 34.4295 40.7088 34.4749C40.6635 34.4975 40.7088 34.5429 40.7315 34.6109C40.7315 34.6335 40.7541 34.6789 40.7541 34.6789C40.7541 34.7015 40.7088 34.7242 40.6635 34.7469H40.6408C40.6181 34.7469 40.6181 34.7469 40.6181 34.7469C40.5955 34.7469 40.5955 34.7695 40.5728 34.7695C40.5275 34.7922 40.4595 34.8149 40.4368 34.8149C40.4141 34.8375 40.3915 34.8375 40.3461 34.8602C40.2781 34.8829 40.2101 34.9282 40.1648 34.9282C40.1421 34.9282 40.1648 34.8375 40.1648 34.8149C40.1875 34.7922 40.2101 34.7695 40.2328 34.7695C40.3008 34.7242 40.3008 34.6562 40.3008 34.6562L40.2781 34.6335C40.2781 34.6335 40.0515 34.4749 40.0061 34.4522C39.9835 34.4522 39.9608 34.4295 39.9608 34.4069C39.9155 34.3615 39.8928 34.2935 39.8928 34.2935C39.8701 34.2255 39.7568 34.2255 39.6888 34.2255C39.7115 34.2255 39.7115 34.2255 39.7115 34.2255C39.7795 34.1802 39.7795 34.1575 39.7568 34.0895L39.7341 34.0442C39.7115 33.9989 39.6435 33.9535 39.5981 33.9309C39.6208 33.8855 39.6208 33.8175 39.6208 33.7722C39.6208 33.7949 39.6435 33.7949 39.6661 33.8175C39.7115 33.8629 39.7568 33.9082 39.8021 33.9082C39.8475 33.9309 39.9155 33.9082 39.9835 33.9082C40.0968 33.8855 40.2555 33.8629 40.3008 33.8402C40.3688 33.8402 40.4368 33.8175 40.5275 33.8175C40.5955 33.8175 40.6635 33.8175 40.7315 33.8402C40.7995 33.8402 40.8448 33.8175 40.9128 33.7722ZM41.3208 34.3162C41.3888 34.2935 41.5021 34.2935 41.6835 34.3615C41.8648 34.4295 42.2728 34.6109 42.2955 34.7015C42.3181 34.7922 42.4315 35.0189 42.2955 35.1322C42.1595 35.2455 42.0915 35.3135 42.0008 35.3589C41.9101 35.3815 41.8195 35.3815 41.8195 35.4495C41.8195 35.4722 41.8195 35.4722 41.8195 35.4722C41.7061 35.4722 41.6155 35.4495 41.5928 35.4495C41.5701 35.4495 41.5701 35.4495 41.5475 35.4495C41.5475 35.4269 41.5248 35.3815 41.4795 35.3589C41.4568 35.3362 41.4341 35.3135 41.3888 35.3135C41.3661 35.3135 41.3208 35.2909 41.2528 35.2682C41.2075 35.2229 41.1395 35.2002 41.0941 35.2002C41.0035 35.2002 40.8448 35.2455 40.7768 35.2455L40.7541 35.2229C40.7088 35.1775 40.6408 35.1549 40.6181 35.1549C40.6181 35.1322 40.6181 35.1322 40.6408 35.1095C40.6635 35.0415 40.6635 34.9055 40.6635 34.8149H40.6861C40.7541 34.7695 40.7995 34.7469 40.8221 34.7242C40.8448 34.6789 40.8221 34.6335 40.7768 34.5655C40.7768 34.5429 40.7541 34.5202 40.7541 34.4975C40.7541 34.4975 40.7995 34.4975 40.8448 34.5202C40.9128 34.5202 40.9581 34.5429 41.0035 34.5202H41.0261C41.0941 34.4975 41.2301 34.4522 41.3208 34.3162ZM41.8195 35.5402C41.8421 35.5855 41.8421 35.6082 41.8421 35.6082C41.8421 35.6082 42.1368 35.6762 42.2275 35.6762C42.3181 35.6989 42.3635 35.7215 42.3635 35.7895C42.3635 35.8575 41.8195 36.0842 41.5928 36.0389C41.3888 36.0162 41.0941 35.9029 41.0261 35.9255C40.9581 35.9255 40.3915 35.8802 40.3461 35.9255C40.3008 35.9935 40.0288 35.9029 39.9608 35.8575C39.9381 35.8349 39.9155 35.8349 39.8928 35.8349C39.8701 35.7669 39.8475 35.7215 39.8475 35.6989H39.8928C39.9381 35.6762 39.9835 35.6535 39.9835 35.6082C39.9835 35.5855 39.9835 35.5402 39.9608 35.5175C39.9608 35.4949 39.9381 35.4722 39.9381 35.4722C39.9608 35.4722 40.0061 35.4495 40.0061 35.4495C40.0741 35.4269 40.1195 35.3815 40.0968 35.3362V35.3135C40.0741 35.2909 40.0288 35.2682 40.0061 35.2455C39.9381 35.2002 39.8928 35.1775 39.8928 35.1549C39.8928 35.1095 39.9155 35.0189 39.9155 34.9735C39.9608 34.9509 40.0288 34.9055 40.0741 34.8602C40.0741 34.9282 40.0968 34.9962 40.1648 34.9962C40.2101 34.9962 40.3008 34.9509 40.3688 34.9282C40.4141 34.9055 40.4368 34.9055 40.4595 34.9055C40.4821 34.8829 40.5275 34.8829 40.5955 34.8602C40.5955 34.9282 40.5955 35.0415 40.5728 35.0642C40.5501 35.1095 40.5501 35.1322 40.5501 35.1549C40.5501 35.2002 40.5728 35.2002 40.5955 35.2229C40.6181 35.2229 40.6635 35.2455 40.7088 35.2682C40.7315 35.2909 40.7768 35.3362 40.7768 35.3589C40.8221 35.4042 40.8675 35.4722 40.9128 35.4949C40.9808 35.5402 41.0261 35.5629 41.0715 35.5629C41.0715 35.5629 41.1168 35.5855 41.1621 35.5855C41.2528 35.6082 41.3435 35.6309 41.3888 35.6082C41.4115 35.5855 41.4568 35.5629 41.5021 35.5402C41.5248 35.5175 41.5475 35.5175 41.5701 35.5175C41.5928 35.5175 41.7061 35.5402 41.8195 35.5402ZM39.8021 35.8349C39.7568 35.8575 39.7115 35.8575 39.7115 35.8802C39.6661 35.9029 39.5075 35.9255 39.3941 35.8802C39.2808 35.8122 39.0995 35.6762 38.8275 35.7895C38.5328 35.8802 38.5781 35.9255 38.5328 35.9935C38.4648 36.0389 38.2381 36.0389 38.0568 36.0389C37.8755 36.0389 37.5808 36.0389 37.5128 36.1295C37.4221 36.2429 37.1275 36.2202 37.1275 36.1749C37.1275 36.1295 37.6035 35.9029 37.6488 35.8349C37.6941 35.7442 37.8755 35.4949 38.0115 35.4949C38.1475 35.4949 38.6915 35.4949 38.8048 35.4722C38.8955 35.4269 38.8728 35.3589 38.8048 35.3135C38.8501 35.2909 38.8955 35.2682 38.9181 35.2682C38.9635 35.2455 39.0088 35.2229 39.0541 35.1775C39.0995 35.1322 39.1448 35.0869 39.1448 35.0642V35.0415C39.1675 35.0415 39.1675 35.0642 39.1901 35.0642C39.2128 35.0642 39.2808 35.0415 39.3488 35.0189C39.3941 34.9962 39.4168 34.9735 39.4395 34.9735C39.4621 34.9735 39.5075 34.9509 39.5755 34.9282C39.6661 34.9055 39.7568 34.8602 39.8021 34.8829C39.8021 34.8829 39.8021 34.8829 39.8248 34.9055C39.8248 34.9282 39.8248 34.9509 39.8475 34.9509C39.8475 35.0189 39.8248 35.1095 39.8248 35.1549C39.8248 35.2002 39.8928 35.2455 39.9608 35.2909C39.9835 35.3135 40.0288 35.3362 40.0288 35.3589C40.0288 35.3589 40.0061 35.3589 39.9835 35.3815H39.9608C39.9381 35.4042 39.9155 35.4042 39.9155 35.4042C39.8701 35.4495 39.8928 35.4949 39.8928 35.5402C39.9155 35.5629 39.9155 35.5855 39.9155 35.6082C39.9155 35.6082 39.8928 35.6082 39.8701 35.6309C39.8248 35.6309 39.8021 35.6535 39.7795 35.6762C39.7795 35.6989 39.7795 35.7669 39.8021 35.8349ZM38.7368 35.2909C38.6008 35.2455 38.3515 35.1775 38.2608 35.1322C38.1701 35.0869 37.9888 34.9735 37.8755 35.0189C37.7395 35.0642 37.4901 35.1095 37.4901 35.1095C37.4901 35.1095 37.3541 34.9509 37.3995 34.9055C37.4448 34.8602 37.8528 34.7242 37.9435 34.6562C38.0341 34.6109 38.1248 34.5429 38.1021 34.4295C38.0795 34.2935 38.1021 34.1122 38.0115 34.1122C37.9208 34.0895 37.7848 34.1575 37.7848 34.1575L37.7621 33.9989L37.8981 33.9082C37.8981 33.9082 37.7848 33.8175 37.8075 33.7495C37.8301 33.6815 38.0568 33.7042 38.0568 33.7042C38.0568 33.7042 38.1248 33.8855 38.2155 33.8402C38.3061 33.7949 38.6688 33.8629 38.7141 33.7949C38.7368 33.7949 38.7368 33.7949 38.7368 33.7949C38.7595 33.7949 38.7595 33.8175 38.7821 33.8402C38.8275 33.9082 38.8501 33.9535 38.8728 33.9989C38.8955 34.0215 38.8955 34.0442 38.9181 34.0669C38.8955 34.0895 38.8728 34.0895 38.8501 34.0895C38.7821 34.1122 38.7595 34.1802 38.7368 34.2029C38.7368 34.2255 38.7368 34.2482 38.7595 34.2482L38.8728 34.3162C38.8728 34.3389 38.8048 34.3842 38.7595 34.4069L38.7141 34.4295C38.6915 34.4749 38.6915 34.4975 38.7141 34.5202C38.7368 34.5429 38.7821 34.5655 38.8275 34.5882C38.8501 34.5882 38.8728 34.5882 38.8955 34.6109C38.8728 34.6109 38.8501 34.6335 38.8501 34.6335C38.8048 34.6562 38.7595 34.6789 38.7595 34.7242C38.7595 34.7469 38.7595 34.7695 38.7821 34.7922C38.7821 34.8149 38.8048 34.8602 38.8275 34.8829C38.8728 34.9055 38.8955 34.9282 38.9408 34.9282C38.9408 34.9282 38.9408 34.9282 38.9635 34.9282C38.9861 34.9282 39.0315 34.9735 39.0995 34.9962C39.0768 35.0189 39.0768 35.0415 39.0768 35.0642C39.0768 35.0642 39.0315 35.0869 39.0088 35.1322C38.9635 35.1549 38.9181 35.1775 38.8955 35.1775C38.8501 35.2002 38.7821 35.2455 38.7368 35.2909ZM38.7595 33.7042C38.7821 33.6135 38.7821 33.4775 38.8048 33.4322C38.8275 33.3869 39.0315 33.2282 38.9181 33.1602C38.8048 33.0922 38.6915 33.2735 38.6461 33.2055C38.5781 33.1149 38.4421 32.8655 38.4648 32.7749C38.4648 32.7522 38.4648 32.7295 38.4875 32.6842C38.5101 32.6615 38.5328 32.6162 38.5328 32.6162C38.5555 32.6162 38.6008 32.6162 38.6461 32.5935C38.6688 32.5935 38.7141 32.5935 38.7368 32.5935C38.8048 32.5935 38.8501 32.4802 38.8955 32.4122V32.3895C38.9181 32.3669 38.9408 32.3442 38.9635 32.3215L38.9408 32.3669C38.9408 32.3669 39.0315 32.3895 39.0541 32.4575C39.0541 32.4802 39.0541 32.5029 39.0541 32.5255C39.0315 32.5482 39.0315 32.5935 39.0541 32.6389C39.0768 32.6842 39.1448 32.7522 39.1901 32.7975C39.2128 32.8202 39.2355 32.8429 39.2581 32.8429C39.2808 32.8655 39.2808 32.8882 39.2808 32.9109C39.2808 32.9335 39.2808 32.9562 39.2808 32.9562C39.2808 32.9789 39.2808 33.0242 39.2581 33.0695C39.2581 33.0922 39.2355 33.1149 39.2355 33.1149C39.2128 33.1375 39.1901 33.1602 39.1675 33.1602C39.1675 33.1829 39.1448 33.2055 39.1448 33.2055C39.1448 33.2282 39.1448 33.2509 39.1448 33.2735C39.1675 33.2735 39.1675 33.2735 39.1675 33.2735C39.1901 33.2962 39.2355 33.3189 39.2808 33.3189C39.3488 33.3642 39.4395 33.3869 39.4395 33.4095C39.4395 33.4322 39.4395 33.4549 39.4395 33.4549C39.4395 33.5002 39.4168 33.5455 39.4848 33.6135C39.4848 33.6362 39.5075 33.6589 39.5301 33.6815C39.5301 33.6815 39.5755 33.9309 39.5301 33.9309C39.4168 33.9309 39.3715 33.9309 39.3261 33.9762C39.3035 33.9989 39.2581 34.0442 39.1901 34.0895C39.1448 34.1122 39.1221 34.1122 39.0995 34.1122C39.0768 34.1122 39.0541 34.1122 39.0315 34.0895C39.0315 34.0669 39.0088 34.0669 39.0088 34.0442H38.9861C38.9861 34.0215 38.9861 34.0215 38.9635 33.9989C38.9635 33.9989 38.9408 33.9762 38.9408 33.9535C38.9181 33.9082 38.8955 33.8629 38.8501 33.7949C38.8048 33.7722 38.7821 33.7269 38.7595 33.7042ZM40.8448 35.3135C40.8675 35.3589 40.9128 35.4042 40.9581 35.4495C41.0035 35.4722 41.0488 35.4949 41.0488 35.4949C41.0941 35.4949 41.1395 35.5175 41.1848 35.5175C41.2528 35.5402 41.3208 35.5629 41.3435 35.5402C41.3661 35.5175 41.4115 35.4949 41.4795 35.4722C41.4795 35.4495 41.4568 35.4269 41.4341 35.4042C41.4341 35.3815 41.4115 35.3815 41.3888 35.3815C41.3435 35.3815 41.2981 35.3589 41.2301 35.3135C41.1848 35.2909 41.1168 35.2682 41.0715 35.2682C41.0261 35.2682 40.9128 35.2909 40.8448 35.3135ZM39.8928 34.9055C39.9381 34.8829 40.0061 34.8375 40.0741 34.7695C40.1195 34.7469 40.1648 34.7242 40.1875 34.7015C40.2101 34.7015 40.2101 34.6789 40.2101 34.6789C40.1648 34.6335 40.0061 34.5429 39.9608 34.5202C39.9381 34.4975 39.9155 34.4749 39.8928 34.4295C39.8701 34.3842 39.8475 34.3389 39.8248 34.3162H39.6435L39.6208 34.2935C39.6208 34.2935 39.5981 34.2029 39.6888 34.1575C39.7115 34.1575 39.6888 34.1349 39.6888 34.1349L39.6661 34.0895C39.6435 34.0442 39.5981 34.0215 39.5755 33.9989C39.5528 33.9989 39.5528 33.9989 39.5301 33.9989C39.4395 33.9989 39.4168 33.9989 39.3715 34.0215C39.3488 34.0442 39.3035 34.1122 39.2355 34.1349C39.1901 34.1802 39.1221 34.2029 39.0995 34.1802C39.0541 34.1802 39.0088 34.1575 38.9861 34.1349C38.9408 34.1349 38.8955 34.1575 38.8728 34.1575C38.8501 34.1802 38.8275 34.1802 38.8275 34.2029C38.8501 34.2255 38.9181 34.2709 38.9408 34.2935C38.9635 34.3389 38.8728 34.4069 38.8048 34.4749H38.7821C38.8048 34.4975 38.8275 34.4975 38.8501 34.5202C38.8728 34.5202 38.8955 34.5429 38.9408 34.5655C38.9635 34.5882 38.9635 34.6109 38.9635 34.6335C38.9408 34.6562 38.9181 34.6789 38.8728 34.7015C38.8501 34.7015 38.8275 34.7242 38.8275 34.7242C38.8275 34.7242 38.8275 34.7469 38.8501 34.7695C38.8501 34.7922 38.8728 34.8149 38.8955 34.8375C38.8955 34.8602 38.9181 34.8602 38.9181 34.8602C38.9861 34.8375 39.0768 34.9055 39.1448 34.9509L39.1675 34.9735C39.1675 34.9735 39.1675 34.9735 39.1901 34.9735C39.1901 34.9735 39.1901 34.9962 39.2128 34.9962C39.2128 34.9962 39.2581 34.9735 39.3035 34.9509C39.3715 34.9282 39.4168 34.9055 39.4395 34.9055C39.4395 34.9055 39.5075 34.8829 39.5528 34.8602C39.6435 34.8375 39.7568 34.7922 39.8021 34.7922C39.8701 34.8149 39.8701 34.8375 39.8928 34.8829C39.8928 34.8829 39.8928 34.8829 39.8928 34.9055Z" fill="#FEFEFE"/>
<path fill-rule="evenodd" clip-rule="evenodd" d="M34.9517 34.0897C34.9517 34.0897 34.9517 34.2484 34.8384 34.3164C34.7251 34.4071 34.5437 34.4977 34.5891 34.5431C34.6117 34.5657 34.5891 34.6111 34.5891 34.6791C34.5891 34.7244 34.3624 34.7924 34.2944 34.8377C34.2264 34.9057 34.2264 34.9511 34.2944 34.9737C34.3624 35.0191 34.3851 35.0871 34.3397 35.1551C34.3171 35.2231 34.2944 35.3591 34.3851 35.3591C34.4531 35.3817 34.5437 35.2457 34.6117 35.3137C34.6797 35.3591 34.6117 35.4044 34.6571 35.4271C34.7024 35.4724 34.9517 35.5404 34.9517 35.4271C34.9517 35.3137 35.4957 35.1551 35.6771 34.9964C35.8584 34.8377 35.8584 34.6791 36.0171 34.6791C36.1984 34.6791 36.5837 34.6791 36.6291 34.5884C36.6971 34.4977 36.8557 34.2484 36.8784 34.1804C36.8784 34.0897 36.8784 33.8857 36.8784 33.7497C36.8784 33.6137 36.8104 33.5911 36.8104 33.4551C36.7877 33.3871 36.7424 33.3191 36.7197 33.2511C36.6971 33.2511 36.6744 33.2284 36.6517 33.2284C36.6064 33.1831 36.5157 33.0924 36.4704 33.0244C36.4251 32.9791 36.4024 32.9564 36.4024 32.9337C36.4024 32.9337 36.4024 32.9337 36.3797 32.9337C36.3797 32.9564 36.3797 32.9564 36.3797 32.9564C36.3571 32.9564 36.3571 32.9791 36.3571 33.0017C36.3344 33.0471 36.3117 33.0697 36.2891 33.1151C36.2437 33.1604 36.1984 33.1831 36.1757 33.1831C36.1531 33.1831 36.0171 33.1377 35.9264 33.1151H35.9037C35.8584 33.0924 35.8584 33.0697 35.8357 33.0471V33.0244C35.8357 33.0244 35.8357 33.0017 35.8131 32.9791C35.7677 32.9111 35.6771 32.8884 35.6771 32.8884H35.6317C35.6091 32.9337 35.5637 33.0017 35.5637 33.0017C35.5637 33.0017 35.5184 33.0924 35.4277 33.0697C35.3371 33.0471 35.0424 33.0017 34.8384 33.0244C34.6571 33.0697 34.5891 33.2511 34.5891 33.2737C34.5891 33.3191 34.6571 33.4551 34.6571 33.4551L34.8611 33.4324C34.8611 33.4324 34.8837 33.5004 34.8611 33.5231C34.8384 33.5684 34.6344 33.6364 34.6117 33.6817C34.5891 33.7497 34.5891 33.8631 34.6117 33.8857C34.6344 33.9084 34.6797 33.9764 34.7251 33.9764C34.7931 33.9764 34.9517 33.9311 34.9971 33.9764C35.0197 34.0217 34.9517 34.0897 34.9517 34.0897ZM36.7877 33.2057C36.9011 33.1604 37.1504 33.0924 37.1504 33.0471C37.1504 33.0017 37.3771 32.9564 37.3317 32.8431C37.3091 32.7297 37.1504 32.7751 37.1277 32.6391C37.1277 32.5257 36.9917 32.3217 36.9691 32.2311C36.9237 32.1631 36.7877 32.2084 36.6971 32.1857C36.6744 32.1857 36.6291 32.1857 36.6064 32.1857C36.5837 32.2084 36.5611 32.2311 36.5157 32.2537C36.4704 32.2991 36.3797 32.3444 36.3344 32.3671C36.2664 32.3671 36.2211 32.5031 36.1757 32.5484C36.1757 32.5937 36.1531 32.5937 36.1531 32.6164C36.1304 32.6391 36.0851 32.6391 36.0171 32.6391C35.9717 32.6617 35.9491 32.6617 35.9264 32.6617H35.9491L35.9717 32.6844C35.9944 32.7071 36.0171 32.7524 35.9717 32.7977C35.9264 32.8204 35.8584 32.8431 35.8131 32.8657C35.8357 32.8884 35.8584 32.9111 35.8811 32.9337C35.9037 32.9564 35.9037 32.9791 35.9037 33.0017C35.9264 33.0244 35.9264 33.0471 35.9264 33.0471H35.9491C36.0171 33.0697 36.1531 33.1151 36.1757 33.1151C36.1757 33.1151 36.1984 33.0924 36.2437 33.0697C36.2664 33.0471 36.2664 33.0017 36.2891 32.9791C36.2891 32.9564 36.3117 32.9337 36.3117 32.9111C36.3344 32.8884 36.3571 32.8884 36.3571 32.8884C36.3797 32.8657 36.4024 32.8657 36.4251 32.8657C36.4251 32.8884 36.4477 32.8884 36.4477 32.8884C36.4477 32.9111 36.4931 32.9337 36.5157 32.9791C36.5611 33.0471 36.6517 33.1377 36.6971 33.1604C36.6971 33.1831 36.7424 33.1831 36.7877 33.2057ZM36.4251 32.2311C36.4024 32.2311 36.3571 32.2311 36.3571 32.1857C36.3344 32.0724 36.2664 32.0271 36.1984 32.0044C36.1531 32.0044 35.9717 32.2311 35.9037 32.2084C35.8584 32.1857 35.6544 32.2084 35.6091 32.2537C35.5864 32.2991 35.5411 32.4124 35.5637 32.4351C35.5864 32.4577 35.6317 32.5484 35.5637 32.5484C35.4957 32.5711 35.3824 32.6617 35.4051 32.7071C35.4277 32.7524 35.5184 32.7524 35.5637 32.7524C35.5864 32.7751 35.6317 32.7977 35.6317 32.8204H35.6997C35.6997 32.8204 35.8811 32.7977 35.9264 32.7524C35.9264 32.7297 35.9264 32.7297 35.9264 32.7297H35.9037C35.8811 32.7071 35.8584 32.6844 35.8584 32.6391H35.8811C35.8811 32.5937 35.9491 32.5937 36.0171 32.5711C36.0624 32.5711 36.0851 32.5711 36.0851 32.5711C36.1077 32.5711 36.1077 32.5484 36.1077 32.5257C36.1531 32.4577 36.2211 32.3217 36.3117 32.2991C36.3344 32.2764 36.3797 32.2537 36.4251 32.2311Z" fill="#FEFEFE"/>
<path fill-rule="evenodd" clip-rule="evenodd" d="M30.1684 20.2862L30.395 22.3488C30.4177 22.4622 30.3044 22.5528 30.191 22.5528H29.7604H29.3524C29.239 22.5528 29.1257 22.4622 29.1484 22.3488L29.375 20.2862C29.1937 20.1502 29.0804 19.9462 29.0804 19.7195C29.0804 19.4475 29.239 19.2208 29.443 19.1075C29.4657 18.6088 29.579 17.9062 29.8964 17.3848L28.151 16.8182C27.947 16.7502 27.947 16.6595 28.151 16.5915L33.6364 14.7782C33.8404 14.7328 34.1577 14.7328 34.3617 14.8008L39.847 16.5915C40.051 16.6368 40.051 16.7502 39.847 16.8182L34.3617 18.6088C34.1577 18.6768 33.8404 18.6768 33.6364 18.6088L30.5084 17.5888C30.5084 17.6115 30.4857 17.6568 30.463 17.6795C30.191 18.0648 30.1004 18.6542 30.0777 19.1075C30.3044 19.2208 30.463 19.4475 30.463 19.7195C30.463 19.9462 30.3497 20.1502 30.1684 20.2862ZM37.195 18.1555L37.3084 19.5382C37.3084 19.5835 37.3084 19.6288 37.3084 19.6515C37.3084 20.5128 35.835 21.1928 33.999 21.1928C32.163 21.1928 30.6897 20.5128 30.6897 19.6515C30.6897 19.6288 30.6897 19.5835 30.6897 19.5382L30.803 18.1555L33.455 19.0168C33.7724 19.1302 34.2257 19.1302 34.543 19.0168L37.195 18.1555Z" fill="#FEFEFE"/>
<path d="M33.999 2.92395C42.5896 2.92395 50.3416 6.39195 55.963 12.036C61.607 17.6573 65.075 25.4093 65.075 34C65.075 42.5906 61.607 50.3426 55.963 55.964C50.3416 61.608 42.5896 65.076 33.999 65.076C25.4083 65.076 17.6563 61.608 12.035 55.964C6.39097 50.3426 2.92297 42.5906 2.92297 34C2.92297 25.4093 6.39097 17.6573 12.035 12.036C17.6563 6.39195 25.4083 2.92395 33.999 2.92395ZM55.5776 12.4213C50.047 6.91328 42.431 3.49062 33.999 3.49062C25.567 3.49062 17.951 6.91328 12.4203 12.4213C6.91231 17.952 3.48964 25.568 3.48964 34C3.48964 42.432 6.91231 50.048 12.4203 55.5786C17.951 61.0866 25.567 64.5093 33.999 64.5093C42.431 64.5093 50.047 61.0866 55.5776 55.5786C61.0856 50.048 64.5083 42.432 64.5083 34C64.5083 25.568 61.0856 17.952 55.5776 12.4213Z" fill="#FEFEFE"/>
<path d="M33.9988 1.76782C42.9068 1.76782 50.9535 5.37182 56.7788 11.2198C62.6268 17.0452 66.2308 25.0918 66.2308 33.9998C66.2308 42.9078 62.6268 50.9545 56.7788 56.7798C50.9535 62.6278 42.9068 66.2318 33.9988 66.2318C25.0908 66.2318 17.0442 62.6278 11.2188 56.7798C5.37085 50.9545 1.76685 42.9078 1.76685 33.9998C1.76685 25.0918 5.37085 17.0452 11.2188 11.2198C17.0442 5.37182 25.0908 1.76782 33.9988 1.76782ZM56.3935 11.6052C50.6588 5.89316 42.7482 2.33449 33.9988 2.33449C25.2495 2.33449 17.3388 5.89316 11.6042 11.6052C5.89218 17.3398 2.33351 25.2505 2.33351 33.9998C2.33351 42.7492 5.89218 50.6598 11.6042 56.3945C17.3388 62.1065 25.2495 65.6652 33.9988 65.6652C42.7482 65.6652 50.6588 62.1065 56.3935 56.3945C62.1055 50.6598 65.6642 42.7492 65.6642 33.9998C65.6642 25.2505 62.1055 17.3398 56.3935 11.6052Z" fill="#FEFEFE"/>
<path fill-rule="evenodd" clip-rule="evenodd" d="M16.1106 52.7328C16.7 52.7328 17.176 53.2088 17.176 53.7981C17.176 54.3875 16.7 54.8635 16.1106 54.8635C15.5213 54.8635 15.0453 54.3875 15.0453 53.7981C15.0453 53.2088 15.5213 52.7328 16.1106 52.7328Z" fill="#FEFEFE"/>
<path d="M14.3109 52.2945C14.0622 52.5025 13.8073 52.6539 13.5462 52.7485C13.2825 52.8401 13.0226 52.8745 12.7664 52.8516C12.5076 52.8257 12.2581 52.7431 12.0179 52.6038C11.7746 52.467 11.5489 52.2743 11.3409 52.0255C11.1329 51.7768 10.9831 51.5206 10.8915 51.257C10.7969 50.9959 10.761 50.7372 10.7838 50.481C10.8066 50.2247 10.8877 49.9765 11.0271 49.7363C11.1638 49.493 11.3566 49.2673 11.6054 49.0593C11.8541 48.8513 12.1103 48.7015 12.3739 48.6099C12.635 48.5153 12.8952 48.4781 13.1545 48.4984C13.4107 48.5213 13.6604 48.6011 13.9037 48.7379C14.1439 48.8772 14.3681 49.0712 14.5761 49.32C14.7841 49.5687 14.9355 49.8236 15.0301 50.0847C15.1217 50.3483 15.1573 50.6098 15.137 50.8691C15.1111 51.1278 15.0298 51.3789 14.893 51.6221C14.7537 51.8624 14.5597 52.0865 14.3109 52.2945ZM13.9846 49.8146C13.4417 49.1655 12.8275 49.1276 12.1419 49.7009C11.4594 50.2717 11.3895 50.8817 11.9324 51.5308C12.4779 52.183 13.0918 52.2237 13.7744 51.6529C14.4599 51.0796 14.53 50.4668 13.9846 49.8146Z" fill="white"/>
<path d="M10.7521 43.8791L9.46362 47.0505L11.7903 45.779L12.1886 46.5077L8.54495 48.4988L8.24059 47.9419L9.52621 44.7653L7.19951 46.0368L6.80128 45.3081L10.4449 43.3169L10.7521 43.8791Z" fill="white"/>
<path d="M9.86287 41.3276L5.90083 42.5696L5.65242 41.7772L8.87865 40.7658L8.22924 38.6942L8.96505 38.4636L9.86287 41.3276Z" fill="white"/>
<path d="M8.98663 37.0152L4.85841 37.4605L4.76936 36.6348L8.89758 36.1896L8.98663 37.0152Z" fill="white"/>
<path d="M8.94919 31.2721L6.11595 33.1932L8.75693 33.4286L8.68319 34.2558L4.54743 33.8871L4.60379 33.2549L7.43755 31.3279L4.79657 31.0925L4.87031 30.2653L9.00607 30.634L8.94919 31.2721Z" fill="white"/>
<path d="M6.30171 24.5953L7.04166 24.8123L6.42071 26.9297L7.30296 27.1884L7.90055 25.1507L8.6405 25.3677L8.04291 27.4054L8.92516 27.6641L9.56782 25.4727L10.3078 25.6897L9.43142 28.678L5.44706 27.5095L6.30171 24.5953Z" fill="white"/>
<path d="M12.1719 18.9584C12.2101 18.974 12.2619 18.9853 12.3274 18.9923C12.3922 18.9937 12.4682 18.9813 12.5554 18.9551C12.6426 18.9288 12.736 18.8821 12.8356 18.8151C12.9377 18.7451 13.0446 18.6407 13.1562 18.5021C13.2009 18.4467 13.2526 18.3792 13.3116 18.2998C13.3674 18.2178 13.4134 18.1355 13.4495 18.0529C13.485 17.9647 13.5038 17.8783 13.5059 17.7937C13.5049 17.7066 13.4672 17.6305 13.3927 17.5654C13.3212 17.5028 13.2373 17.4809 13.1409 17.4998C13.0773 17.5094 12.9861 17.5502 12.8672 17.6221C12.7509 17.6909 12.593 17.8176 12.3936 18.0022C12.3397 18.0502 12.2719 18.1124 12.1901 18.1887C12.1052 18.2625 12.0093 18.3376 11.9022 18.4138C11.7945 18.4845 11.6763 18.5492 11.5477 18.6081C11.4215 18.6639 11.2905 18.7005 11.1546 18.718C11.0211 18.7324 10.8862 18.7202 10.7498 18.6815C10.6104 18.6403 10.4736 18.558 10.3393 18.4347C10.2082 18.3138 10.1132 18.1764 10.0544 18.0225C9.99502 17.8629 9.97147 17.6967 9.98376 17.5239C9.99297 17.3485 10.0396 17.1677 10.1235 16.9814C10.2044 16.7927 10.3205 16.6044 10.4718 16.4166C10.6281 16.2225 10.7929 16.0683 10.9661 15.954C11.1364 15.8372 11.3095 15.7609 11.4857 15.725C11.6612 15.6836 11.8353 15.6817 12.0081 15.7193C12.1809 15.7569 12.3465 15.8319 12.5049 15.9442L11.9654 16.6141C11.8779 16.5588 11.7937 16.5341 11.7128 16.5401C11.6312 16.5404 11.5534 16.5615 11.4791 16.6032C11.4043 16.6394 11.3337 16.6892 11.2674 16.7526C11.1981 16.8135 11.1373 16.8763 11.0852 16.941C11.0431 16.9934 10.9978 17.0559 10.9494 17.1286C10.9035 17.1983 10.8677 17.271 10.8422 17.3469C10.8135 17.4203 10.8031 17.4931 10.8109 17.5654C10.8156 17.6352 10.8463 17.698 10.9029 17.7538C10.9245 17.7711 10.9534 17.7919 10.9898 17.8161C11.0261 17.8403 11.0789 17.8473 11.1481 17.837C11.2173 17.8267 11.3061 17.789 11.4144 17.7239C11.5226 17.6588 11.661 17.5469 11.8295 17.3881C12.2681 16.9695 12.6562 16.721 12.9936 16.6424C13.328 16.5613 13.6421 16.6442 13.9359 16.8909C14.0504 16.9882 14.1423 17.1105 14.2117 17.2577C14.281 17.4049 14.3156 17.5699 14.3157 17.7527C14.3157 17.9355 14.2752 18.134 14.1943 18.348C14.1102 18.5596 13.9752 18.7808 13.7891 19.0118C13.6602 19.172 13.5105 19.3231 13.3402 19.4652C13.1693 19.6018 12.9868 19.7087 12.7926 19.7858C12.601 19.86 12.4035 19.8939 12.2004 19.8877C11.9941 19.879 11.7936 19.8064 11.5989 19.6699L12.1719 18.9584Z" fill="white"/>
<path d="M14.147 15.269C13.9364 15.0172 13.7823 14.762 13.6846 14.5035C13.59 14.2424 13.5526 13.985 13.5724 13.7313C13.5922 13.4776 13.6687 13.2331 13.802 12.998C13.9383 12.7603 14.1308 12.5374 14.3796 12.3294C14.7769 11.9971 15.1794 11.8126 15.5869 11.7759C15.9919 11.7362 16.3804 11.8495 16.7525 12.1156L16.8476 12.1831L16.2015 12.7234C15.7808 12.467 15.3399 12.5315 14.8788 12.9171C14.2357 13.4549 14.1995 14.0651 14.7703 14.7476C15.3411 15.4302 15.9481 15.5025 16.5912 14.9647C17.0523 14.5791 17.1951 14.1581 17.0196 13.7017L17.6657 13.1614L17.7153 13.2668C17.9089 13.6771 17.9516 14.0796 17.8434 14.4742C17.7327 14.8658 17.4787 15.2277 17.0813 15.56C16.8326 15.7681 16.5792 15.9181 16.3211 16.0102C16.0635 16.0967 15.8094 16.1288 15.5588 16.1065C15.3056 16.0811 15.0588 15.9987 14.8186 15.8594C14.5814 15.7176 14.3575 15.5207 14.147 15.269Z" fill="white"/>
<path d="M18.2401 9.40378L19.0507 10.8872L20.7737 9.94572L19.963 8.46225L20.6917 8.06403L22.6828 11.7076L21.9541 12.1059L21.1434 10.6224L19.4205 11.5639L20.2312 13.0474L19.5025 13.4456L17.5114 9.802L18.2401 9.40378Z" fill="white"/>
<path d="M23.1352 9.23813C23.0382 8.92871 22.9959 8.63529 23.0084 8.35786C23.0247 8.07924 23.0924 7.82594 23.2116 7.59795C23.3345 7.36878 23.5063 7.16988 23.7269 7.00125C23.9464 6.82884 24.2109 6.69414 24.5203 6.59714C24.8297 6.50014 25.1237 6.45978 25.4023 6.47604C25.6797 6.48853 25.9325 6.55435 26.1604 6.67352C26.3884 6.79268 26.5867 6.96259 26.7554 7.18324C26.9278 7.40271 27.0625 7.66715 27.1595 7.97657C27.2565 8.28598 27.2968 8.58 27.2806 8.85862C27.2681 9.13605 27.2029 9.39064 27.0849 9.62241C26.9657 9.85039 26.7964 10.0506 26.5769 10.223C26.3563 10.3916 26.0912 10.5244 25.7818 10.6214C25.4724 10.7184 25.179 10.7607 24.9016 10.7482C24.6229 10.7319 24.3678 10.6648 24.136 10.5468C23.9068 10.4239 23.706 10.2527 23.5336 10.0332C23.365 9.81258 23.2322 9.54755 23.1352 9.23813ZM25.5512 9.88564C26.3587 9.63249 26.6287 9.07953 26.3614 8.22675C26.0953 7.37774 25.5584 7.07981 24.7509 7.33295C23.9397 7.58727 23.6671 8.13894 23.9332 8.98795C24.2006 9.84073 24.7399 10.14 25.5512 9.88564Z" fill="white"/>
<path d="M28.2944 7.62192C28.2714 7.29848 28.2979 7.00322 28.374 6.73614C28.4541 6.46878 28.5784 6.23791 28.7469 6.04354C28.9194 5.84888 29.1324 5.69495 29.386 5.58173C29.6393 5.46457 29.9277 5.39446 30.2511 5.37142C30.5745 5.34837 30.8699 5.37688 31.1373 5.45694C31.4044 5.53305 31.6351 5.65537 31.8295 5.82388C32.0239 5.9924 32.1777 6.20345 32.2909 6.45704C32.408 6.71034 32.4781 6.99872 32.5012 7.32216C32.5242 7.64561 32.4957 7.94101 32.4157 8.20837C32.3395 8.47545 32.2174 8.70814 32.0491 8.90646C31.8806 9.10083 31.6697 9.2566 31.4164 9.37376C31.1628 9.48698 30.8743 9.55511 30.5509 9.57816C30.2274 9.60121 29.9322 9.57467 29.6651 9.49856C29.3977 9.4185 29.1649 9.29435 28.9666 9.12612C28.7719 8.95366 28.616 8.74077 28.4988 8.48747C28.3856 8.23388 28.3175 7.94537 28.2944 7.62192ZM30.4961 8.809C31.3402 8.74885 31.7305 8.27305 31.6669 7.38161C31.6037 6.49411 31.15 6.08043 30.3059 6.14058C29.4579 6.20101 29.0654 6.67498 29.1287 7.56248C29.1922 8.45392 29.648 8.86942 30.4961 8.809Z" fill="white"/>
<path d="M34.2481 9.44862L34.8583 5.34153L35.6797 5.46356L35.1829 8.8079L37.3303 9.12691L37.217 9.88965L34.2481 9.44862Z" fill="white"/>
<path d="M44.3547 9.27979C44.5049 8.99241 44.6825 8.75505 44.8875 8.56771C45.0961 8.3822 45.323 8.25097 45.5685 8.17401C45.8175 8.09889 46.0796 8.07973 46.3549 8.11651C46.632 8.14979 46.9142 8.24153 47.2016 8.39173C47.489 8.54194 47.7254 8.72129 47.9109 8.9298C48.0983 9.13481 48.2304 9.36005 48.3074 9.60552C48.3843 9.85099 48.4044 10.1114 48.3676 10.3866C48.3343 10.6637 48.2426 10.946 48.0924 11.2333C47.9422 11.5207 47.7628 11.7572 47.5543 11.9427C47.3493 12.13 47.1232 12.2639 46.8759 12.3444C46.6304 12.4213 46.3691 12.4432 46.092 12.4099C45.8167 12.3731 45.5354 12.2796 45.248 12.1294C44.9607 11.9792 44.7233 11.8016 44.536 11.5966C44.3504 11.3881 44.2175 11.1602 44.137 10.9129C44.0619 10.6639 44.041 10.4009 44.0742 10.1238C44.111 9.84849 44.2045 9.56717 44.3547 9.27979ZM45.6052 11.446C46.3552 11.838 46.9372 11.638 47.3512 10.8459C47.7633 10.0574 47.5944 9.46712 46.8444 9.07513C46.0909 8.68131 45.5081 8.87867 45.096 9.6672C44.682 10.4592 44.8517 11.0522 45.6052 11.446Z" fill="white"/>
<path d="M53.2496 12.5102L52.7659 13.1108L51.052 11.7306L50.4753 12.4466L52.1292 13.7785L51.6456 14.3791L49.9917 13.0472L48.9313 14.3639L48.2846 13.843L50.8888 10.6091L53.2496 12.5102Z" fill="white"/>
<path d="M60.1627 20.7207L59.486 21.0905L58.4278 19.1542L57.6211 19.5951L58.6394 21.4585L57.9627 21.8283L56.9444 19.9649L56.1376 20.4058L57.2327 22.4097L56.556 22.7795L55.0627 20.0468L58.7063 18.0557L60.1627 20.7207Z" fill="white"/>
<path d="M57.9002 26.8426L59.969 24.1155L57.3917 24.7381L57.1967 23.9309L61.2328 22.9558L61.3818 23.5728L59.3143 26.3057L61.8916 25.6831L62.0866 26.4903L58.0506 27.4653L57.9002 26.8426Z" fill="white"/>
<path d="M60.4516 28.6019C60.7783 28.5704 61.0763 28.5913 61.3456 28.6647C61.6149 28.738 61.8488 28.8565 62.0473 29.0201C62.2497 29.1833 62.4107 29.3903 62.5302 29.641C62.6537 29.8913 62.729 30.178 62.7562 30.5011C62.7767 30.7137 62.7712 30.9248 62.7398 31.1344C62.7087 31.3479 62.6484 31.5464 62.5589 31.7299C62.4693 31.9133 62.3499 32.0758 62.2006 32.2173C62.0518 32.3628 61.87 32.4756 61.6552 32.5559L61.571 31.6821C61.6866 31.6034 61.7731 31.5117 61.8305 31.4068C61.8918 31.3016 61.9353 31.1961 61.9609 31.0903C61.9864 30.9846 61.999 30.888 61.9985 30.8006C61.998 30.7133 61.9957 30.648 61.9915 30.6047C61.9509 30.1835 61.8076 29.8715 61.5616 29.6688C61.3199 29.4696 60.9767 29.3915 60.5319 29.4344C59.6502 29.5194 59.2462 29.9854 59.3199 30.8325C59.3514 31.1592 59.4481 31.42 59.6099 31.615C59.7717 31.8099 59.9857 31.9283 60.252 31.9702L60.2762 31.9738L60.1373 30.5332L60.9048 30.4592L61.1234 32.7264C60.8911 32.7885 60.6555 32.8172 60.4166 32.8124C60.1821 32.8112 59.9405 32.757 59.6918 32.6499C59.3642 32.5067 59.1025 32.2856 58.9068 31.9867C58.7115 31.6917 58.5934 31.3316 58.5524 30.9065C58.5212 30.5837 58.5404 30.2879 58.6098 30.019C58.6832 29.7497 58.8015 29.5138 58.9647 29.3114C59.1322 29.1125 59.3411 28.9513 59.5914 28.8278C59.8421 28.7083 60.1288 28.633 60.4516 28.6019Z" fill="white"/>
<path d="M59.0057 34.3577L63.1576 34.4076L63.1476 35.238L59.7668 35.1973L59.7407 37.3682L58.9696 37.3589L59.0057 34.3577Z" fill="white"/>
<path d="M58.5591 38.7367L62.5435 39.9051L62.3098 40.702L58.3254 39.5336L58.5591 38.7367Z" fill="white"/>
<path d="M59.0413 42.4845C59.0008 42.4767 58.9477 42.4757 58.8822 42.4816C58.8183 42.4929 58.7462 42.5199 58.6658 42.5626C58.5855 42.6054 58.503 42.6694 58.4183 42.7545C58.3318 42.8432 58.2473 42.9664 58.1649 43.1241C58.1319 43.1871 58.0943 43.2634 58.052 43.3529C58.0132 43.4441 57.9842 43.5338 57.9649 43.6219C57.9473 43.7153 57.9458 43.8038 57.9602 43.8871C57.9781 43.9724 58.03 44.0396 58.1157 44.0889C58.198 44.1364 58.2846 44.1415 58.3755 44.1042C58.436 44.0823 58.5175 44.0245 58.62 43.9308C58.7207 43.8407 58.8508 43.6856 59.0104 43.4656C59.0539 43.408 59.1083 43.3338 59.1736 43.243C59.2424 43.154 59.3219 43.0617 59.4121 42.9661C59.5039 42.8757 59.6072 42.7892 59.7219 42.7063C59.8347 42.627 59.9561 42.5655 60.086 42.5218C60.2141 42.4817 60.3488 42.4673 60.4901 42.4787C60.6349 42.4919 60.7851 42.5459 60.9408 42.6407C61.093 42.7336 61.213 42.8498 61.3007 42.9894C61.3901 43.1343 61.4456 43.2927 61.4673 43.4646C61.4924 43.6384 61.482 43.8248 61.436 44.0239C61.3935 44.2248 61.3163 44.4321 61.2046 44.6459C61.0892 44.8667 60.9577 45.05 60.81 45.1959C60.6659 45.3437 60.5109 45.4523 60.3452 45.5219C60.1811 45.5968 60.0106 45.6326 59.8338 45.6294C59.657 45.6263 59.48 45.5851 59.3028 45.5058L59.7012 44.7436C59.7978 44.7807 59.8852 44.7884 59.9634 44.7668C60.0433 44.7506 60.1156 44.7147 60.1803 44.6593C60.2466 44.6092 60.3061 44.5466 60.3587 44.4715C60.4149 44.3982 60.4622 44.3248 60.5007 44.2512C60.5318 44.1916 60.564 44.1214 60.5973 44.0407C60.6288 43.9634 60.6496 43.8851 60.6599 43.8057C60.6737 43.7281 60.6697 43.6546 60.6479 43.5852C60.6297 43.5177 60.5874 43.4621 60.5209 43.4184C60.4964 43.4056 60.4639 43.3909 60.4236 43.3742C60.3832 43.3576 60.33 43.3611 60.2642 43.3846C60.1983 43.4082 60.1186 43.4625 60.0251 43.5475C59.9316 43.6325 59.8177 43.7693 59.6835 43.9579C59.3349 44.454 59.0029 44.7735 58.6872 44.9164C58.3751 45.0611 58.0509 45.0411 57.7146 44.8564C57.5832 44.7833 57.4692 44.6813 57.3725 44.5505C57.2758 44.4196 57.2096 44.2646 57.1739 44.0853C57.1382 43.906 57.1392 43.7035 57.1769 43.4777C57.2181 43.2539 57.3073 43.0105 57.4447 42.7476C57.54 42.5654 57.6572 42.388 57.7965 42.2154C57.9375 42.0481 58.0957 41.9077 58.2711 41.7941C58.4446 41.684 58.6316 41.6122 58.8321 41.5787C59.0361 41.5469 59.2469 41.579 59.4645 41.6749L59.0413 42.4845Z" fill="white"/>
<path d="M58.7896 49.0742L57.398 48.1143L56.2832 49.7305L57.6747 50.6904L57.2032 51.374L53.7853 49.0164L54.2568 48.3328L55.6484 49.2927L56.7632 47.6765L55.3716 46.7166L55.8432 46.033L59.2611 48.3906L58.7896 49.0742Z" fill="white"/>
<path d="M18.7067 57.5093L20.5664 53.7969L22.2264 54.6285C22.2901 54.6604 22.367 54.7011 22.4571 54.7507C22.5473 54.8003 22.6365 54.8605 22.7249 54.9313C22.8186 55.0003 22.9043 55.0808 22.982 55.1729C23.0633 55.2666 23.1251 55.3728 23.1675 55.4913C23.2098 55.6098 23.2256 55.7416 23.2149 55.8866C23.2042 56.0316 23.1546 56.1925 23.066 56.3693C23.0076 56.486 22.9297 56.5929 22.8323 56.6901C22.7368 56.7838 22.6315 56.8438 22.5165 56.8702C22.6119 57.033 22.6533 57.2108 22.6408 57.4035C22.6336 57.5945 22.5795 57.7908 22.4785 57.9923C22.4148 58.1196 22.3298 58.2407 22.2236 58.3555C22.1174 58.4704 21.9838 58.5561 21.8228 58.6126C21.6636 58.6655 21.4726 58.6804 21.2498 58.6572C21.0288 58.6305 20.7698 58.5428 20.4728 58.394L18.7067 57.5093ZM20.7969 57.6939C21.0692 57.8303 21.2743 57.8933 21.4122 57.8828C21.5555 57.8705 21.6687 57.7813 21.752 57.6151C21.8051 57.509 21.8308 57.418 21.8291 57.3419C21.8327 57.2641 21.8124 57.1942 21.7683 57.1323C21.7241 57.0704 21.656 57.012 21.5641 56.9571C21.474 56.8986 21.3635 56.8367 21.2327 56.7711L20.2542 56.2743L19.7946 57.1918L20.7969 57.6939ZM21.6046 56.095C21.8096 56.1977 21.9643 56.242 22.0687 56.2279C22.173 56.2139 22.2598 56.1379 22.3288 56C22.3979 55.8621 22.4015 55.7445 22.3397 55.6472C22.2814 55.5517 22.1427 55.449 21.9235 55.3392L20.9635 54.8583L20.5969 55.5902L21.6046 56.095Z" fill="white"/>
<path d="M24.7215 55.9039L26.355 56.5476C26.4949 56.6027 26.6454 56.6791 26.8067 56.7766C26.9717 56.8757 27.1115 57.0009 27.2261 57.1523C27.3459 57.3015 27.4239 57.481 27.4602 57.6908C27.498 57.897 27.4625 58.138 27.3538 58.414C27.2421 58.6972 27.0828 58.9129 26.8757 59.0608C26.6701 59.205 26.4315 59.2768 26.1598 59.2759L26.6098 61.1109L25.7047 60.7543L25.2841 59.0712L24.4894 58.758L23.9719 60.0714L23.1993 59.767L24.7215 55.9039ZM25.6165 58.3733C25.771 58.4342 25.9012 58.4706 26.007 58.4826C26.1128 58.4945 26.2009 58.4867 26.2712 58.4592C26.3467 58.4294 26.4067 58.385 26.4512 58.3261C26.5008 58.2649 26.5423 58.1919 26.5756 58.1073C26.609 58.0227 26.6277 57.9429 26.6317 57.868C26.6394 57.7945 26.6251 57.723 26.5887 57.6534C26.5575 57.5816 26.4992 57.514 26.4137 57.4506C26.3281 57.3871 26.2081 57.3249 26.0536 57.2641L25.2093 56.9313L24.7721 58.0406L25.6165 58.3733Z" fill="white"/>
<path d="M28.8508 61.4982L29.4746 57.3931L30.2956 57.5179L29.6718 61.6229L28.8508 61.4982Z" fill="white"/>
<path d="M31.6609 62.0703L31.7714 57.9196L33.5206 57.9661C33.8408 57.9747 34.1242 58.0297 34.3707 58.1312C34.6212 58.2328 34.831 58.3748 35.0002 58.5574C35.1694 58.7399 35.296 58.9608 35.3801 59.2202C35.4682 59.4797 35.5079 59.7715 35.4992 60.0956C35.4906 60.4198 35.4354 60.7091 35.3337 60.9635C35.236 61.218 35.0977 61.4319 34.9191 61.6052C34.7404 61.7784 34.5233 61.9091 34.2678 61.9972C34.0162 62.0855 33.7303 62.1253 33.4101 62.1168L31.6609 62.0703ZM33.4247 61.3458C34.247 61.3677 34.6697 60.9438 34.6928 60.0742C34.716 59.2045 34.3204 58.7588 33.506 58.7371L32.581 58.7125L32.5116 61.3215L33.4247 61.3458Z" fill="white"/>
<path d="M36.9303 60.2614C36.8676 59.9393 36.8597 59.6407 36.9069 59.3656C36.954 59.0905 37.0495 58.8463 37.1932 58.633C37.3362 58.4158 37.5268 58.2356 37.7648 58.0926C38.0021 57.9456 38.2802 57.8431 38.5992 57.785C38.8088 57.7441 39.0195 57.7293 39.2311 57.7404C39.4467 57.7508 39.6501 57.7918 39.8413 57.8633C40.0325 57.9348 40.2057 58.0381 40.3609 58.173C40.52 58.3072 40.6498 58.4773 40.7504 58.6833L39.8887 58.8512C39.7993 58.7437 39.6996 58.6664 39.5897 58.6194C39.4791 58.5684 39.3699 58.5353 39.2621 58.52C39.1544 58.5047 39.0571 58.5015 38.9702 58.5104C38.8833 58.5193 38.8185 58.5279 38.7758 58.5362C38.3605 58.6171 38.0638 58.7897 37.8856 59.0541C37.7106 59.3138 37.6658 59.6629 37.7512 60.1015C37.9206 60.971 38.4233 61.3283 39.2593 61.1735C39.5815 61.1107 39.8318 60.9894 40.0103 60.8096C40.1888 60.6298 40.2861 60.4054 40.3022 60.1364L40.3035 60.112L38.8829 60.3887L38.7354 59.6318L40.9712 59.1963C41.0553 59.4216 41.1065 59.6534 41.1247 59.8915C41.146 60.1251 41.1154 60.3708 41.0326 60.6286C40.9216 60.9685 40.7267 61.2502 40.4479 61.4738C40.173 61.6965 39.826 61.8487 39.4068 61.9304C39.0885 61.9924 38.7922 62.0018 38.5179 61.9585C38.2428 61.9114 37.9967 61.8163 37.7794 61.6733C37.5654 61.5256 37.3848 61.3332 37.2379 61.0959C37.0948 60.8579 36.9923 60.5797 36.9303 60.2614Z" fill="white"/>
<path d="M44.5626 55.6661L44.8809 56.3685L42.8709 57.2791L43.2503 58.1166L45.1846 57.2403L45.5028 57.9427L43.5685 58.819L43.9479 59.6565L46.0281 58.7141L46.3463 59.4165L43.5097 60.7015L41.7963 56.9194L44.5626 55.6661Z" fill="white"/>
<path d="M50.9879 56.5364L49.7904 54.6972L50.0087 57.174L49.6309 57.42L47.4541 56.2183L48.6516 58.0576L47.9557 58.5107L45.6901 55.0311L46.3413 54.6071L49.098 56.1885L48.7671 53.0277L49.4183 52.6037L51.6838 56.0833L50.9879 56.5364Z" fill="white"/>
<path fill-rule="evenodd" clip-rule="evenodd" d="M10.494 21.364C10.8833 21.6613 10.9606 22.218 10.6669 22.6101C10.3733 23.0021 9.82166 23.0787 9.43233 22.7815C9.04299 22.4842 8.9657 21.9275 9.25934 21.5354C9.55299 21.1433 10.1046 21.0667 10.494 21.364Z" fill="white"/>
<path fill-rule="evenodd" clip-rule="evenodd" d="M17.3509 53.5734C17.7402 53.8706 17.8175 54.4274 17.5239 54.8194C17.2302 55.2115 16.6786 55.2881 16.2893 54.9908C15.8999 54.6936 15.8226 54.1368 16.1163 53.7447C16.4099 53.3527 16.9616 53.2761 17.3509 53.5734Z" fill="white"/>
<path fill-rule="evenodd" clip-rule="evenodd" d="M53.4918 51.6827C53.8811 51.98 53.9584 52.5367 53.6648 52.9288C53.3711 53.3209 52.8195 53.3974 52.4301 53.1002C52.0408 52.8029 51.9635 52.2462 52.2571 51.8541C52.5508 51.4621 53.1024 51.3855 53.4918 51.6827Z" fill="white"/>
<path fill-rule="evenodd" clip-rule="evenodd" d="M41.3491 7.70529C41.7204 8.02482 41.765 8.58515 41.4489 8.95936C41.1328 9.33357 40.5776 9.37773 40.2064 9.0582C39.8351 8.73867 39.7905 8.17835 40.1066 7.80414C40.4227 7.42993 40.9779 7.38577 41.3491 7.70529Z" fill="white"/>
<path fill-rule="evenodd" clip-rule="evenodd" d="M54.6528 15.9289C55.0421 16.2262 55.1194 16.7829 54.8258 17.175C54.5321 17.5671 53.9805 17.6437 53.5911 17.3464C53.2018 17.0492 53.1245 16.4924 53.4182 16.1003C53.7118 15.7083 54.2634 15.6317 54.6528 15.9289Z" fill="white"/>
</svg>
