<svg width="36" height="36" viewBox="0 0 36 36" fill="none" xmlns="http://www.w3.org/2000/svg">
<g opacity="0.1">
<rect x="0.481689" y="0.694336" width="35.0364" height="34.881" rx="17.4405" fill="white"/>
</g>
<path d="M24.0202 10.7082C24.0202 10.7082 25.6909 10.0537 25.5516 11.6432C25.5052 12.2977 25.0876 14.5883 24.7627 17.066L23.6489 24.4056C23.6489 24.4056 23.5561 25.4808 22.7208 25.6678C21.8854 25.8548 20.6324 25.0133 20.4004 24.8263C20.2147 24.6861 16.9198 22.5824 15.7596 21.5539C15.4347 21.2734 15.0635 20.7124 15.806 20.0579L20.6788 15.3831C21.2357 14.8221 21.7926 13.5131 19.4722 15.1026L12.9751 19.5437C12.9751 19.5437 12.2326 20.0112 10.8404 19.5905L7.82385 18.6555C7.82385 18.6555 6.71006 17.9543 8.61278 17.253C13.2536 15.0558 18.9618 12.8119 24.0202 10.7082Z" fill="white"/>
</svg>
