<svg width="36" height="36" viewBox="0 0 36 36" fill="none" xmlns="http://www.w3.org/2000/svg">
<g opacity="0.1">
<rect x="0.481689" y="0.694336" width="35.0364" height="34.881" rx="17.4405" fill="white"/>
</g>
<path fill-rule="evenodd" clip-rule="evenodd" d="M25.0363 19.8466C25.7608 20.5677 26.5254 21.2461 27.1752 22.0399C27.4622 22.3927 27.7339 22.7567 27.9418 23.166C28.2364 23.748 27.9696 24.3884 27.4577 24.4231L24.276 24.4217C23.4554 24.4911 22.8008 24.1543 22.2503 23.5823C21.8098 23.1249 21.4019 22.638 20.9783 22.1652C20.8046 21.9719 20.6229 21.79 20.4057 21.6463C19.9714 21.3588 19.5944 21.4469 19.3462 21.9087C19.0934 22.3784 19.036 22.8985 19.0112 23.422C18.9771 24.1858 18.7507 24.3866 17.9981 24.4216C16.3897 24.4989 14.8633 24.2508 13.4453 23.4237C12.1951 22.6945 11.2257 21.6651 10.3819 20.4997C8.73903 18.2304 7.48092 15.7368 6.35017 13.1733C6.09565 12.5958 6.28178 12.2857 6.90686 12.2748C7.94483 12.2542 8.98265 12.2557 10.0218 12.2733C10.4437 12.2796 10.723 12.5263 10.8859 12.9326C11.4474 14.3403 12.1346 15.6796 12.9971 16.921C13.2268 17.2515 13.461 17.582 13.7945 17.8146C14.1635 18.0722 14.4444 17.9868 14.618 17.5678C14.7282 17.3021 14.7764 17.0159 14.8012 16.7314C14.8835 15.7523 14.8943 14.775 14.7501 13.7994C14.6615 13.1906 14.3251 12.7964 13.7292 12.6812C13.4251 12.6225 13.4703 12.5071 13.6176 12.3301C13.8733 12.0249 14.1139 11.835 14.5933 11.835H18.1892C18.7553 11.9489 18.881 12.2081 18.9585 12.7888L18.9616 16.8608C18.9554 17.0856 19.0717 17.7527 19.4689 17.9015C19.7868 18.0074 19.9963 17.7481 20.187 17.5426C21.048 16.6111 21.6624 15.5102 22.2114 14.3703C22.455 13.869 22.6644 13.3484 22.8674 12.8283C23.0178 12.4424 23.2539 12.2524 23.6803 12.2609L27.1411 12.264C27.2437 12.264 27.3475 12.2655 27.4469 12.2829C28.0301 12.3842 28.1899 12.6399 28.0098 13.2205C27.726 14.1313 27.1738 14.8904 26.6339 15.6529C26.0568 16.4671 25.4395 17.2533 24.8672 18.0723C24.3413 18.8201 24.3831 19.1971 25.0363 19.8466Z" fill="white"/>
</svg>
