<svg width="36" height="36" viewBox="0 0 36 36" fill="none" xmlns="http://www.w3.org/2000/svg">
<path opacity="0.1" d="M30.2695 5.46444C27.3439 2.61211 23.5125 0.873384 19.4395 0.549663C15.3664 0.225943 11.3084 1.33764 7.96906 3.69204C4.62967 6.04645 2.21938 9.49512 1.15601 13.4402C0.0926454 17.3854 0.443238 21.5782 2.14702 25.2919L0.397017 33.2369C0.337685 33.5208 0.349801 33.8149 0.432275 34.0928C0.514749 34.3708 0.664997 34.6239 0.869516 34.8294C1.07503 35.0458 1.33244 35.2059 1.61729 35.2948C1.90214 35.3836 2.20497 35.3981 2.49702 35.3369L10.442 33.5869C12.7652 34.7196 15.3125 35.3176 17.897 35.3369C18.9828 35.3326 20.0661 35.2331 21.1345 35.0394C24.2643 34.4504 27.1739 33.0185 29.55 30.898C31.926 28.7775 33.6784 26.0488 34.6183 23.006C35.5581 19.9631 35.6498 16.7215 34.8835 13.6304C34.1172 10.5393 32.5219 7.71588 30.2695 5.46444Z" fill="white"/>
<path d="M24.4015 26.8158C22.5769 26.7806 20.7832 26.3382 19.1515 25.5208L18.8715 25.3808C17.1156 24.4721 15.5149 23.2908 14.129 21.8808C12.7152 20.4982 11.5334 18.8969 10.629 17.1383L10.489 16.8583C9.49607 14.9962 9.05302 12.8902 9.21148 10.7858C9.27857 10.3717 9.49217 9.99552 9.81337 9.72571C10.1346 9.4559 10.542 9.31044 10.9615 9.31584H14.129C14.5195 9.3003 14.904 9.41591 15.2211 9.64427C15.5383 9.87262 15.7699 10.2006 15.879 10.5758L16.579 13.0258C16.6718 13.3298 16.6802 13.6532 16.6031 13.9616C16.526 14.2699 16.3664 14.5514 16.1415 14.7758L14.3915 16.5258C15.0552 17.5688 15.8297 18.5369 16.7015 19.4133C17.5743 20.2892 18.5429 21.0641 19.589 21.7233L21.339 19.9733C21.5635 19.7484 21.845 19.5888 22.1533 19.5117C22.4616 19.4347 22.7851 19.443 23.089 19.5358L25.539 20.2358C25.9143 20.345 26.2422 20.5765 26.4706 20.8937C26.6989 21.2109 26.8145 21.5953 26.799 21.9858V25.0658C26.8044 25.4853 26.6589 25.8927 26.3891 26.2139C26.1193 26.5352 25.7431 26.7488 25.329 26.8158C25.0201 26.8354 24.7103 26.8354 24.4015 26.8158Z" fill="white"/>
</svg>
