<svg width="1281" height="557" viewBox="0 0 1281 557" fill="none" xmlns="http://www.w3.org/2000/svg">
<mask id="path-1-outside-1_3630_95213" maskUnits="userSpaceOnUse" x="-2" y="331.509" width="514" height="199" fill="black">
<rect fill="white" x="-2" y="331.509" width="514" height="199"/>
<path d="M100.534 457.067V481.509H0.948V338.089H98.716V362.531H28.824V397.073H89.222V419.697H28.824V457.067H100.534ZM217.423 481.509H190.355V422.121C190.355 413.637 188.873 407.442 185.911 403.537C182.948 399.631 178.841 397.679 173.589 397.679C169.953 397.679 166.249 398.621 162.479 400.507C158.843 402.392 155.543 405.018 152.581 408.385C149.618 411.617 147.463 415.387 146.117 419.697V481.509H119.049V375.661H143.491V395.255C146.184 390.676 149.618 386.838 153.793 383.741C157.967 380.509 162.748 378.085 168.135 376.469C173.656 374.718 179.447 373.843 185.507 373.843C192.105 373.843 197.492 375.055 201.667 377.479C205.976 379.768 209.208 382.933 211.363 386.973C213.652 390.878 215.201 395.322 216.009 400.305C216.951 405.287 217.423 410.337 217.423 415.455V481.509ZM232.273 521.101C227.29 521.101 222.509 520.293 217.931 518.677C213.352 517.195 209.177 514.839 205.407 511.607L217.123 493.225C218.604 494.841 220.422 495.985 222.577 496.659C224.731 497.332 226.886 497.669 229.041 497.669C231.465 497.669 233.619 497.063 235.505 495.851C237.525 494.773 239.073 493.225 240.151 491.205C241.363 489.185 241.969 486.895 241.969 484.337V375.661H269.037V482.317C269.037 489.858 267.353 496.591 263.987 502.517C260.755 508.442 256.378 513.021 250.857 516.253C245.47 519.485 239.275 521.101 232.273 521.101ZM241.969 360.915V334.049H269.037V360.915H241.969ZM342.513 483.529C333.894 483.529 326.151 482.115 319.283 479.287C312.415 476.324 306.557 472.284 301.709 467.167C296.995 462.049 293.359 456.191 290.801 449.593C288.242 442.994 286.963 436.059 286.963 428.787C286.963 421.38 288.242 414.377 290.801 407.779C293.359 401.18 296.995 395.322 301.709 390.205C306.557 385.087 312.415 381.115 319.283 378.287C326.151 375.324 333.894 373.843 342.513 373.843C351.131 373.843 358.807 375.324 365.541 378.287C372.409 381.115 378.267 385.087 383.115 390.205C387.963 395.322 391.599 401.18 394.023 407.779C396.581 414.377 397.861 421.38 397.861 428.787C397.861 436.059 396.581 442.994 394.023 449.593C391.599 456.191 387.963 462.049 383.115 467.167C378.401 472.284 372.611 476.324 365.743 479.287C358.875 482.115 351.131 483.529 342.513 483.529ZM314.839 428.787C314.839 434.981 316.051 440.503 318.475 445.351C320.899 450.064 324.198 453.767 328.373 456.461C332.547 459.154 337.261 460.501 342.513 460.501C347.63 460.501 352.276 459.154 356.451 456.461C360.625 453.633 363.925 449.862 366.349 445.149C368.907 440.301 370.187 434.779 370.187 428.585C370.187 422.525 368.907 417.071 366.349 412.223C363.925 407.375 360.625 403.604 356.451 400.911C352.276 398.217 347.63 396.871 342.513 396.871C337.261 396.871 332.547 398.285 328.373 401.113C324.198 403.806 320.899 407.577 318.475 412.425C316.051 417.138 314.839 422.592 314.839 428.787ZM414.407 502.113C416.831 502.651 419.053 503.123 421.073 503.527C423.228 503.931 425.046 504.133 426.527 504.133C429.086 504.133 431.173 503.459 432.789 502.113C434.54 500.901 436.223 498.611 437.839 495.245C439.455 492.013 441.139 487.434 442.889 481.509L401.075 375.661H429.153L457.635 453.835L482.683 375.661H508.539L464.099 502.517C462.483 507.23 459.992 511.472 456.625 515.243C453.393 519.148 449.286 522.178 444.303 524.333C439.455 526.622 434.001 527.767 427.941 527.767C425.787 527.767 423.632 527.565 421.477 527.161C419.323 526.891 416.966 526.353 414.407 525.545V502.113Z"/>
</mask>
<path d="M100.534 457.067V481.509H0.948V338.089H98.716V362.531H28.824V397.073H89.222V419.697H28.824V457.067H100.534ZM217.423 481.509H190.355V422.121C190.355 413.637 188.873 407.442 185.911 403.537C182.948 399.631 178.841 397.679 173.589 397.679C169.953 397.679 166.249 398.621 162.479 400.507C158.843 402.392 155.543 405.018 152.581 408.385C149.618 411.617 147.463 415.387 146.117 419.697V481.509H119.049V375.661H143.491V395.255C146.184 390.676 149.618 386.838 153.793 383.741C157.967 380.509 162.748 378.085 168.135 376.469C173.656 374.718 179.447 373.843 185.507 373.843C192.105 373.843 197.492 375.055 201.667 377.479C205.976 379.768 209.208 382.933 211.363 386.973C213.652 390.878 215.201 395.322 216.009 400.305C216.951 405.287 217.423 410.337 217.423 415.455V481.509ZM232.273 521.101C227.29 521.101 222.509 520.293 217.931 518.677C213.352 517.195 209.177 514.839 205.407 511.607L217.123 493.225C218.604 494.841 220.422 495.985 222.577 496.659C224.731 497.332 226.886 497.669 229.041 497.669C231.465 497.669 233.619 497.063 235.505 495.851C237.525 494.773 239.073 493.225 240.151 491.205C241.363 489.185 241.969 486.895 241.969 484.337V375.661H269.037V482.317C269.037 489.858 267.353 496.591 263.987 502.517C260.755 508.442 256.378 513.021 250.857 516.253C245.47 519.485 239.275 521.101 232.273 521.101ZM241.969 360.915V334.049H269.037V360.915H241.969ZM342.513 483.529C333.894 483.529 326.151 482.115 319.283 479.287C312.415 476.324 306.557 472.284 301.709 467.167C296.995 462.049 293.359 456.191 290.801 449.593C288.242 442.994 286.963 436.059 286.963 428.787C286.963 421.38 288.242 414.377 290.801 407.779C293.359 401.18 296.995 395.322 301.709 390.205C306.557 385.087 312.415 381.115 319.283 378.287C326.151 375.324 333.894 373.843 342.513 373.843C351.131 373.843 358.807 375.324 365.541 378.287C372.409 381.115 378.267 385.087 383.115 390.205C387.963 395.322 391.599 401.18 394.023 407.779C396.581 414.377 397.861 421.38 397.861 428.787C397.861 436.059 396.581 442.994 394.023 449.593C391.599 456.191 387.963 462.049 383.115 467.167C378.401 472.284 372.611 476.324 365.743 479.287C358.875 482.115 351.131 483.529 342.513 483.529ZM314.839 428.787C314.839 434.981 316.051 440.503 318.475 445.351C320.899 450.064 324.198 453.767 328.373 456.461C332.547 459.154 337.261 460.501 342.513 460.501C347.63 460.501 352.276 459.154 356.451 456.461C360.625 453.633 363.925 449.862 366.349 445.149C368.907 440.301 370.187 434.779 370.187 428.585C370.187 422.525 368.907 417.071 366.349 412.223C363.925 407.375 360.625 403.604 356.451 400.911C352.276 398.217 347.63 396.871 342.513 396.871C337.261 396.871 332.547 398.285 328.373 401.113C324.198 403.806 320.899 407.577 318.475 412.425C316.051 417.138 314.839 422.592 314.839 428.787ZM414.407 502.113C416.831 502.651 419.053 503.123 421.073 503.527C423.228 503.931 425.046 504.133 426.527 504.133C429.086 504.133 431.173 503.459 432.789 502.113C434.54 500.901 436.223 498.611 437.839 495.245C439.455 492.013 441.139 487.434 442.889 481.509L401.075 375.661H429.153L457.635 453.835L482.683 375.661H508.539L464.099 502.517C462.483 507.23 459.992 511.472 456.625 515.243C453.393 519.148 449.286 522.178 444.303 524.333C439.455 526.622 434.001 527.767 427.941 527.767C425.787 527.767 423.632 527.565 421.477 527.161C419.323 526.891 416.966 526.353 414.407 525.545V502.113Z" fill="white"/>
<path d="M100.534 457.067H102.534V455.067H100.534V457.067ZM100.534 481.509V483.509H102.534V481.509H100.534ZM0.948 481.509H-1.052V483.509H0.948V481.509ZM0.948 338.089V336.089H-1.052V338.089H0.948ZM98.716 338.089H100.716V336.089H98.716V338.089ZM98.716 362.531V364.531H100.716V362.531H98.716ZM28.824 362.531V360.531H26.824V362.531H28.824ZM28.824 397.073H26.824V399.073H28.824V397.073ZM89.222 397.073H91.222V395.073H89.222V397.073ZM89.222 419.697V421.697H91.222V419.697H89.222ZM28.824 419.697V417.697H26.824V419.697H28.824ZM28.824 457.067H26.824V459.067H28.824V457.067ZM98.534 457.067V481.509H102.534V457.067H98.534ZM100.534 479.509H0.948V483.509H100.534V479.509ZM2.948 481.509V338.089H-1.052V481.509H2.948ZM0.948 340.089H98.716V336.089H0.948V340.089ZM96.716 338.089V362.531H100.716V338.089H96.716ZM98.716 360.531H28.824V364.531H98.716V360.531ZM26.824 362.531V397.073H30.824V362.531H26.824ZM28.824 399.073H89.222V395.073H28.824V399.073ZM87.222 397.073V419.697H91.222V397.073H87.222ZM89.222 417.697H28.824V421.697H89.222V417.697ZM26.824 419.697V457.067H30.824V419.697H26.824ZM28.824 459.067H100.534V455.067H28.824V459.067ZM217.423 481.509V483.509H219.423V481.509H217.423ZM190.355 481.509H188.355V483.509H190.355V481.509ZM185.911 403.537L184.317 404.746L185.911 403.537ZM162.479 400.507L161.584 398.718L161.571 398.725L161.558 398.731L162.479 400.507ZM152.581 408.385L154.055 409.736L154.069 409.721L154.082 409.706L152.581 408.385ZM146.117 419.697L144.208 419.1L144.117 419.392V419.697H146.117ZM146.117 481.509V483.509H148.117V481.509H146.117ZM119.049 481.509H117.049V483.509H119.049V481.509ZM119.049 375.661V373.661H117.049V375.661H119.049ZM143.491 375.661H145.491V373.661H143.491V375.661ZM143.491 395.255H141.491V402.599L145.214 396.269L143.491 395.255ZM153.793 383.741L154.984 385.347L155.001 385.335L155.017 385.322L153.793 383.741ZM168.135 376.469L168.709 378.384L168.724 378.38L168.739 378.375L168.135 376.469ZM201.667 377.479L200.662 379.208L200.695 379.227L200.728 379.245L201.667 377.479ZM211.363 386.973L209.598 387.914L209.617 387.949L209.637 387.984L211.363 386.973ZM216.009 400.305L214.034 400.625L214.039 400.651L214.043 400.677L216.009 400.305ZM217.423 479.509H190.355V483.509H217.423V479.509ZM192.355 481.509V422.121H188.355V481.509H192.355ZM192.355 422.121C192.355 413.486 190.863 406.755 187.504 402.328L184.317 404.746C186.884 408.129 188.355 413.787 188.355 422.121H192.355ZM187.504 402.328C184.133 397.884 179.414 395.679 173.589 395.679V399.679C178.267 399.679 181.763 401.379 184.317 404.746L187.504 402.328ZM173.589 395.679C169.596 395.679 165.588 396.716 161.584 398.718L163.373 402.296C166.91 400.527 170.309 399.679 173.589 399.679V395.679ZM161.558 398.731C157.682 400.741 154.19 403.528 151.079 407.064L154.082 409.706C156.896 406.508 160.003 404.043 163.399 402.282L161.558 398.731ZM151.106 407.033C147.939 410.489 145.639 414.519 144.208 419.1L148.026 420.293C149.287 416.256 151.297 412.745 154.055 409.736L151.106 407.033ZM144.117 419.697V481.509H148.117V419.697H144.117ZM146.117 479.509H119.049V483.509H146.117V479.509ZM121.049 481.509V375.661H117.049V481.509H121.049ZM119.049 377.661H143.491V373.661H119.049V377.661ZM141.491 375.661V395.255H145.491V375.661H141.491ZM145.214 396.269C147.775 391.916 151.03 388.281 154.984 385.347L152.601 382.135C148.206 385.395 144.593 389.436 141.767 394.241L145.214 396.269ZM155.017 385.322C158.985 382.25 163.542 379.935 168.709 378.384L167.56 374.553C161.953 376.235 156.949 378.767 152.568 382.159L155.017 385.322ZM168.739 378.375C174.056 376.689 179.642 375.843 185.507 375.843V371.843C179.251 371.843 173.256 372.747 167.53 374.562L168.739 378.375ZM185.507 375.843C191.877 375.843 196.885 377.015 200.662 379.208L202.671 375.749C198.099 373.095 192.334 371.843 185.507 371.843V375.843ZM200.728 379.245C204.71 381.361 207.643 384.249 209.598 387.914L213.127 386.032C210.773 381.617 207.241 378.176 202.605 375.713L200.728 379.245ZM209.637 387.984C211.788 391.653 213.261 395.858 214.034 400.625L217.983 399.985C217.14 394.786 215.516 390.103 213.088 385.961L209.637 387.984ZM214.043 400.677C214.963 405.536 215.423 410.461 215.423 415.455H219.423C219.423 410.214 218.94 405.039 217.974 399.933L214.043 400.677ZM215.423 415.455V481.509H219.423V415.455H215.423ZM217.931 518.677L218.596 516.791L218.571 516.782L218.546 516.774L217.931 518.677ZM205.407 511.607L203.72 510.532L202.787 511.996L204.105 513.125L205.407 511.607ZM217.123 493.225L218.597 491.873L216.837 489.953L215.436 492.15L217.123 493.225ZM222.577 496.659L223.173 494.75L222.577 496.659ZM235.505 495.851L234.564 494.086L234.492 494.124L234.423 494.168L235.505 495.851ZM240.151 491.205L238.436 490.176L238.41 490.219L238.386 490.264L240.151 491.205ZM241.969 375.661V373.661H239.969V375.661H241.969ZM269.037 375.661H271.037V373.661H269.037V375.661ZM263.987 502.517L262.248 501.529L262.239 501.544L262.231 501.559L263.987 502.517ZM250.857 516.253L249.846 514.527L249.837 514.532L249.828 514.538L250.857 516.253ZM241.969 360.915H239.969V362.915H241.969V360.915ZM241.969 334.049V332.049H239.969V334.049H241.969ZM269.037 334.049H271.037V332.049H269.037V334.049ZM269.037 360.915V362.915H271.037V360.915H269.037ZM232.273 519.101C227.511 519.101 222.956 518.329 218.596 516.791L217.265 520.563C222.063 522.256 227.069 523.101 232.273 523.101V519.101ZM218.546 516.774C214.228 515.377 210.285 513.154 206.708 510.088L204.105 513.125C208.07 516.524 212.476 519.014 217.315 520.58L218.546 516.774ZM207.093 512.682L218.809 494.3L215.436 492.15L203.72 510.532L207.093 512.682ZM215.648 494.576C217.375 496.46 219.499 497.792 221.98 498.568L223.173 494.75C221.345 494.178 219.833 493.221 218.597 491.873L215.648 494.576ZM221.98 498.568C224.319 499.299 226.674 499.669 229.041 499.669V495.669C227.098 495.669 225.144 495.366 223.173 494.75L221.98 498.568ZM229.041 499.669C231.816 499.669 234.352 498.969 236.586 497.533L234.423 494.168C232.887 495.156 231.114 495.669 229.041 495.669V499.669ZM236.446 497.615C238.816 496.351 240.651 494.516 241.915 492.146L238.386 490.264C237.495 491.933 236.233 493.195 234.564 494.086L236.446 497.615ZM241.866 492.234C243.28 489.876 243.969 487.226 243.969 484.337H239.969C239.969 486.565 239.445 488.493 238.436 490.176L241.866 492.234ZM243.969 484.337V375.661H239.969V484.337H243.969ZM241.969 377.661H269.037V373.661H241.969V377.661ZM267.037 375.661V482.317H271.037V375.661H267.037ZM267.037 482.317C267.037 489.55 265.426 495.936 262.248 501.529L265.726 503.505C269.281 497.247 271.037 490.167 271.037 482.317H267.037ZM262.231 501.559C259.163 507.184 255.036 511.489 249.846 514.527L251.867 517.979C257.72 514.553 262.346 509.701 265.743 503.474L262.231 501.559ZM249.828 514.538C244.787 517.562 238.956 519.101 232.273 519.101V523.101C239.595 523.101 246.154 521.407 251.886 517.968L249.828 514.538ZM243.969 360.915V334.049H239.969V360.915H243.969ZM241.969 336.049H269.037V332.049H241.969V336.049ZM267.037 334.049V360.915H271.037V334.049H267.037ZM269.037 358.915H241.969V362.915H269.037V358.915ZM319.283 479.287L318.49 481.123L318.506 481.13L318.521 481.136L319.283 479.287ZM301.709 467.167L300.238 468.522L300.247 468.532L300.257 468.542L301.709 467.167ZM290.801 449.593L292.665 448.87L290.801 449.593ZM290.801 407.779L292.665 408.502V408.502L290.801 407.779ZM301.709 390.205L300.257 388.829L300.247 388.839L300.238 388.85L301.709 390.205ZM319.283 378.287L320.044 380.136L320.06 380.13L320.075 380.123L319.283 378.287ZM365.541 378.287L364.735 380.117L364.757 380.127L364.779 380.136L365.541 378.287ZM383.115 390.205L381.663 391.58L383.115 390.205ZM394.023 407.779L392.145 408.468L392.151 408.485L392.158 408.502L394.023 407.779ZM394.023 449.593L392.158 448.87L392.151 448.886L392.145 448.903L394.023 449.593ZM383.115 467.167L381.663 465.791L381.653 465.801L381.644 465.812L383.115 467.167ZM365.743 479.287L366.504 481.136L366.52 481.13L366.535 481.123L365.743 479.287ZM318.475 445.351L316.686 446.245L316.691 446.255L316.696 446.265L318.475 445.351ZM328.373 456.461L329.457 454.78L328.373 456.461ZM356.451 456.461L357.535 458.141L357.554 458.129L357.572 458.117L356.451 456.461ZM366.349 445.149L364.58 444.215L364.575 444.225L364.57 444.234L366.349 445.149ZM366.349 412.223L364.56 413.117L364.57 413.137L364.58 413.156L366.349 412.223ZM356.451 400.911L355.366 402.591L356.451 400.911ZM328.373 401.113L329.457 402.793L329.476 402.781L329.494 402.769L328.373 401.113ZM318.475 412.425L320.253 413.339L320.258 413.329L320.263 413.319L318.475 412.425ZM342.513 481.529C334.114 481.529 326.635 480.151 320.044 477.437L318.521 481.136C325.666 484.078 333.674 485.529 342.513 485.529V481.529ZM320.075 477.45C313.44 474.588 307.811 470.7 303.161 465.791L300.257 468.542C305.302 473.868 311.389 478.06 318.49 481.123L320.075 477.45ZM303.18 465.812C298.639 460.882 295.135 455.239 292.665 448.87L288.936 450.316C291.583 457.144 295.352 463.217 300.238 468.522L303.18 465.812ZM292.665 448.87C290.199 442.508 288.963 435.818 288.963 428.787H284.963C284.963 436.299 286.285 443.48 288.936 450.316L292.665 448.87ZM288.963 428.787C288.963 421.616 290.2 414.859 292.665 408.502L288.936 407.056C286.284 413.896 284.963 421.144 284.963 428.787H288.963ZM292.665 408.502C295.135 402.132 298.639 396.49 303.18 391.56L300.238 388.85C295.352 394.155 291.583 400.228 288.936 407.056L292.665 408.502ZM303.161 391.58C307.804 386.679 313.423 382.863 320.044 380.136L318.521 376.437C311.406 379.367 305.309 383.496 300.257 388.829L303.161 391.58ZM320.075 380.123C326.657 377.284 334.125 375.843 342.513 375.843V371.843C333.663 371.843 325.644 373.365 318.49 376.45L320.075 380.123ZM342.513 375.843C350.901 375.843 358.295 377.284 364.735 380.117L366.346 376.456C359.319 373.364 351.362 371.843 342.513 371.843V375.843ZM364.779 380.136C371.4 382.863 377.019 386.679 381.663 391.58L384.567 388.829C379.514 383.496 373.417 379.367 366.302 376.437L364.779 380.136ZM381.663 391.58C386.324 396.501 389.815 402.126 392.145 408.468L395.9 407.089C393.382 400.235 389.601 394.143 384.567 388.829L381.663 391.58ZM392.158 408.502C394.623 414.859 395.861 421.616 395.861 428.787H399.861C399.861 421.144 398.54 413.896 395.887 407.056L392.158 408.502ZM395.861 428.787C395.861 435.818 394.625 442.508 392.158 448.87L395.887 450.316C398.538 443.48 399.861 436.299 399.861 428.787H395.861ZM392.145 448.903C389.815 455.246 386.324 460.871 381.663 465.791L384.567 468.542C389.601 463.228 393.382 457.137 395.9 450.282L392.145 448.903ZM381.644 465.812C377.134 470.708 371.581 474.59 364.95 477.45L366.535 481.123C373.641 478.058 379.668 473.861 384.586 468.522L381.644 465.812ZM364.981 477.437C358.39 480.151 350.911 481.529 342.513 481.529V485.529C351.351 485.529 359.359 484.078 366.504 481.136L364.981 477.437ZM312.839 428.787C312.839 435.247 314.104 441.082 316.686 446.245L320.263 444.456C317.997 439.923 316.839 434.716 316.839 428.787H312.839ZM316.696 446.265C319.269 451.269 322.799 455.245 327.288 458.141L329.457 454.78C325.597 452.29 322.528 448.859 320.253 444.436L316.696 446.265ZM327.288 458.141C331.805 461.055 336.899 462.501 342.513 462.501V458.501C337.622 458.501 333.29 457.253 329.457 454.78L327.288 458.141ZM342.513 462.501C348.002 462.501 353.027 461.05 357.535 458.141L355.366 454.78C351.525 457.258 347.258 458.501 342.513 458.501V462.501ZM357.572 458.117C362.039 455.091 365.558 451.059 368.127 446.063L364.57 444.234C362.291 448.665 359.212 452.175 355.329 454.805L357.572 458.117ZM368.117 446.082C370.847 440.911 372.187 435.062 372.187 428.585H368.187C368.187 434.497 366.968 439.691 364.58 444.215L368.117 446.082ZM372.187 428.585C372.187 422.234 370.843 416.454 368.117 411.289L364.58 413.156C366.971 417.687 368.187 422.815 368.187 428.585H372.187ZM368.138 411.328C365.568 406.19 362.038 402.135 357.535 399.23L355.366 402.591C359.213 405.073 362.281 408.56 364.56 413.117L368.138 411.328ZM357.535 399.23C353.027 396.322 348.002 394.871 342.513 394.871V398.871C347.258 398.871 351.525 400.113 355.366 402.591L357.535 399.23ZM342.513 394.871C336.878 394.871 331.771 396.395 327.251 399.457L329.494 402.769C333.324 400.175 337.643 398.871 342.513 398.871V394.871ZM327.288 399.432C322.786 402.337 319.255 406.392 316.686 411.53L320.263 413.319C322.542 408.762 325.61 405.275 329.457 402.793L327.288 399.432ZM316.696 411.51C314.104 416.551 312.839 422.328 312.839 428.787H316.839C316.839 422.857 317.997 417.726 320.253 413.339L316.696 411.51ZM414.407 502.113L414.841 500.16L412.407 499.62V502.113H414.407ZM421.073 503.527L420.681 505.488L420.693 505.49L420.705 505.493L421.073 503.527ZM432.789 502.113L431.651 500.468L431.577 500.519L431.509 500.576L432.789 502.113ZM437.839 495.245L436.05 494.35L436.043 494.365L436.036 494.379L437.839 495.245ZM442.889 481.509L444.807 482.075L445.003 481.415L444.749 480.774L442.889 481.509ZM401.075 375.661V373.661H398.135L399.215 376.396L401.075 375.661ZM429.153 375.661L431.032 374.976L430.553 373.661H429.153V375.661ZM457.635 453.835L455.756 454.519L457.757 460.01L459.54 454.445L457.635 453.835ZM482.683 375.661V373.661H481.224L480.779 375.051L482.683 375.661ZM508.539 375.661L510.427 376.322L511.359 373.661H508.539V375.661ZM464.099 502.517L462.212 501.856L462.207 501.868L464.099 502.517ZM456.625 515.243L455.133 513.911L455.108 513.939L455.085 513.968L456.625 515.243ZM444.303 524.333L443.509 522.497L443.479 522.51L443.449 522.524L444.303 524.333ZM421.477 527.161L421.846 525.195L421.786 525.184L421.725 525.176L421.477 527.161ZM414.407 525.545H412.407V527.011L413.805 527.452L414.407 525.545ZM413.973 504.065C416.409 504.606 418.645 505.081 420.681 505.488L421.466 501.566C419.462 501.165 417.254 500.697 414.841 500.16L413.973 504.065ZM420.705 505.493C422.929 505.91 424.879 506.133 426.527 506.133V502.133C425.213 502.133 423.527 501.952 421.442 501.561L420.705 505.493ZM426.527 506.133C429.449 506.133 432.021 505.356 434.07 503.649L431.509 500.576C430.326 501.562 428.723 502.133 426.527 502.133V506.133ZM433.928 503.757C436.105 502.25 437.974 499.585 439.642 496.11L436.036 494.379C434.472 497.637 432.975 499.552 431.651 500.468L433.928 503.757ZM439.628 496.139C441.321 492.754 443.043 488.046 444.807 482.075L440.971 480.942C439.234 486.822 437.59 491.272 436.05 494.35L439.628 496.139ZM444.749 480.774L402.935 374.926L399.215 376.396L441.029 482.244L444.749 480.774ZM401.075 377.661H429.153V373.661H401.075V377.661ZM427.274 376.345L455.756 454.519L459.514 453.15L431.032 374.976L427.274 376.345ZM459.54 454.445L484.588 376.271L480.779 375.051L455.731 453.225L459.54 454.445ZM482.683 377.661H508.539V373.661H482.683V377.661ZM506.652 375L462.212 501.856L465.987 503.178L510.427 376.322L506.652 375ZM462.207 501.868C460.679 506.326 458.325 510.336 455.133 513.911L458.117 516.575C461.659 512.608 464.287 508.135 465.991 503.165L462.207 501.868ZM455.085 513.968C452.068 517.613 448.223 520.459 443.509 522.497L445.097 526.169C450.348 523.898 454.719 520.684 458.166 516.518L455.085 513.968ZM443.449 522.524C438.901 524.672 433.745 525.767 427.941 525.767V529.767C434.258 529.767 440.009 528.572 445.157 526.141L443.449 522.524ZM427.941 525.767C425.912 525.767 423.881 525.577 421.846 525.195L421.109 529.127C423.383 529.553 425.661 529.767 427.941 529.767V525.767ZM421.725 525.176C419.715 524.925 417.479 524.417 415.01 523.638L413.805 527.452C416.453 528.288 418.93 528.858 421.229 529.145L421.725 525.176ZM416.407 525.545V502.113H412.407V525.545H416.407Z" fill="#6B73C2" mask="url(#path-1-outside-1_3630_95213)"/>
<mask id="path-3-outside-2_3630_95213" maskUnits="userSpaceOnUse" x="227" y="177.509" width="419" height="154" fill="black">
<rect fill="white" x="227" y="177.509" width="419" height="154"/>
<path d="M336.272 327.509L315.668 262.667L295.064 327.509H266.582L230.02 221.661H257.492L281.934 295.795L303.346 221.661H328.192L349.402 295.795L374.046 221.661H401.114L364.956 327.509H336.272ZM415.691 327.509V221.661H442.759V327.509H415.691ZM415.691 206.915V180.049H442.759V206.915H415.691ZM530.605 322.055C528.316 322.997 525.555 324.075 522.323 325.287C519.091 326.499 515.59 327.441 511.819 328.115C508.183 328.923 504.48 329.327 500.709 329.327C495.727 329.327 491.148 328.451 486.973 326.701C482.799 324.95 479.432 322.189 476.873 318.419C474.449 314.513 473.237 309.463 473.237 303.269V242.467H459.299V221.661H473.237V187.321H500.305V221.661H522.525V242.467H500.305V294.179C500.44 297.815 501.45 300.441 503.335 302.057C505.221 303.673 507.577 304.481 510.405 304.481C513.233 304.481 515.994 304.009 518.687 303.067C521.381 302.124 523.535 301.316 525.151 300.643L530.605 322.055ZM643.077 327.509H616.009V268.121C616.009 259.906 614.393 253.779 611.161 249.739C608.064 245.699 603.754 243.679 598.233 243.679C595.001 243.679 591.567 244.621 587.931 246.507C584.295 248.392 580.996 251.018 578.033 254.385C575.205 257.617 573.118 261.387 571.771 265.697V327.509H544.703V180.049H571.771V241.255C575.676 234.521 580.996 229.269 587.729 225.499C594.462 221.728 601.802 219.843 609.747 219.843C616.615 219.843 622.204 221.055 626.513 223.479C630.822 225.768 634.189 228.933 636.613 232.973C639.037 236.878 640.72 241.322 641.663 246.305C642.606 251.153 643.077 256.203 643.077 261.455V327.509Z"/>
</mask>
<path d="M336.272 327.509L315.668 262.667L295.064 327.509H266.582L230.02 221.661H257.492L281.934 295.795L303.346 221.661H328.192L349.402 295.795L374.046 221.661H401.114L364.956 327.509H336.272ZM415.691 327.509V221.661H442.759V327.509H415.691ZM415.691 206.915V180.049H442.759V206.915H415.691ZM530.605 322.055C528.316 322.997 525.555 324.075 522.323 325.287C519.091 326.499 515.59 327.441 511.819 328.115C508.183 328.923 504.48 329.327 500.709 329.327C495.727 329.327 491.148 328.451 486.973 326.701C482.799 324.95 479.432 322.189 476.873 318.419C474.449 314.513 473.237 309.463 473.237 303.269V242.467H459.299V221.661H473.237V187.321H500.305V221.661H522.525V242.467H500.305V294.179C500.44 297.815 501.45 300.441 503.335 302.057C505.221 303.673 507.577 304.481 510.405 304.481C513.233 304.481 515.994 304.009 518.687 303.067C521.381 302.124 523.535 301.316 525.151 300.643L530.605 322.055ZM643.077 327.509H616.009V268.121C616.009 259.906 614.393 253.779 611.161 249.739C608.064 245.699 603.754 243.679 598.233 243.679C595.001 243.679 591.567 244.621 587.931 246.507C584.295 248.392 580.996 251.018 578.033 254.385C575.205 257.617 573.118 261.387 571.771 265.697V327.509H544.703V180.049H571.771V241.255C575.676 234.521 580.996 229.269 587.729 225.499C594.462 221.728 601.802 219.843 609.747 219.843C616.615 219.843 622.204 221.055 626.513 223.479C630.822 225.768 634.189 228.933 636.613 232.973C639.037 236.878 640.72 241.322 641.663 246.305C642.606 251.153 643.077 256.203 643.077 261.455V327.509Z" fill="white"/>
<path d="M336.272 327.509L334.366 328.114L334.809 329.509H336.272V327.509ZM315.668 262.667L317.574 262.061L315.668 256.063L313.762 262.061L315.668 262.667ZM295.064 327.509V329.509H296.527L296.97 328.114L295.064 327.509ZM266.582 327.509L264.692 328.162L265.157 329.509H266.582V327.509ZM230.02 221.661V219.661H227.213L228.13 222.314L230.02 221.661ZM257.492 221.661L259.391 221.035L258.939 219.661H257.492V221.661ZM281.934 295.795L280.035 296.421L282.06 302.565L283.855 296.35L281.934 295.795ZM303.346 221.661V219.661H301.842L301.425 221.106L303.346 221.661ZM328.192 221.661L330.115 221.111L329.7 219.661H328.192V221.661ZM349.402 295.795L347.479 296.345L349.259 302.565L351.3 296.426L349.402 295.795ZM374.046 221.661V219.661H372.603L372.148 221.03L374.046 221.661ZM401.114 221.661L403.007 222.307L403.911 219.661H401.114V221.661ZM364.956 327.509V329.509H366.386L366.849 328.155L364.956 327.509ZM338.178 326.903L317.574 262.061L313.762 263.272L334.366 328.114L338.178 326.903ZM313.762 262.061L293.158 326.903L296.97 328.114L317.574 263.272L313.762 262.061ZM295.064 325.509H266.582V329.509H295.064V325.509ZM268.472 326.856L231.91 221.008L228.13 222.314L264.692 328.162L268.472 326.856ZM230.02 223.661H257.492V219.661H230.02V223.661ZM255.593 222.287L280.035 296.421L283.833 295.169L259.391 221.035L255.593 222.287ZM283.855 296.35L305.267 222.216L301.425 221.106L280.013 295.24L283.855 296.35ZM303.346 223.661H328.192V219.661H303.346V223.661ZM326.269 222.211L347.479 296.345L351.325 295.245L330.115 221.111L326.269 222.211ZM351.3 296.426L375.944 222.292L372.148 221.03L347.504 295.164L351.3 296.426ZM374.046 223.661H401.114V219.661H374.046V223.661ZM399.221 221.014L363.063 326.862L366.849 328.155L403.007 222.307L399.221 221.014ZM364.956 325.509H336.272V329.509H364.956V325.509ZM415.691 327.509H413.691V329.509H415.691V327.509ZM415.691 221.661V219.661H413.691V221.661H415.691ZM442.759 221.661H444.759V219.661H442.759V221.661ZM442.759 327.509V329.509H444.759V327.509H442.759ZM415.691 206.915H413.691V208.915H415.691V206.915ZM415.691 180.049V178.049H413.691V180.049H415.691ZM442.759 180.049H444.759V178.049H442.759V180.049ZM442.759 206.915V208.915H444.759V206.915H442.759ZM417.691 327.509V221.661H413.691V327.509H417.691ZM415.691 223.661H442.759V219.661H415.691V223.661ZM440.759 221.661V327.509H444.759V221.661H440.759ZM442.759 325.509H415.691V329.509H442.759V325.509ZM417.691 206.915V180.049H413.691V206.915H417.691ZM415.691 182.049H442.759V178.049H415.691V182.049ZM440.759 180.049V206.915H444.759V180.049H440.759ZM442.759 204.915H415.691V208.915H442.759V204.915ZM530.605 322.055L531.367 323.904L532.972 323.243L532.544 321.561L530.605 322.055ZM522.323 325.287L523.026 327.159L522.323 325.287ZM511.819 328.115L511.468 326.146L511.427 326.153L511.386 326.162L511.819 328.115ZM476.873 318.419L475.174 319.474L475.196 319.508L475.219 319.542L476.873 318.419ZM473.237 242.467H475.237V240.467H473.237V242.467ZM459.299 242.467H457.299V244.467H459.299V242.467ZM459.299 221.661V219.661H457.299V221.661H459.299ZM473.237 221.661V223.661H475.237V221.661H473.237ZM473.237 187.321V185.321H471.237V187.321H473.237ZM500.305 187.321H502.305V185.321H500.305V187.321ZM500.305 221.661H498.305V223.661H500.305V221.661ZM522.525 221.661H524.525V219.661H522.525V221.661ZM522.525 242.467V244.467H524.525V242.467H522.525ZM500.305 242.467V240.467H498.305V242.467H500.305ZM500.305 294.179H498.305V294.216L498.307 294.253L500.305 294.179ZM503.335 302.057L502.034 303.575L503.335 302.057ZM518.687 303.067L518.027 301.179L518.687 303.067ZM525.151 300.643L527.09 300.149L526.518 297.907L524.382 298.797L525.151 300.643ZM529.844 320.205C527.58 321.138 524.84 322.207 521.621 323.414L523.026 327.159C526.271 325.943 529.052 324.857 531.367 323.904L529.844 320.205ZM521.621 323.414C518.515 324.579 515.132 325.492 511.468 326.146L512.171 330.084C516.048 329.391 519.668 328.418 523.026 327.159L521.621 323.414ZM511.386 326.162C507.894 326.938 504.336 327.327 500.709 327.327V331.327C504.624 331.327 508.473 330.907 512.253 330.067L511.386 326.162ZM500.709 327.327C495.966 327.327 491.653 326.494 487.747 324.856L486.2 328.545C490.643 330.408 495.488 331.327 500.709 331.327V327.327ZM487.747 324.856C483.932 323.257 480.871 320.748 478.528 317.296L475.219 319.542C477.993 323.631 481.665 326.644 486.2 328.545L487.747 324.856ZM478.573 317.364C476.402 313.867 475.237 309.216 475.237 303.269H471.237C471.237 309.711 472.496 315.159 475.174 319.474L478.573 317.364ZM475.237 303.269V242.467H471.237V303.269H475.237ZM473.237 240.467H459.299V244.467H473.237V240.467ZM461.299 242.467V221.661H457.299V242.467H461.299ZM459.299 223.661H473.237V219.661H459.299V223.661ZM475.237 221.661V187.321H471.237V221.661H475.237ZM473.237 189.321H500.305V185.321H473.237V189.321ZM498.305 187.321V221.661H502.305V187.321H498.305ZM500.305 223.661H522.525V219.661H500.305V223.661ZM520.525 221.661V242.467H524.525V221.661H520.525ZM522.525 240.467H500.305V244.467H522.525V240.467ZM498.305 242.467V294.179H502.305V242.467H498.305ZM498.307 294.253C498.452 298.184 499.56 301.455 502.034 303.575L504.637 300.538C503.34 299.427 502.428 297.445 502.304 294.105L498.307 294.253ZM502.034 303.575C504.332 305.545 507.171 306.481 510.405 306.481V302.481C507.984 302.481 506.11 301.801 504.637 300.538L502.034 303.575ZM510.405 306.481C513.461 306.481 516.444 305.971 519.348 304.954L518.027 301.179C515.544 302.048 513.006 302.481 510.405 302.481V306.481ZM519.348 304.954C522.058 304.006 524.254 303.183 525.921 302.489L524.382 298.797C522.817 299.449 520.703 300.242 518.027 301.179L519.348 304.954ZM523.213 301.136L528.667 322.548L532.544 321.561L527.09 300.149L523.213 301.136ZM643.077 327.509V329.509H645.077V327.509H643.077ZM616.009 327.509H614.009V329.509H616.009V327.509ZM611.161 249.739L609.574 250.956L609.586 250.972L609.599 250.988L611.161 249.739ZM587.931 246.507L587.01 244.731L587.931 246.507ZM578.033 254.385L576.531 253.064L576.528 253.068L578.033 254.385ZM571.771 265.697L569.862 265.1L569.771 265.392V265.697H571.771ZM571.771 327.509V329.509H573.771V327.509H571.771ZM544.703 327.509H542.703V329.509H544.703V327.509ZM544.703 180.049V178.049H542.703V180.049H544.703ZM571.771 180.049H573.771V178.049H571.771V180.049ZM571.771 241.255H569.771V248.689L573.501 242.258L571.771 241.255ZM587.729 225.499L588.706 227.244L588.706 227.244L587.729 225.499ZM626.513 223.479L625.532 225.222L625.553 225.234L625.575 225.245L626.513 223.479ZM636.613 232.973L634.898 234.002L634.906 234.015L634.914 234.028L636.613 232.973ZM641.663 246.305L639.698 246.677L639.7 246.687L641.663 246.305ZM643.077 325.509H616.009V329.509H643.077V325.509ZM618.009 327.509V268.121H614.009V327.509H618.009ZM618.009 268.121C618.009 259.702 616.363 253.039 612.723 248.489L609.599 250.988C612.423 254.518 614.009 260.11 614.009 268.121H618.009ZM612.748 248.522C609.237 243.942 604.316 241.679 598.233 241.679V245.679C603.193 245.679 606.89 247.456 609.574 250.956L612.748 248.522ZM598.233 241.679C594.606 241.679 590.857 242.737 587.01 244.731L588.852 248.282C592.277 246.506 595.396 245.679 598.233 245.679V241.679ZM587.01 244.731C583.134 246.741 579.642 249.528 576.531 253.064L579.534 255.706C582.349 252.508 585.456 250.043 588.852 248.282L587.01 244.731ZM576.528 253.068C573.507 256.52 571.287 260.539 569.862 265.1L573.68 266.293C574.948 262.236 576.903 258.714 579.538 255.702L576.528 253.068ZM569.771 265.697V327.509H573.771V265.697H569.771ZM571.771 325.509H544.703V329.509H571.771V325.509ZM546.703 327.509V180.049H542.703V327.509H546.703ZM544.703 182.049H571.771V178.049H544.703V182.049ZM569.771 180.049V241.255H573.771V180.049H569.771ZM573.501 242.258C577.228 235.832 582.288 230.838 588.706 227.244L586.752 223.754C579.703 227.701 574.124 233.211 570.041 240.251L573.501 242.258ZM588.706 227.244C595.132 223.645 602.133 221.843 609.747 221.843V217.843C601.47 217.843 593.793 219.811 586.752 223.754L588.706 227.244ZM609.747 221.843C616.398 221.843 621.616 223.019 625.532 225.222L627.493 221.736C622.791 219.09 616.831 217.843 609.747 217.843V221.843ZM625.575 225.245C629.575 227.37 632.668 230.285 634.898 234.002L638.328 231.944C635.71 227.581 632.07 224.166 627.451 221.713L625.575 225.245ZM634.914 234.028C637.195 237.703 638.796 241.911 639.698 246.677L643.628 245.933C642.644 240.733 640.879 236.053 638.312 231.918L634.914 234.028ZM639.7 246.687C640.616 251.401 641.077 256.323 641.077 261.455H645.077C645.077 256.083 644.595 250.904 643.626 245.923L639.7 246.687ZM641.077 261.455V327.509H645.077V261.455H641.077Z" fill="#6B73C2" mask="url(#path-3-outside-2_3630_95213)"/>
<mask id="path-5-outside-3_3630_95213" maskUnits="userSpaceOnUse" x="560.02" y="205.924" width="722.944" height="354.015" fill="black">
<rect fill="white" x="560.02" y="205.924" width="722.944" height="354.015"/>
<path d="M652.092 501.667C643.839 503.634 636.044 504.039 628.708 502.881C621.34 501.592 614.72 499.086 608.849 495.364C602.946 491.51 597.936 486.752 593.817 481.089C589.797 475.263 586.944 468.814 585.258 461.74C582.916 451.915 582.938 442.427 585.324 433.275C587.842 424.091 592.583 416.108 599.55 409.325C606.616 402.379 615.716 397.579 626.85 394.924C638.116 392.239 648.337 392.432 657.515 395.505C666.661 398.446 674.298 403.478 680.427 410.601C686.655 417.561 690.877 425.691 693.095 434.992C693.469 436.564 693.794 438.217 694.069 439.951C694.313 441.554 694.494 442.895 694.613 443.974L615.034 462.947C616.807 468.062 619.407 472.288 622.832 475.624C626.389 478.93 630.382 481.162 634.812 482.321C639.341 483.318 643.898 483.269 648.483 482.176C653.723 480.927 658.339 478.511 662.33 474.929C666.421 471.185 668.819 467.014 669.522 462.416L693.618 463.317C692.378 469.15 689.885 474.659 686.137 479.844C682.52 484.998 677.849 489.504 672.124 493.361C666.367 497.087 659.69 499.855 652.092 501.667ZM610.462 446.386L664.301 433.55C662.528 428.435 659.944 424.275 656.55 421.07C653.255 417.702 649.392 415.439 644.963 414.28C640.502 412.99 635.848 412.922 631.002 414.078C626.286 415.202 622.228 417.346 618.829 420.51C615.53 423.512 613.105 427.274 611.553 431.798C610.101 436.159 609.737 441.021 610.462 446.386ZM817.194 460.227L790.864 466.504L777.091 408.736C775.124 400.483 772.246 394.801 768.459 391.689C764.671 388.577 760.223 387.63 755.114 388.848C751.577 389.692 748.193 391.467 744.963 394.176C741.863 396.853 739.263 400.173 737.162 404.135C735.029 407.966 733.808 412.133 733.497 416.637L747.833 476.764L721.503 483.042L696.955 380.079L720.73 374.411L725.274 393.471C726.833 388.392 729.283 383.862 732.625 379.881C735.937 375.769 740.025 372.303 744.89 369.481C749.855 366.498 755.284 364.304 761.179 362.898C767.598 361.368 773.119 361.298 777.742 362.687C782.465 363.915 786.342 366.244 789.375 369.674C792.508 372.942 795.045 376.905 796.987 381.565C799.059 386.193 800.689 390.996 801.876 395.974L817.194 460.227ZM880.51 445.754C873.699 447.378 867.099 447.568 860.71 446.322C854.422 444.914 848.604 442.286 843.256 438.439C838.04 434.56 833.569 429.742 829.843 423.986C826.117 418.229 823.41 411.813 821.724 404.74C819.944 397.273 819.467 390.049 820.295 383.068C821.122 376.087 823.054 369.674 826.091 363.828C829.227 357.819 833.364 352.818 838.503 348.824C843.742 344.667 849.899 341.746 856.972 340.06C864.963 338.154 872.409 338.317 879.309 340.549C886.178 342.649 892.296 346.243 897.662 351.332L893.352 333.255L916.342 327.774L939.718 425.824C942.155 436.041 941.743 445.346 938.482 453.737C935.385 462.229 929.966 469.404 922.226 475.265C914.517 481.256 905.161 485.563 894.157 488.186C883.023 490.841 873.138 491.19 864.504 489.234C855.901 487.409 848.036 483.746 840.91 478.246L851.928 460.875C857.013 464.785 862.831 467.413 869.382 468.758C876.064 470.073 882.745 469.933 889.426 468.341C895.058 466.998 899.917 464.732 904.003 461.543C908.25 458.453 911.234 454.419 912.954 449.441C914.836 444.562 914.981 438.782 913.388 432.101L910.297 419.133C908.296 425.839 904.542 431.58 899.035 436.354C893.628 440.966 887.453 444.099 880.51 445.754ZM884.34 422.622C887.222 421.934 889.863 420.82 892.265 419.279C894.666 417.737 896.793 415.915 898.645 413.812C900.497 411.709 902.025 409.407 903.228 406.905C904.4 404.272 905.179 401.732 905.565 399.287L899.709 374.725C897.169 371.039 894.099 368.033 890.499 365.708C887.029 363.351 883.339 361.808 879.427 361.079C875.615 360.188 871.81 360.195 868.011 361.101C863.95 362.069 860.486 363.795 857.617 366.279C854.748 368.763 852.509 371.858 850.901 375.564C849.261 379.139 848.239 382.982 847.835 387.093C847.531 391.042 847.862 395.047 848.831 399.108C849.83 403.3 851.487 407.058 853.803 410.382C856.118 413.706 858.848 416.447 861.993 418.605C865.269 420.731 868.797 422.174 872.578 422.934C876.489 423.663 880.41 423.559 884.34 422.622ZM930.229 281.685L956.559 275.407L982.887 385.836C984.011 390.552 985.563 393.574 987.54 394.902C989.487 396.099 991.836 396.37 994.587 395.714C996.683 395.214 998.782 394.437 1000.88 393.382C1002.99 392.327 1004.79 391.204 1006.31 390.012L1014.63 409.211C1011.49 411.757 1007.68 414.051 1003.18 416.092C998.686 418.133 994.538 419.607 990.739 420.512C982.486 422.48 975.552 421.849 969.937 418.619C964.421 415.227 960.695 409.47 958.759 401.349L930.229 281.685ZM1026.99 410.209L1002.44 307.247L1028.77 300.969L1053.32 403.931L1026.99 410.209ZM999.02 292.903L992.789 266.769L1019.12 260.492L1025.35 286.625L999.02 292.903ZM1115.46 391.192C1106.68 393.284 1097.96 393.842 1089.28 392.865C1080.6 391.889 1072.71 389.271 1065.6 385.012L1070.96 365.669C1078.3 369.179 1085.2 371.41 1091.66 372.363C1098.25 373.284 1104.29 373.089 1109.79 371.777C1114.9 370.559 1118.75 368.674 1121.32 366.121C1124.03 363.538 1124.94 360.412 1124.07 356.744C1123.48 354.256 1122.17 352.559 1120.16 351.655C1118.11 350.62 1115.32 349.969 1111.8 349.702C1108.41 349.404 1104.26 349.146 1099.36 348.929C1091.17 348.252 1084.24 347.343 1078.57 346.203C1072.9 345.063 1068.33 343.037 1064.87 340.125C1061.51 337.05 1059.15 332.697 1057.81 327.064C1056.19 320.252 1056.5 314.017 1058.75 308.358C1061.1 302.537 1065.02 297.517 1070.53 293.298C1076.16 289.048 1083.16 285.924 1091.55 283.925C1098.88 282.176 1106.11 281.7 1113.22 282.496C1120.3 283.162 1127.14 285.408 1133.72 289.237L1127.1 308.468C1120.89 305.657 1115.21 303.896 1110.05 303.187C1104.87 302.346 1099.85 302.503 1095.01 303.659C1092.26 304.315 1089.71 305.267 1087.38 306.515C1085.18 307.732 1083.48 309.314 1082.28 311.261C1081.19 313.046 1080.97 315.313 1081.62 318.064C1082.21 320.553 1083.34 322.362 1084.99 323.49C1086.74 324.457 1089.12 325.136 1092.12 325.528C1095.25 325.889 1099.01 326.24 1103.38 326.582C1112.19 326.973 1119.72 327.741 1125.94 328.887C1132.3 330.001 1137.36 332.049 1141.11 335.03C1144.84 337.88 1147.45 342.448 1148.95 348.736C1151.38 358.954 1149.56 367.835 1143.46 375.379C1137.37 382.923 1128.04 388.194 1115.46 391.192ZM1269.86 352.305L1243.53 358.582L1229.75 300.814C1227.85 292.823 1224.86 287.237 1220.77 284.057C1216.82 280.846 1212.16 279.88 1206.79 281.16C1203.65 281.91 1200.53 283.623 1197.43 286.301C1194.33 288.978 1191.73 292.297 1189.63 296.259C1187.63 300.059 1186.47 304.211 1186.16 308.715L1200.49 368.842L1174.16 375.119L1139.97 231.68L1166.3 225.402L1180.49 284.94C1182.73 277.484 1186.68 271.142 1192.36 265.912C1198.04 260.683 1204.74 257.147 1212.47 255.304C1219.15 253.711 1224.86 253.594 1229.62 254.953C1234.34 256.18 1238.35 258.478 1241.64 261.845C1244.91 265.082 1247.58 269.015 1249.65 273.643C1251.69 278.14 1253.32 282.943 1254.54 288.052L1269.86 352.305Z"/>
</mask>
<path d="M652.092 501.667C643.839 503.634 636.044 504.039 628.708 502.881C621.34 501.592 614.72 499.086 608.849 495.364C602.946 491.51 597.936 486.752 593.817 481.089C589.797 475.263 586.944 468.814 585.258 461.74C582.916 451.915 582.938 442.427 585.324 433.275C587.842 424.091 592.583 416.108 599.55 409.325C606.616 402.379 615.716 397.579 626.85 394.924C638.116 392.239 648.337 392.432 657.515 395.505C666.661 398.446 674.298 403.478 680.427 410.601C686.655 417.561 690.877 425.691 693.095 434.992C693.469 436.564 693.794 438.217 694.069 439.951C694.313 441.554 694.494 442.895 694.613 443.974L615.034 462.947C616.807 468.062 619.407 472.288 622.832 475.624C626.389 478.93 630.382 481.162 634.812 482.321C639.341 483.318 643.898 483.269 648.483 482.176C653.723 480.927 658.339 478.511 662.33 474.929C666.421 471.185 668.819 467.014 669.522 462.416L693.618 463.317C692.378 469.15 689.885 474.659 686.137 479.844C682.52 484.998 677.849 489.504 672.124 493.361C666.367 497.087 659.69 499.855 652.092 501.667ZM610.462 446.386L664.301 433.55C662.528 428.435 659.944 424.275 656.55 421.07C653.255 417.702 649.392 415.439 644.963 414.28C640.502 412.99 635.848 412.922 631.002 414.078C626.286 415.202 622.228 417.346 618.829 420.51C615.53 423.512 613.105 427.274 611.553 431.798C610.101 436.159 609.737 441.021 610.462 446.386ZM817.194 460.227L790.864 466.504L777.091 408.736C775.124 400.483 772.246 394.801 768.459 391.689C764.671 388.577 760.223 387.63 755.114 388.848C751.577 389.692 748.193 391.467 744.963 394.176C741.863 396.853 739.263 400.173 737.162 404.135C735.029 407.966 733.808 412.133 733.497 416.637L747.833 476.764L721.503 483.042L696.955 380.079L720.73 374.411L725.274 393.471C726.833 388.392 729.283 383.862 732.625 379.881C735.937 375.769 740.025 372.303 744.89 369.481C749.855 366.498 755.284 364.304 761.179 362.898C767.598 361.368 773.119 361.298 777.742 362.687C782.465 363.915 786.342 366.244 789.375 369.674C792.508 372.942 795.045 376.905 796.987 381.565C799.059 386.193 800.689 390.996 801.876 395.974L817.194 460.227ZM880.51 445.754C873.699 447.378 867.099 447.568 860.71 446.322C854.422 444.914 848.604 442.286 843.256 438.439C838.04 434.56 833.569 429.742 829.843 423.986C826.117 418.229 823.41 411.813 821.724 404.74C819.944 397.273 819.467 390.049 820.295 383.068C821.122 376.087 823.054 369.674 826.091 363.828C829.227 357.819 833.364 352.818 838.503 348.824C843.742 344.667 849.899 341.746 856.972 340.06C864.963 338.154 872.409 338.317 879.309 340.549C886.178 342.649 892.296 346.243 897.662 351.332L893.352 333.255L916.342 327.774L939.718 425.824C942.155 436.041 941.743 445.346 938.482 453.737C935.385 462.229 929.966 469.404 922.226 475.265C914.517 481.256 905.161 485.563 894.157 488.186C883.023 490.841 873.138 491.19 864.504 489.234C855.901 487.409 848.036 483.746 840.91 478.246L851.928 460.875C857.013 464.785 862.831 467.413 869.382 468.758C876.064 470.073 882.745 469.933 889.426 468.341C895.058 466.998 899.917 464.732 904.003 461.543C908.25 458.453 911.234 454.419 912.954 449.441C914.836 444.562 914.981 438.782 913.388 432.101L910.297 419.133C908.296 425.839 904.542 431.58 899.035 436.354C893.628 440.966 887.453 444.099 880.51 445.754ZM884.34 422.622C887.222 421.934 889.863 420.82 892.265 419.279C894.666 417.737 896.793 415.915 898.645 413.812C900.497 411.709 902.025 409.407 903.228 406.905C904.4 404.272 905.179 401.732 905.565 399.287L899.709 374.725C897.169 371.039 894.099 368.033 890.499 365.708C887.029 363.351 883.339 361.808 879.427 361.079C875.615 360.188 871.81 360.195 868.011 361.101C863.95 362.069 860.486 363.795 857.617 366.279C854.748 368.763 852.509 371.858 850.901 375.564C849.261 379.139 848.239 382.982 847.835 387.093C847.531 391.042 847.862 395.047 848.831 399.108C849.83 403.3 851.487 407.058 853.803 410.382C856.118 413.706 858.848 416.447 861.993 418.605C865.269 420.731 868.797 422.174 872.578 422.934C876.489 423.663 880.41 423.559 884.34 422.622ZM930.229 281.685L956.559 275.407L982.887 385.836C984.011 390.552 985.563 393.574 987.54 394.902C989.487 396.099 991.836 396.37 994.587 395.714C996.683 395.214 998.782 394.437 1000.88 393.382C1002.99 392.327 1004.79 391.204 1006.31 390.012L1014.63 409.211C1011.49 411.757 1007.68 414.051 1003.18 416.092C998.686 418.133 994.538 419.607 990.739 420.512C982.486 422.48 975.552 421.849 969.937 418.619C964.421 415.227 960.695 409.47 958.759 401.349L930.229 281.685ZM1026.99 410.209L1002.44 307.247L1028.77 300.969L1053.32 403.931L1026.99 410.209ZM999.02 292.903L992.789 266.769L1019.12 260.492L1025.35 286.625L999.02 292.903ZM1115.46 391.192C1106.68 393.284 1097.96 393.842 1089.28 392.865C1080.6 391.889 1072.71 389.271 1065.6 385.012L1070.96 365.669C1078.3 369.179 1085.2 371.41 1091.66 372.363C1098.25 373.284 1104.29 373.089 1109.79 371.777C1114.9 370.559 1118.75 368.674 1121.32 366.121C1124.03 363.538 1124.94 360.412 1124.07 356.744C1123.48 354.256 1122.17 352.559 1120.16 351.655C1118.11 350.62 1115.32 349.969 1111.8 349.702C1108.41 349.404 1104.26 349.146 1099.36 348.929C1091.17 348.252 1084.24 347.343 1078.57 346.203C1072.9 345.063 1068.33 343.037 1064.87 340.125C1061.51 337.05 1059.15 332.697 1057.81 327.064C1056.19 320.252 1056.5 314.017 1058.75 308.358C1061.1 302.537 1065.02 297.517 1070.53 293.298C1076.16 289.048 1083.16 285.924 1091.55 283.925C1098.88 282.176 1106.11 281.7 1113.22 282.496C1120.3 283.162 1127.14 285.408 1133.72 289.237L1127.1 308.468C1120.89 305.657 1115.21 303.896 1110.05 303.187C1104.87 302.346 1099.85 302.503 1095.01 303.659C1092.26 304.315 1089.71 305.267 1087.38 306.515C1085.18 307.732 1083.48 309.314 1082.28 311.261C1081.19 313.046 1080.97 315.313 1081.62 318.064C1082.21 320.553 1083.34 322.362 1084.99 323.49C1086.74 324.457 1089.12 325.136 1092.12 325.528C1095.25 325.889 1099.01 326.24 1103.38 326.582C1112.19 326.973 1119.72 327.741 1125.94 328.887C1132.3 330.001 1137.36 332.049 1141.11 335.03C1144.84 337.88 1147.45 342.448 1148.95 348.736C1151.38 358.954 1149.56 367.835 1143.46 375.379C1137.37 382.923 1128.04 388.194 1115.46 391.192ZM1269.86 352.305L1243.53 358.582L1229.75 300.814C1227.85 292.823 1224.86 287.237 1220.77 284.057C1216.82 280.846 1212.16 279.88 1206.79 281.16C1203.65 281.91 1200.53 283.623 1197.43 286.301C1194.33 288.978 1191.73 292.297 1189.63 296.259C1187.63 300.059 1186.47 304.211 1186.16 308.715L1200.49 368.842L1174.16 375.119L1139.97 231.68L1166.3 225.402L1180.49 284.94C1182.73 277.484 1186.68 271.142 1192.36 265.912C1198.04 260.683 1204.74 257.147 1212.47 255.304C1219.15 253.711 1224.86 253.594 1229.62 254.953C1234.34 256.18 1238.35 258.478 1241.64 261.845C1244.91 265.082 1247.58 269.015 1249.65 273.643C1251.69 278.14 1253.32 282.943 1254.54 288.052L1269.86 352.305Z" fill="white"/>
<path d="M628.708 502.881L628.363 504.851L628.38 504.854L628.396 504.857L628.708 502.881ZM608.849 495.364L607.756 497.038L607.767 497.046L607.778 497.053L608.849 495.364ZM593.817 481.089L592.17 482.225L592.185 482.245L592.199 482.265L593.817 481.089ZM585.324 433.275L583.395 432.746L583.392 432.758L583.389 432.77L585.324 433.275ZM599.55 409.325L600.945 410.757L600.952 410.751L599.55 409.325ZM657.515 395.505L656.88 397.401L656.891 397.405L656.903 397.409L657.515 395.505ZM680.427 410.601L678.911 411.905L678.923 411.92L678.936 411.934L680.427 410.601ZM694.069 439.951L696.047 439.65L696.045 439.638L694.069 439.951ZM694.613 443.974L695.077 445.92L696.795 445.51L696.601 443.755L694.613 443.974ZM615.034 462.947L614.57 461.002L612.42 461.515L613.144 463.603L615.034 462.947ZM622.832 475.624L621.437 477.057L621.454 477.074L621.471 477.09L622.832 475.624ZM634.812 482.321L634.306 484.256L634.344 484.266L634.382 484.274L634.812 482.321ZM662.33 474.929L663.666 476.418L663.673 476.411L663.68 476.405L662.33 474.929ZM669.522 462.416L669.597 460.418L667.815 460.351L667.545 462.114L669.522 462.416ZM693.618 463.317L695.574 463.732L696.069 461.407L693.693 461.318L693.618 463.317ZM686.137 479.844L684.516 478.673L684.508 478.684L684.5 478.695L686.137 479.844ZM672.124 493.361L673.21 495.04L673.226 495.03L673.241 495.019L672.124 493.361ZM610.462 446.386L608.48 446.654L608.776 448.844L610.926 448.332L610.462 446.386ZM664.301 433.55L664.765 435.496L666.915 434.983L666.191 432.895L664.301 433.55ZM656.55 421.07L655.12 422.468L655.148 422.497L655.176 422.524L656.55 421.07ZM644.963 414.28L644.407 416.201L644.432 416.208L644.457 416.214L644.963 414.28ZM618.829 420.51L620.175 421.99L620.184 421.982L620.192 421.974L618.829 420.51ZM611.553 431.798L609.661 431.148L609.658 431.157L609.655 431.166L611.553 431.798ZM651.628 499.721C643.594 501.637 636.064 502.017 629.02 500.905L628.396 504.857C636.025 506.061 644.085 505.632 652.556 503.612L651.628 499.721ZM629.053 500.911C621.923 499.664 615.554 497.246 609.92 493.675L607.778 497.053C613.887 500.926 620.757 503.52 628.363 504.851L629.053 500.911ZM609.942 493.689C604.242 489.967 599.409 485.378 595.434 479.912L592.199 482.265C596.462 488.126 601.651 493.053 607.756 497.038L609.942 493.689ZM595.463 479.953C591.588 474.337 588.834 468.116 587.203 461.276L583.313 462.204C585.055 469.511 588.007 476.19 592.17 482.225L595.463 479.953ZM587.203 461.276C584.932 451.748 584.961 442.593 587.259 433.779L583.389 432.77C580.914 442.261 580.899 452.083 583.313 462.204L587.203 461.276ZM587.253 433.803C589.674 424.971 594.228 417.298 600.945 410.757L598.154 407.892C590.939 414.918 586.009 423.211 583.395 432.746L587.253 433.803ZM600.952 410.751C607.72 404.098 616.478 399.453 627.314 396.87L626.387 392.979C614.954 395.705 605.511 400.66 598.148 407.898L600.952 410.751ZM627.314 396.87C638.288 394.254 648.121 394.469 656.88 397.401L658.15 393.608C648.554 390.395 637.944 390.224 626.387 392.979L627.314 396.87ZM656.903 397.409C665.706 400.24 673.028 405.069 678.911 411.905L681.943 409.296C675.569 401.888 667.616 396.653 658.127 393.601L656.903 397.409ZM678.936 411.934C684.937 418.641 689.007 426.47 691.149 435.456L695.04 434.528C692.748 424.912 688.372 416.481 681.917 409.267L678.936 411.934ZM691.149 435.456C691.511 436.974 691.826 438.576 692.094 440.264L696.045 439.638C695.762 437.857 695.428 436.154 695.04 434.528L691.149 435.456ZM692.092 440.252C692.334 441.839 692.511 443.151 692.625 444.193L696.601 443.755C696.478 442.639 696.293 441.269 696.047 439.65L692.092 440.252ZM694.15 442.029L614.57 461.002L615.498 464.893L695.077 445.92L694.15 442.029ZM613.144 463.603C615.006 468.973 617.76 473.476 621.437 477.057L624.228 474.192C621.053 471.1 618.608 467.152 616.923 462.292L613.144 463.603ZM621.471 477.09C625.255 480.606 629.537 483.008 634.306 484.256L635.318 480.386C631.228 479.316 627.524 477.254 624.194 474.159L621.471 477.09ZM634.382 484.274C639.211 485.337 644.074 485.284 648.947 484.122L648.019 480.231C643.723 481.255 639.472 481.298 635.242 480.368L634.382 484.274ZM648.947 484.122C654.51 482.796 659.425 480.224 663.666 476.418L660.994 473.441C657.252 476.799 652.937 479.058 648.019 480.231L648.947 484.122ZM663.68 476.405C668.041 472.414 670.714 467.85 671.499 462.719L667.545 462.114C666.923 466.178 664.802 469.956 660.98 473.454L663.68 476.405ZM669.448 464.415L693.543 465.315L693.693 461.318L669.597 460.418L669.448 464.415ZM691.662 462.901C690.484 468.442 688.113 473.697 684.516 478.673L687.758 481.016C691.657 475.621 694.273 469.858 695.574 463.732L691.662 462.901ZM684.5 478.695C681.037 483.63 676.548 487.968 671.006 491.702L673.241 495.019C679.15 491.039 684.004 486.366 687.774 480.993L684.5 478.695ZM671.037 491.682C665.496 495.268 659.035 497.955 651.628 499.721L652.556 503.612C660.344 501.755 667.238 498.905 673.21 495.04L671.037 491.682ZM610.926 448.332L664.765 435.496L663.837 431.605L609.999 444.441L610.926 448.332ZM666.191 432.895C664.329 427.525 661.586 423.075 657.923 419.615L655.176 422.524C658.302 425.475 660.727 429.346 662.412 434.205L666.191 432.895ZM657.979 419.671C654.439 416.052 650.26 413.598 645.469 412.345L644.457 416.214C648.525 417.279 652.071 419.352 655.12 422.468L657.979 419.671ZM645.519 412.358C640.702 410.965 635.695 410.903 630.538 412.132L631.465 416.023C636.001 414.942 640.303 415.014 644.407 416.201L645.519 412.358ZM630.538 412.132C625.501 413.333 621.13 415.636 617.467 419.046L620.192 421.974C623.327 419.056 627.07 417.071 631.465 416.023L630.538 412.132ZM617.483 419.031C613.918 422.275 611.314 426.331 609.661 431.148L613.444 432.447C614.895 428.218 617.143 424.748 620.175 421.99L617.483 419.031ZM609.655 431.166C608.091 435.863 607.721 441.04 608.48 446.654L612.444 446.118C611.753 441.002 612.11 436.454 613.45 432.429L609.655 431.166ZM817.195 460.227L817.658 462.172L819.604 461.709L819.14 459.763L817.195 460.227ZM790.864 466.504L788.919 466.968L789.383 468.914L791.328 468.45L790.864 466.504ZM768.459 391.689L767.189 393.234L768.459 391.689ZM744.963 394.176L743.678 392.643L743.667 392.653L743.656 392.662L744.963 394.176ZM737.162 404.135L738.909 405.107L738.919 405.09L738.929 405.072L737.162 404.135ZM733.497 416.637L731.502 416.5L731.481 416.804L731.552 417.101L733.497 416.637ZM747.833 476.764L748.296 478.709L750.242 478.246L749.778 476.3L747.833 476.764ZM721.503 483.042L719.557 483.505L720.021 485.451L721.966 484.987L721.503 483.042ZM696.955 380.079L696.491 378.134L694.545 378.598L695.009 380.543L696.955 380.079ZM720.73 374.411L722.676 373.947L722.212 372.002L720.266 372.465L720.73 374.411ZM725.274 393.471L723.329 393.934L725.032 401.079L727.187 394.057L725.274 393.471ZM732.625 379.881L734.157 381.167L734.17 381.152L734.183 381.136L732.625 379.881ZM744.89 369.481L745.893 371.212L745.907 371.204L745.92 371.196L744.89 369.481ZM777.742 362.687L777.166 364.603L777.202 364.614L777.239 364.623L777.742 362.687ZM789.375 369.674L787.877 370.999L787.904 371.029L787.931 371.058L789.375 369.674ZM796.987 381.565L795.14 382.334L795.15 382.358L795.161 382.382L796.987 381.565ZM816.731 458.282L790.401 464.559L791.328 468.45L817.658 462.172L816.731 458.282ZM792.81 466.041L779.037 408.272L775.146 409.199L788.919 466.968L792.81 466.041ZM779.037 408.272C777.034 399.873 774.022 393.671 769.728 390.144L767.189 393.234C770.471 395.93 773.213 401.093 775.146 409.199L779.037 408.272ZM769.728 390.144C765.419 386.603 760.317 385.552 754.65 386.903L755.578 390.794C760.129 389.709 763.924 390.552 767.189 393.234L769.728 390.144ZM754.65 386.903C750.767 387.829 747.109 389.767 743.678 392.643L746.248 395.708C749.278 393.168 752.388 391.554 755.578 390.794L754.65 386.903ZM743.656 392.662C740.351 395.516 737.601 399.037 735.395 403.198L738.929 405.072C740.925 401.308 743.375 398.19 746.27 395.689L743.656 392.662ZM735.414 403.162C733.135 407.257 731.832 411.711 731.502 416.5L735.493 416.775C735.784 412.555 736.924 408.674 738.909 405.107L735.414 403.162ZM731.552 417.101L745.887 477.228L749.778 476.3L735.443 416.173L731.552 417.101ZM747.369 474.819L721.039 481.096L721.966 484.987L748.296 478.709L747.369 474.819ZM723.448 482.578L698.9 379.616L695.009 380.543L719.557 483.505L723.448 482.578ZM697.419 382.025L721.194 376.356L720.266 372.465L696.491 378.134L697.419 382.025ZM718.785 374.875L723.329 393.934L727.22 393.007L722.676 373.947L718.785 374.875ZM727.187 394.057C728.668 389.229 730.991 384.939 734.157 381.167L731.094 378.595C727.575 382.786 724.997 387.555 723.362 392.884L727.187 394.057ZM734.183 381.136C737.33 377.227 741.227 373.918 745.893 371.212L743.887 367.751C738.823 370.688 734.543 374.311 731.068 378.627L734.183 381.136ZM745.92 371.196C750.701 368.323 755.938 366.204 761.643 364.844L760.715 360.953C754.63 362.404 749.008 364.673 743.86 367.767L745.92 371.196ZM761.643 364.844C767.839 363.366 772.983 363.345 777.166 364.603L778.318 360.772C773.255 359.25 767.357 359.369 760.715 360.953L761.643 364.844ZM777.239 364.623C781.603 365.757 785.125 367.887 787.877 370.999L790.874 368.349C787.56 364.601 783.326 362.072 778.245 360.752L777.239 364.623ZM787.931 371.058C790.875 374.128 793.283 377.877 795.14 382.334L798.833 380.796C796.807 375.934 794.141 371.755 790.819 368.29L787.931 371.058ZM795.161 382.382C797.182 386.896 798.772 391.58 799.93 396.438L803.821 395.51C802.606 390.412 800.936 385.491 798.812 380.747L795.161 382.382ZM799.93 396.438L815.249 460.691L819.14 459.763L803.821 395.51L799.93 396.438ZM860.71 446.322L860.273 448.274L860.3 448.28L860.327 448.285L860.71 446.322ZM843.256 438.439L842.063 440.044L842.075 440.053L842.088 440.062L843.256 438.439ZM829.843 423.986L831.522 422.899L829.843 423.986ZM820.295 383.068L818.309 382.833L820.295 383.068ZM826.091 363.828L824.318 362.902L824.316 362.906L826.091 363.828ZM838.503 348.824L839.731 350.403L839.739 350.397L839.746 350.391L838.503 348.824ZM879.309 340.549L878.693 342.452L878.709 342.457L878.724 342.461L879.309 340.549ZM897.662 351.332L896.286 352.784L901.168 357.413L899.608 350.868L897.662 351.332ZM893.352 333.255L892.888 331.31L890.943 331.773L891.407 333.719L893.352 333.255ZM916.342 327.774L918.287 327.31L917.823 325.365L915.878 325.828L916.342 327.774ZM938.482 453.737L936.618 453.013L936.611 453.032L936.604 453.052L938.482 453.737ZM922.226 475.265L921.018 473.67L921.008 473.678L920.998 473.685L922.226 475.265ZM864.504 489.234L864.946 487.283L864.932 487.28L864.919 487.278L864.504 489.234ZM840.91 478.246L839.221 477.175L838.244 478.715L839.688 479.829L840.91 478.246ZM851.928 460.875L853.147 459.29L851.412 457.956L850.239 459.804L851.928 460.875ZM869.382 468.758L868.98 470.718L868.988 470.719L868.996 470.721L869.382 468.758ZM904.003 461.543L902.826 459.925L902.799 459.945L902.772 459.966L904.003 461.543ZM912.954 449.441L911.088 448.721L911.075 448.754L911.064 448.788L912.954 449.441ZM910.297 419.133L912.242 418.669L910.512 411.413L908.38 418.561L910.297 419.133ZM899.035 436.354L900.333 437.876L900.339 437.87L900.345 437.865L899.035 436.354ZM892.265 419.279L891.184 417.596L892.265 419.279ZM898.645 413.812L897.144 412.49L898.645 413.812ZM903.228 406.905L905.03 407.771L905.043 407.745L905.055 407.718L903.228 406.905ZM905.565 399.287L907.541 399.599L907.602 399.208L907.511 398.823L905.565 399.287ZM899.709 374.725L901.655 374.262L901.568 373.898L901.356 373.59L899.709 374.725ZM890.499 365.708L889.375 367.362L889.394 367.375L889.413 367.387L890.499 365.708ZM879.427 361.079L878.972 363.026L879.016 363.037L879.061 363.045L879.427 361.079ZM857.617 366.279L856.308 364.767L857.617 366.279ZM850.901 375.564L852.719 376.397L852.727 376.379L852.736 376.36L850.901 375.564ZM847.835 387.093L845.845 386.897L845.843 386.918L845.841 386.939L847.835 387.093ZM853.803 410.382L852.162 411.525L852.162 411.525L853.803 410.382ZM861.993 418.605L860.862 420.254L860.883 420.268L860.904 420.282L861.993 418.605ZM872.578 422.934L872.184 424.895L872.198 424.898L872.212 424.9L872.578 422.934ZM880.047 443.809C873.491 445.372 867.18 445.546 861.093 444.359L860.327 448.285C867.017 449.589 873.906 449.385 880.974 447.7L880.047 443.809ZM861.147 444.37C855.128 443.023 849.558 440.509 844.424 436.815L842.088 440.062C847.65 444.064 853.715 446.805 860.273 448.274L861.147 444.37ZM844.45 436.834C839.435 433.105 835.125 428.466 831.522 422.899L828.164 425.072C832.012 431.018 836.645 436.015 842.063 440.044L844.45 436.834ZM831.522 422.899C827.926 417.344 825.306 411.142 823.669 404.276L819.778 405.204C821.514 412.485 824.307 419.113 828.164 425.072L831.522 422.899ZM823.669 404.276C821.939 397.017 821.483 390.03 822.281 383.304L818.309 382.833C817.451 390.068 817.949 397.529 819.778 405.204L823.669 404.276ZM822.281 383.304C823.082 376.546 824.948 370.367 827.865 364.749L824.316 362.906C821.161 368.98 819.163 375.628 818.309 382.833L822.281 383.304ZM827.864 364.753C830.872 358.988 834.828 354.213 839.731 350.403L837.276 347.245C831.901 351.422 827.581 356.65 824.318 362.902L827.864 364.753ZM839.746 350.391C844.737 346.431 850.622 343.63 857.436 342.005L856.509 338.114C849.176 339.862 842.748 342.904 837.26 347.257L839.746 350.391ZM857.436 342.005C865.119 340.173 872.187 340.348 878.693 342.452L879.924 338.646C872.63 336.287 864.808 336.135 856.509 338.114L857.436 342.005ZM878.724 342.461C885.288 344.468 891.137 347.901 896.286 352.784L899.038 349.881C893.454 344.586 887.067 340.83 879.894 338.636L878.724 342.461ZM899.608 350.868L895.298 332.791L891.407 333.719L895.717 351.796L899.608 350.868ZM893.816 335.2L916.806 329.719L915.878 325.828L892.888 331.31L893.816 335.2ZM914.396 328.238L937.773 426.288L941.664 425.36L918.287 327.31L914.396 328.238ZM937.773 426.288C940.131 436.178 939.708 445.06 936.618 453.013L940.347 454.462C943.777 445.631 944.178 435.905 941.664 425.36L937.773 426.288ZM936.604 453.052C933.647 461.155 928.476 468.024 921.018 473.67L923.433 476.859C931.456 470.785 937.122 463.302 940.361 454.423L936.604 453.052ZM920.998 473.685C913.548 479.476 904.463 483.673 893.693 486.241L894.621 490.132C905.859 487.453 915.486 483.036 923.453 476.844L920.998 473.685ZM893.693 486.241C882.772 488.845 873.208 489.155 864.946 487.283L864.062 491.185C873.069 493.225 883.273 492.837 894.621 490.132L893.693 486.241ZM864.919 487.278C856.616 485.516 849.026 481.984 842.132 476.663L839.688 479.829C847.046 485.508 855.185 489.302 864.089 491.191L864.919 487.278ZM842.599 479.317L853.617 461.947L850.239 459.804L839.221 477.175L842.599 479.317ZM850.709 462.461C856.045 466.564 862.145 469.314 868.98 470.718L869.784 466.799C863.518 465.512 857.982 463.007 853.147 459.29L850.709 462.461ZM868.996 470.721C875.961 472.091 882.932 471.945 889.89 470.286L888.962 466.395C882.557 467.922 876.166 468.055 869.768 466.796L868.996 470.721ZM889.89 470.286C895.768 468.884 900.897 466.504 905.233 463.119L902.772 459.966C898.938 462.959 894.348 465.111 888.962 466.395L889.89 470.286ZM905.179 463.16C909.758 459.829 912.991 455.458 914.844 450.094L911.064 448.788C909.477 453.381 906.741 457.078 902.826 459.925L905.179 463.16ZM914.82 450.161C916.887 444.802 916.992 438.59 915.334 431.637L911.443 432.565C912.971 438.974 912.785 444.321 911.088 448.721L914.82 450.161ZM915.334 431.637L912.242 418.669L908.351 419.597L911.443 432.565L915.334 431.637ZM908.38 418.561C906.493 424.888 902.957 430.307 897.725 434.843L900.345 437.865C906.127 432.853 910.099 426.791 912.213 419.704L908.38 418.561ZM897.738 434.832C892.572 439.238 886.683 442.227 880.047 443.809L880.974 447.7C888.223 445.972 894.684 442.693 900.333 437.876L897.738 434.832ZM884.804 424.567C887.896 423.83 890.747 422.629 893.345 420.962L891.184 417.596C888.98 419.011 886.548 420.039 883.876 420.676L884.804 424.567ZM893.345 420.962C895.9 419.322 898.169 417.378 900.146 415.134L897.144 412.49C895.417 414.451 893.432 416.152 891.184 417.596L893.345 420.962ZM900.146 415.134C902.118 412.895 903.747 410.44 905.03 407.771L901.426 406.038C900.302 408.373 898.876 410.523 897.144 412.49L900.146 415.134ZM905.055 407.718C906.287 404.951 907.123 402.243 907.541 399.599L903.589 398.975C903.235 401.222 902.513 403.593 901.401 406.091L905.055 407.718ZM907.511 398.823L901.655 374.262L897.764 375.189L903.62 399.751L907.511 398.823ZM901.356 373.59C898.673 369.697 895.415 366.503 891.584 364.028L889.413 367.387C892.783 369.564 895.665 372.381 898.062 375.86L901.356 373.59ZM891.623 364.053C887.938 361.55 883.991 359.895 879.794 359.113L879.061 363.045C882.687 363.721 886.121 365.151 889.375 367.362L891.623 364.053ZM879.883 359.131C875.769 358.17 871.649 358.178 867.547 359.156L868.475 363.047C871.971 362.213 875.462 362.206 878.972 363.026L879.883 359.131ZM867.547 359.156C863.206 360.191 859.443 362.053 856.308 364.767L858.926 367.791C861.528 365.538 864.695 363.948 868.475 363.047L867.547 359.156ZM856.308 364.767C853.198 367.459 850.786 370.805 849.066 374.767L852.736 376.36C854.232 372.911 856.298 370.066 858.926 367.791L856.308 364.767ZM849.083 374.73C847.346 378.517 846.27 382.577 845.845 386.897L849.825 387.289C850.209 383.387 851.176 379.761 852.719 376.397L849.083 374.73ZM845.841 386.939C845.52 391.106 845.871 395.32 846.885 399.572L850.776 398.644C849.854 394.774 849.542 390.978 849.829 387.247L845.841 386.939ZM846.885 399.572C847.939 403.991 849.694 407.982 852.162 411.525L855.444 409.239C853.281 406.133 851.721 402.608 850.776 398.644L846.885 399.572ZM852.162 411.525C854.606 415.035 857.506 417.951 860.862 420.254L863.125 416.955C860.191 414.943 857.63 412.378 855.444 409.239L852.162 411.525ZM860.904 420.282C864.389 422.544 868.152 424.084 872.184 424.895L872.972 420.973C869.442 420.264 866.149 418.918 863.082 416.927L860.904 420.282ZM872.212 424.9C876.403 425.681 880.606 425.568 884.804 424.567L883.876 420.676C880.214 421.549 876.576 421.644 872.944 420.968L872.212 424.9ZM930.229 281.685L929.765 279.739L927.82 280.203L928.284 282.148L930.229 281.685ZM956.559 275.407L958.504 274.943L958.041 272.998L956.095 273.462L956.559 275.407ZM987.54 394.902L986.426 396.562L986.459 396.585L986.493 396.606L987.54 394.902ZM1000.88 393.382L999.987 391.594L1000.88 393.382ZM1006.31 390.012L1008.15 389.217L1007.11 386.835L1005.07 388.44L1006.31 390.012ZM1014.63 409.211L1015.89 410.762L1017.06 409.806L1016.46 408.416L1014.63 409.211ZM1003.18 416.092L1002.36 414.271L1003.18 416.092ZM969.937 418.619L968.889 420.323L968.914 420.338L968.94 420.353L969.937 418.619ZM930.693 283.63L957.023 277.353L956.095 273.462L929.765 279.739L930.693 283.63ZM954.614 275.871L980.942 386.3L984.833 385.372L958.504 274.943L954.614 275.871ZM980.942 386.3C982.08 391.074 983.769 394.779 986.426 396.562L988.655 393.242C987.356 392.369 985.943 390.029 984.833 385.372L980.942 386.3ZM986.493 396.606C988.994 398.143 991.914 398.407 995.051 397.659L994.123 393.768C991.758 394.332 989.981 394.055 988.588 393.198L986.493 396.606ZM995.051 397.659C997.31 397.121 999.553 396.287 1001.78 395.17L999.987 391.594C998.01 392.586 996.056 393.308 994.123 393.768L995.051 397.659ZM1001.78 395.17C1003.98 394.067 1005.91 392.874 1007.55 391.584L1005.07 388.44C1003.68 389.533 1001.99 390.587 999.987 391.594L1001.78 395.17ZM1004.47 390.807L1012.79 410.006L1016.46 408.416L1008.15 389.217L1004.47 390.807ZM1013.36 407.659C1010.39 410.076 1006.73 412.285 1002.36 414.271L1004.01 417.913C1008.63 415.816 1012.6 413.438 1015.89 410.762L1013.36 407.659ZM1002.36 414.271C997.947 416.272 993.922 417.697 990.275 418.567L991.203 422.458C995.154 421.516 999.425 419.994 1004.01 417.913L1002.36 414.271ZM990.275 418.567C982.36 420.454 975.984 419.79 970.934 416.885L968.94 420.353C975.121 423.908 982.612 424.506 991.203 422.458L990.275 418.567ZM970.985 416.915C966.041 413.875 962.555 408.647 960.704 400.885L956.813 401.812C958.836 410.294 962.801 416.579 968.889 420.323L970.985 416.915ZM960.704 400.885L932.174 281.221L928.284 282.148L956.813 401.812L960.704 400.885ZM1026.99 410.209L1025.04 410.673L1025.51 412.618L1027.45 412.154L1026.99 410.209ZM1002.44 307.247L1001.98 305.301L1000.03 305.765L1000.49 307.711L1002.44 307.247ZM1028.77 300.969L1030.71 300.505L1030.25 298.56L1028.31 299.024L1028.77 300.969ZM1053.32 403.931L1053.78 405.877L1055.73 405.413L1055.26 403.468L1053.32 403.931ZM999.02 292.903L997.074 293.367L997.538 295.312L999.483 294.848L999.02 292.903ZM992.789 266.769L992.325 264.824L990.38 265.288L990.843 267.233L992.789 266.769ZM1019.12 260.492L1021.06 260.028L1020.6 258.083L1018.66 258.546L1019.12 260.492ZM1025.35 286.625L1025.81 288.571L1027.76 288.107L1027.3 286.161L1025.35 286.625ZM1028.93 409.745L1004.38 306.783L1000.49 307.711L1025.04 410.673L1028.93 409.745ZM1002.9 309.192L1029.23 302.915L1028.31 299.024L1001.98 305.301L1002.9 309.192ZM1026.82 301.433L1051.37 404.395L1055.26 403.468L1030.71 300.505L1026.82 301.433ZM1052.85 401.986L1026.52 408.263L1027.45 412.154L1053.78 405.877L1052.85 401.986ZM1000.96 292.439L994.734 266.305L990.843 267.233L997.074 293.367L1000.96 292.439ZM993.253 268.715L1019.58 262.437L1018.66 258.546L992.325 264.824L993.253 268.715ZM1017.17 260.956L1023.4 287.089L1027.3 286.161L1021.06 260.028L1017.17 260.956ZM1024.89 284.68L998.556 290.957L999.483 294.848L1025.81 288.571L1024.89 284.68ZM1089.28 392.865L1089.06 394.853L1089.28 392.865ZM1065.6 385.012L1063.68 384.479L1063.27 385.946L1064.57 386.728L1065.6 385.012ZM1070.96 365.669L1071.82 363.864L1069.67 362.835L1069.03 365.135L1070.96 365.669ZM1091.66 372.363L1091.37 374.341L1091.38 374.342L1091.38 374.343L1091.66 372.363ZM1121.32 366.121L1119.94 364.675L1119.93 364.688L1119.91 364.701L1121.32 366.121ZM1120.16 351.655L1119.25 353.44L1119.3 353.461L1119.34 353.48L1120.16 351.655ZM1111.8 349.702L1111.62 351.694L1111.64 351.695L1111.65 351.696L1111.8 349.702ZM1099.36 348.929L1099.2 350.922L1099.24 350.925L1099.27 350.927L1099.36 348.929ZM1078.57 346.203L1078.18 348.164L1078.57 346.203ZM1064.87 340.125L1063.52 341.601L1063.55 341.629L1063.58 341.656L1064.87 340.125ZM1058.75 308.358L1056.89 307.609L1056.89 307.619L1058.75 308.358ZM1070.53 293.298L1069.32 291.702L1069.31 291.707L1069.31 291.711L1070.53 293.298ZM1113.22 282.496L1113 284.484L1113.02 284.486L1113.03 284.487L1113.22 282.496ZM1133.72 289.237L1135.62 289.888L1136.15 288.334L1134.73 287.507L1133.72 289.237ZM1127.1 308.468L1126.27 310.29L1128.27 311.196L1128.99 309.12L1127.1 308.468ZM1110.05 303.187L1109.73 305.161L1109.76 305.165L1109.78 305.168L1110.05 303.187ZM1087.38 306.515L1086.44 304.752L1086.43 304.758L1086.41 304.765L1087.38 306.515ZM1082.28 311.261L1080.58 310.213L1082.28 311.261ZM1084.99 323.49L1083.86 325.142L1083.94 325.196L1084.03 325.242L1084.99 323.49ZM1092.12 325.528L1091.86 327.511L1091.88 327.513L1091.89 327.515L1092.12 325.528ZM1103.38 326.582L1103.22 328.576L1103.26 328.579L1103.29 328.58L1103.38 326.582ZM1125.94 328.887L1125.58 330.854L1125.59 330.855L1125.6 330.857L1125.94 328.887ZM1141.11 335.03L1139.87 336.597L1139.88 336.608L1139.9 336.618L1141.11 335.03ZM1143.46 375.379L1141.91 374.122L1143.46 375.379ZM1115 389.246C1106.44 391.287 1097.94 391.828 1089.5 390.878L1089.06 394.853C1097.97 395.856 1106.93 395.282 1115.93 393.137L1115 389.246ZM1089.5 390.878C1081.09 389.931 1073.48 387.4 1066.63 383.297L1064.57 386.728C1071.94 391.142 1080.11 393.846 1089.06 394.853L1089.5 390.878ZM1067.53 385.546L1072.89 366.203L1069.03 365.135L1063.68 384.479L1067.53 385.546ZM1070.1 367.473C1077.58 371.049 1084.67 373.353 1091.37 374.341L1091.95 370.384C1085.73 369.467 1079.03 367.308 1071.82 363.864L1070.1 367.473ZM1091.38 374.343C1098.17 375.293 1104.47 375.101 1110.26 373.722L1109.33 369.831C1104.11 371.076 1098.32 371.275 1091.94 370.382L1091.38 374.343ZM1110.26 373.722C1115.57 372.455 1119.8 370.443 1122.73 367.542L1119.91 364.701C1117.69 366.904 1114.23 368.662 1109.33 369.831L1110.26 373.722ZM1122.7 367.568C1125.93 364.489 1127.05 360.634 1126.01 356.281L1122.12 357.208C1122.83 360.191 1122.13 362.587 1119.94 364.675L1122.7 367.568ZM1126.01 356.281C1125.3 353.296 1123.65 351.031 1120.97 349.83L1119.34 353.48C1120.69 354.087 1121.65 355.215 1122.12 357.208L1126.01 356.281ZM1121.06 349.87C1118.69 348.671 1115.61 347.985 1111.95 347.708L1111.65 351.696C1115.04 351.953 1117.53 352.57 1119.25 353.44L1121.06 349.87ZM1111.97 347.71C1108.54 347.408 1104.37 347.149 1099.45 346.931L1099.27 350.927C1104.15 351.143 1108.27 351.399 1111.62 351.694L1111.97 347.71ZM1099.53 346.936C1091.38 346.262 1084.54 345.362 1078.96 344.242L1078.18 348.164C1083.95 349.324 1090.96 350.241 1099.2 350.922L1099.53 346.936ZM1078.96 344.242C1073.53 343.151 1069.3 341.238 1066.16 338.594L1063.58 341.656C1067.36 344.836 1072.27 346.976 1078.18 348.164L1078.96 344.242ZM1066.22 338.649C1063.22 335.909 1061.03 331.949 1059.75 326.6L1055.86 327.528C1057.27 333.445 1059.79 338.192 1063.52 341.601L1066.22 338.649ZM1059.75 326.6C1058.21 320.127 1058.53 314.318 1060.61 309.097L1056.89 307.619C1054.47 313.716 1054.16 320.378 1055.86 327.528L1059.75 326.6ZM1060.6 309.107C1062.81 303.651 1066.49 298.91 1071.74 294.885L1069.31 291.711C1063.55 296.124 1059.39 301.423 1056.89 307.609L1060.6 309.107ZM1071.73 294.895C1077.1 290.843 1083.84 287.819 1092.01 285.871L1091.08 281.98C1082.49 284.029 1075.22 287.253 1069.32 291.702L1071.73 294.895ZM1092.01 285.871C1099.14 284.172 1106.13 283.714 1113 284.484L1113.44 280.509C1106.09 279.685 1098.63 280.18 1091.08 281.98L1092.01 285.871ZM1113.03 284.487C1119.8 285.124 1126.36 287.273 1132.72 290.966L1134.73 287.507C1127.91 283.544 1120.8 281.199 1113.41 280.505L1113.03 284.487ZM1131.83 288.585L1125.2 307.817L1128.99 309.12L1135.62 289.888L1131.83 288.585ZM1127.92 306.646C1121.59 303.779 1115.72 301.948 1110.33 301.205L1109.78 305.168C1114.69 305.844 1120.19 307.535 1126.27 310.29L1127.92 306.646ZM1110.37 301.212C1104.94 300.332 1099.66 300.493 1094.54 301.713L1095.47 305.604C1100.05 304.513 1104.8 304.36 1109.73 305.161L1110.37 301.212ZM1094.54 301.713C1091.64 302.406 1088.93 303.417 1086.44 304.752L1088.33 308.279C1090.5 307.117 1092.88 306.223 1095.47 305.604L1094.54 301.713ZM1086.41 304.765C1083.94 306.132 1081.98 307.944 1080.58 310.213L1083.99 312.309C1084.99 310.685 1086.42 309.333 1088.35 308.266L1086.41 304.765ZM1080.58 310.213C1079.12 312.59 1078.94 315.447 1079.68 318.528L1083.57 317.6C1082.99 315.18 1083.25 313.501 1083.99 312.309L1080.58 310.213ZM1079.68 318.528C1080.35 321.362 1081.7 323.662 1083.86 325.142L1086.12 321.839C1084.98 321.062 1084.08 319.744 1083.57 317.6L1079.68 318.528ZM1084.03 325.242C1086.08 326.374 1088.73 327.102 1091.86 327.511L1092.38 323.545C1089.51 323.17 1087.41 322.539 1085.96 321.739L1084.03 325.242ZM1091.89 327.515C1095.06 327.88 1098.84 328.233 1103.22 328.576L1103.54 324.588C1099.18 324.248 1095.45 323.899 1092.35 323.541L1091.89 327.515ZM1103.29 328.58C1112.05 328.968 1119.47 329.729 1125.58 330.854L1126.3 326.92C1119.96 325.752 1112.34 324.977 1103.47 324.584L1103.29 328.58ZM1125.6 330.857C1131.73 331.933 1136.45 333.882 1139.87 336.597L1142.36 333.463C1138.26 330.216 1132.86 328.07 1126.29 326.917L1125.6 330.857ZM1139.9 336.618C1143.14 339.099 1145.57 343.192 1147 349.2L1150.89 348.272C1149.33 341.705 1146.53 336.66 1142.33 333.441L1139.9 336.618ZM1147 349.2C1149.31 358.873 1147.57 367.105 1141.91 374.122L1145.02 376.635C1151.54 368.565 1153.46 359.035 1150.89 348.272L1147 349.2ZM1141.91 374.122C1136.17 381.223 1127.29 386.317 1115 389.246L1115.93 393.137C1128.79 390.071 1138.57 384.622 1145.02 376.635L1141.91 374.122ZM1269.86 352.305L1270.32 354.25L1272.27 353.787L1271.8 351.841L1269.86 352.305ZM1243.53 358.582L1241.58 359.046L1242.05 360.992L1243.99 360.528L1243.53 358.582ZM1220.77 284.057L1219.51 285.609L1219.53 285.622L1219.55 285.635L1220.77 284.057ZM1197.43 286.301L1196.12 284.787L1197.43 286.301ZM1189.63 296.259L1187.86 295.322L1187.86 295.327L1189.63 296.259ZM1186.16 308.715L1184.16 308.578L1184.14 308.882L1184.21 309.179L1186.16 308.715ZM1200.49 368.842L1200.96 370.787L1202.9 370.324L1202.44 368.378L1200.49 368.842ZM1174.16 375.119L1172.22 375.583L1172.68 377.529L1174.63 377.065L1174.16 375.119ZM1139.97 231.68L1139.5 229.734L1137.56 230.198L1138.02 232.144L1139.97 231.68ZM1166.3 225.402L1168.24 224.938L1167.78 222.993L1165.83 223.457L1166.3 225.402ZM1180.49 284.94L1178.55 285.403L1180.27 292.635L1182.41 285.514L1180.49 284.94ZM1192.36 265.912L1193.72 267.383L1193.72 267.383L1192.36 265.912ZM1229.62 254.953L1229.07 256.876L1229.09 256.882L1229.11 256.888L1229.62 254.953ZM1241.64 261.845L1240.21 263.244L1240.23 263.255L1240.24 263.265L1241.64 261.845ZM1249.65 273.643L1247.82 274.46L1247.83 274.469L1249.65 273.643ZM1269.39 350.359L1243.06 356.637L1243.99 360.528L1270.32 354.25L1269.39 350.359ZM1245.47 358.119L1231.7 300.35L1227.81 301.277L1241.58 359.046L1245.47 358.119ZM1231.7 300.35C1229.75 292.16 1226.6 286.061 1222 282.48L1219.55 285.635C1223.11 288.413 1225.95 293.485 1227.81 301.277L1231.7 300.35ZM1222.04 282.505C1217.56 278.864 1212.25 277.804 1206.33 279.215L1207.26 283.106C1212.08 281.956 1216.09 282.827 1219.51 285.609L1222.04 282.505ZM1206.33 279.215C1202.8 280.056 1199.4 281.955 1196.12 284.787L1198.74 287.814C1201.66 285.292 1204.5 283.764 1207.26 283.106L1206.33 279.215ZM1196.12 284.787C1192.82 287.641 1190.07 291.162 1187.86 295.322L1191.39 297.196C1193.39 293.433 1195.84 290.315 1198.74 287.814L1196.12 284.787ZM1187.86 295.327C1185.72 299.386 1184.49 303.81 1184.16 308.578L1188.15 308.853C1188.45 304.612 1189.53 300.732 1191.4 297.191L1187.86 295.327ZM1184.21 309.179L1198.55 369.306L1202.44 368.378L1188.11 308.251L1184.21 309.179ZM1200.03 366.896L1173.7 373.174L1174.63 377.065L1200.96 370.787L1200.03 366.896ZM1176.11 374.656L1141.91 231.216L1138.02 232.144L1172.22 375.583L1176.11 374.656ZM1140.43 233.625L1166.76 227.348L1165.83 223.457L1139.5 229.734L1140.43 233.625ZM1164.35 225.866L1178.55 285.403L1182.44 284.476L1168.24 224.938L1164.35 225.866ZM1182.41 285.514C1184.54 278.399 1188.31 272.367 1193.72 267.383L1191 264.441C1185.06 269.916 1180.91 276.569 1178.58 284.365L1182.41 285.514ZM1193.72 267.383C1199.13 262.392 1205.52 259.015 1212.93 257.25L1212 253.359C1203.95 255.278 1196.94 258.973 1191 264.441L1193.72 267.383ZM1212.93 257.25C1219.4 255.707 1224.75 255.641 1229.07 256.876L1230.17 253.03C1224.98 251.547 1218.89 251.716 1212 253.359L1212.93 257.25ZM1229.11 256.888C1233.5 258.028 1237.18 260.146 1240.21 263.244L1243.07 260.447C1239.52 256.81 1235.18 254.332 1230.12 253.017L1229.11 256.888ZM1240.24 263.265C1243.31 266.312 1245.84 270.034 1247.82 274.46L1251.47 272.825C1249.31 267.996 1246.51 263.853 1243.05 260.425L1240.24 263.265ZM1247.83 274.469C1249.81 278.843 1251.4 283.524 1252.59 288.516L1256.48 287.588C1255.24 282.362 1253.57 277.437 1251.47 272.816L1247.83 274.469ZM1252.59 288.516L1267.91 352.769L1271.8 351.841L1256.48 287.588L1252.59 288.516Z" fill="#6B73C2" mask="url(#path-5-outside-3_3630_95213)"/>
<mask id="path-7-outside-4_3630_95213" maskUnits="userSpaceOnUse" x="940.54" y="67.6741" width="240.587" height="192.432" fill="black">
<rect fill="white" x="940.54" y="67.6741" width="240.587" height="192.432"/>
<path d="M961.101 132.725L988.524 72.4107L1013.16 83.6138L988.166 138.596C984.822 145.951 983.635 152.142 984.604 157.169C985.629 162.073 988.777 165.723 994.048 168.12C997.235 169.569 1000.64 170.377 1004.26 170.545C1008.06 170.645 1011.84 169.994 1015.58 168.59C1019.45 167.242 1023.19 165.024 1026.82 161.937L1053.99 102.174L1078.63 113.377L1047.36 182.151C1046.19 184.725 1045.78 186.759 1046.14 188.253C1046.62 189.802 1047.84 191.173 1049.82 192.366L1040.7 212.409C1038.08 211.662 1035.89 210.96 1034.12 210.302C1032.41 209.823 1030.88 209.276 1029.54 208.663C1025.12 206.657 1021.95 204.032 1020.02 200.788C1018.27 197.478 1017.96 193.934 1019.09 190.156L1022.05 182.182C1014.8 186.728 1007.03 189.185 998.727 189.552C990.48 189.797 982.31 188.079 974.219 184.401C964.29 179.886 958.199 173.271 955.949 164.555C953.754 155.717 955.472 145.107 961.101 132.725ZM1093.96 238.842C1085.75 235.107 1078.51 230.192 1072.26 224.095C1066.01 217.998 1061.39 211.087 1058.39 203.364L1074.49 191.378C1078.13 198.657 1082.21 204.653 1086.72 209.368C1091.36 214.138 1096.25 217.694 1101.4 220.035C1106.18 222.209 1110.37 223.078 1113.97 222.644C1117.69 222.266 1120.34 220.36 1121.9 216.927C1122.96 214.598 1122.97 212.458 1121.93 210.508C1120.95 208.435 1119.15 206.211 1116.53 203.837C1114.04 201.519 1110.92 198.771 1107.19 195.594C1101.14 190.032 1096.22 185.061 1092.44 180.681C1088.67 176.3 1086.3 171.898 1085.36 167.473C1084.59 162.982 1085.4 158.1 1087.8 152.829C1090.7 146.454 1094.77 141.723 1100.02 138.637C1105.45 135.483 1111.63 133.929 1118.56 133.974C1125.62 134.075 1133.07 135.909 1140.91 139.476C1147.78 142.598 1153.77 146.655 1158.9 151.649C1164.08 156.519 1168.1 162.488 1170.95 169.554L1153.91 180.67C1150.74 174.64 1147.33 169.764 1143.7 166.041C1140.12 162.196 1136.07 159.242 1131.53 157.18C1128.96 156.009 1126.37 155.201 1123.76 154.755C1121.27 154.364 1118.96 154.57 1116.82 155.373C1114.86 156.108 1113.29 157.763 1112.12 160.337C1111.06 162.667 1110.84 164.784 1111.45 166.69C1112.24 168.529 1113.7 170.524 1115.83 172.675C1118.08 174.882 1120.83 177.463 1124.07 180.416C1130.79 186.134 1136.26 191.356 1140.47 196.082C1144.81 200.864 1147.54 205.584 1148.68 210.243C1149.87 214.779 1149.13 219.989 1146.45 225.874C1142.11 235.436 1135.21 241.325 1125.77 243.542C1116.33 245.759 1105.73 244.192 1093.96 238.842Z"/>
</mask>
<path d="M961.101 132.725L988.524 72.4107L1013.16 83.6138L988.166 138.596C984.822 145.951 983.635 152.142 984.604 157.169C985.629 162.073 988.777 165.723 994.048 168.12C997.235 169.569 1000.64 170.377 1004.26 170.545C1008.06 170.645 1011.84 169.994 1015.58 168.59C1019.45 167.242 1023.19 165.024 1026.82 161.937L1053.99 102.174L1078.63 113.377L1047.36 182.151C1046.19 184.725 1045.78 186.759 1046.14 188.253C1046.62 189.802 1047.84 191.173 1049.82 192.366L1040.7 212.409C1038.08 211.662 1035.89 210.96 1034.12 210.302C1032.41 209.823 1030.88 209.276 1029.54 208.663C1025.12 206.657 1021.95 204.032 1020.02 200.788C1018.27 197.478 1017.96 193.934 1019.09 190.156L1022.05 182.182C1014.8 186.728 1007.03 189.185 998.727 189.552C990.48 189.797 982.31 188.079 974.219 184.401C964.29 179.886 958.199 173.271 955.949 164.555C953.754 155.717 955.472 145.107 961.101 132.725ZM1093.96 238.842C1085.75 235.107 1078.51 230.192 1072.26 224.095C1066.01 217.998 1061.39 211.087 1058.39 203.364L1074.49 191.378C1078.13 198.657 1082.21 204.653 1086.72 209.368C1091.36 214.138 1096.25 217.694 1101.4 220.035C1106.18 222.209 1110.37 223.078 1113.97 222.644C1117.69 222.266 1120.34 220.36 1121.9 216.927C1122.96 214.598 1122.97 212.458 1121.93 210.508C1120.95 208.435 1119.15 206.211 1116.53 203.837C1114.04 201.519 1110.92 198.771 1107.19 195.594C1101.14 190.032 1096.22 185.061 1092.44 180.681C1088.67 176.3 1086.3 171.898 1085.36 167.473C1084.59 162.982 1085.4 158.1 1087.8 152.829C1090.7 146.454 1094.77 141.723 1100.02 138.637C1105.45 135.483 1111.63 133.929 1118.56 133.974C1125.62 134.075 1133.07 135.909 1140.91 139.476C1147.78 142.598 1153.77 146.655 1158.9 151.649C1164.08 156.519 1168.1 162.488 1170.95 169.554L1153.91 180.67C1150.74 174.64 1147.33 169.764 1143.7 166.041C1140.12 162.196 1136.07 159.242 1131.53 157.18C1128.96 156.009 1126.37 155.201 1123.76 154.755C1121.27 154.364 1118.96 154.57 1116.82 155.373C1114.86 156.108 1113.29 157.763 1112.12 160.337C1111.06 162.667 1110.84 164.784 1111.45 166.69C1112.24 168.529 1113.7 170.524 1115.83 172.675C1118.08 174.882 1120.83 177.463 1124.07 180.416C1130.79 186.134 1136.26 191.356 1140.47 196.082C1144.81 200.864 1147.54 205.584 1148.68 210.243C1149.87 214.779 1149.13 219.989 1146.45 225.874C1142.11 235.436 1135.21 241.325 1125.77 243.542C1116.33 245.759 1105.73 244.192 1093.96 238.842Z" fill="white"/>
<path d="M988.524 72.4107L989.351 70.59L987.531 69.7623L986.703 71.5829L988.524 72.4107ZM1013.16 83.6138L1014.98 84.4416L1015.81 82.6209L1013.99 81.7932L1013.16 83.6138ZM984.604 157.169L982.64 157.547L982.643 157.563L982.646 157.578L984.604 157.169ZM1004.26 170.545L1004.17 172.543L1004.19 172.543L1004.21 172.544L1004.26 170.545ZM1015.58 168.59L1014.92 166.701L1014.9 166.709L1014.88 166.717L1015.58 168.59ZM1026.82 161.937L1028.11 163.46L1028.45 163.171L1028.64 162.765L1026.82 161.937ZM1053.99 102.174L1054.81 100.354L1052.99 99.5258L1052.17 101.346L1053.99 102.174ZM1078.63 113.377L1080.45 114.205L1081.28 112.384L1079.46 111.557L1078.63 113.377ZM1046.14 188.253L1044.19 188.717L1044.21 188.781L1044.23 188.844L1046.14 188.253ZM1049.82 192.365L1051.64 193.193L1052.37 191.574L1050.85 190.654L1049.82 192.365ZM1040.7 212.409L1040.15 214.332L1041.81 214.805L1042.52 213.237L1040.7 212.409ZM1034.12 210.302L1034.81 208.427L1034.74 208.399L1034.66 208.377L1034.12 210.302ZM1020.02 200.788L1018.26 201.723L1018.28 201.767L1018.31 201.81L1020.02 200.788ZM1019.09 190.156L1017.21 189.46L1017.19 189.522L1017.17 189.585L1019.09 190.156ZM1022.05 182.182L1023.92 182.878L1025.97 177.358L1020.99 180.488L1022.05 182.182ZM998.727 189.552L998.786 191.551L998.801 191.551L998.815 191.55L998.727 189.552ZM955.949 164.555L954.008 165.037L954.01 165.046L954.012 165.055L955.949 164.555ZM962.922 133.553L990.344 73.2385L986.703 71.5829L959.28 131.898L962.922 133.553ZM987.696 74.2313L1012.34 85.4345L1013.99 81.7932L989.351 70.59L987.696 74.2313ZM1011.34 82.786L986.346 137.768L989.987 139.424L1014.98 84.4416L1011.34 82.786ZM986.346 137.768C982.922 145.299 981.559 151.94 982.64 157.547L986.568 156.79C985.71 152.345 986.722 146.604 989.987 139.424L986.346 137.768ZM982.646 157.578C983.823 163.209 987.472 167.327 993.22 169.94L994.876 166.299C990.081 164.119 987.434 160.937 986.561 156.76L982.646 157.578ZM993.22 169.94C996.648 171.499 1000.3 172.364 1004.17 172.543L1004.35 168.547C1000.98 168.391 997.823 167.639 994.876 166.299L993.22 169.94ZM1004.21 172.544C1008.28 172.652 1012.31 171.952 1016.28 170.463L1014.88 166.717C1011.36 168.035 1007.85 168.639 1004.32 168.545L1004.21 172.544ZM1016.24 170.478C1020.37 169.037 1024.33 166.681 1028.11 163.46L1025.52 160.415C1022.05 163.367 1018.52 165.447 1014.92 166.701L1016.24 170.478ZM1028.64 162.765L1055.81 103.002L1052.17 101.346L1024.99 161.109L1028.64 162.765ZM1053.16 103.995L1077.8 115.198L1079.46 111.557L1054.81 100.354L1053.16 103.995ZM1076.81 112.55L1045.54 181.323L1049.18 182.979L1080.45 114.205L1076.81 112.55ZM1045.54 181.323C1044.32 184.004 1043.68 186.555 1044.19 188.717L1048.08 187.788C1047.89 186.964 1048.06 185.446 1049.18 182.979L1045.54 181.323ZM1044.23 188.844C1044.9 191.025 1046.56 192.737 1048.78 194.077L1050.85 190.654C1049.12 189.609 1048.33 188.578 1048.05 187.662L1044.23 188.844ZM1048 191.538L1038.88 211.581L1042.52 213.237L1051.64 193.193L1048 191.538ZM1041.25 210.486C1038.66 209.747 1036.52 209.061 1034.81 208.427L1033.42 212.177C1035.26 212.859 1037.51 213.577 1040.15 214.332L1041.25 210.486ZM1034.66 208.377C1033.03 207.92 1031.6 207.406 1030.36 206.843L1028.71 210.484C1030.17 211.146 1031.79 211.726 1033.58 212.227L1034.66 208.377ZM1030.36 206.843C1026.22 204.957 1023.41 202.571 1021.74 199.767L1018.31 201.81C1020.49 205.493 1024.03 208.356 1028.71 210.484L1030.36 206.843ZM1021.79 199.854C1020.3 197.033 1020.02 194.033 1021.01 190.727L1017.17 189.585C1015.91 193.835 1016.25 197.923 1018.26 201.723L1021.79 199.854ZM1020.96 190.852L1023.92 182.878L1020.17 181.486L1017.21 189.46L1020.96 190.852ZM1020.99 180.488C1014.03 184.856 1006.59 187.203 998.639 187.554L998.815 191.55C1007.47 191.167 1015.58 188.601 1023.11 183.876L1020.99 180.488ZM998.668 187.553C990.749 187.788 982.882 186.142 975.047 182.58L973.392 186.221C981.739 190.017 990.21 191.805 998.786 191.551L998.668 187.553ZM975.047 182.58C965.539 178.257 959.953 172.061 957.885 164.055L954.012 165.055C956.446 174.481 963.041 181.515 973.392 186.221L975.047 182.58ZM957.89 164.073C955.846 155.842 957.391 145.718 962.922 133.553L959.28 131.898C953.553 144.496 951.662 155.592 954.008 165.037L957.89 164.073ZM1072.26 224.095L1070.87 225.527L1072.26 224.095ZM1058.39 203.364L1057.19 201.759L1055.97 202.668L1056.52 204.087L1058.39 203.364ZM1074.49 191.378L1076.28 190.483L1075.21 188.349L1073.29 189.774L1074.49 191.378ZM1086.72 209.368L1085.28 210.751L1085.28 210.756L1085.29 210.762L1086.72 209.368ZM1113.97 222.644L1113.77 220.654L1113.75 220.656L1113.73 220.659L1113.97 222.644ZM1121.93 210.508L1120.12 211.363L1120.14 211.405L1120.16 211.446L1121.93 210.508ZM1116.53 203.837L1115.17 205.303L1115.18 205.311L1115.19 205.319L1116.53 203.837ZM1107.19 195.594L1105.83 197.067L1105.86 197.093L1105.89 197.118L1107.19 195.594ZM1092.44 180.681L1090.93 181.987L1092.44 180.681ZM1085.36 167.473L1083.39 167.811L1083.39 167.851L1083.4 167.892L1085.36 167.473ZM1100.02 138.637L1099.02 136.907L1099.01 136.913L1100.02 138.637ZM1118.56 133.974L1118.59 131.974L1118.58 131.974L1118.57 131.974L1118.56 133.974ZM1158.9 151.649L1157.5 153.081L1157.52 153.094L1157.53 153.106L1158.9 151.649ZM1170.95 169.554L1172.04 171.229L1173.42 170.331L1172.81 168.806L1170.95 169.554ZM1153.91 180.67L1152.14 181.602L1153.17 183.545L1155.01 182.345L1153.91 180.67ZM1143.7 166.041L1142.24 167.403L1142.25 167.421L1142.27 167.438L1143.7 166.041ZM1123.76 154.755L1124.1 152.783L1124.08 152.781L1124.07 152.779L1123.76 154.755ZM1116.82 155.373L1116.12 153.5L1116.82 155.373ZM1111.45 166.69L1109.55 167.302L1109.58 167.393L1109.62 167.48L1111.45 166.69ZM1115.83 172.675L1114.41 174.082L1114.42 174.093L1114.43 174.103L1115.83 172.675ZM1124.07 180.416L1122.73 181.895L1122.75 181.918L1122.78 181.94L1124.07 180.416ZM1140.47 196.082L1138.98 197.413L1138.98 197.419L1138.99 197.426L1140.47 196.082ZM1148.68 210.243L1146.74 210.717L1146.74 210.734L1146.74 210.751L1148.68 210.243ZM1125.77 243.542L1125.32 241.595L1125.77 243.542ZM1094.79 237.021C1086.78 233.379 1079.74 228.593 1073.66 222.663L1070.87 225.527C1077.29 231.79 1084.71 236.835 1093.13 240.662L1094.79 237.021ZM1073.66 222.663C1067.6 216.755 1063.14 210.083 1060.25 202.64L1056.52 204.087C1059.63 212.092 1064.42 219.241 1070.87 225.527L1073.66 222.663ZM1059.58 204.968L1075.68 192.983L1073.29 189.774L1057.19 201.759L1059.58 204.968ZM1072.7 192.274C1076.41 199.689 1080.6 205.861 1085.28 210.751L1088.17 207.985C1083.82 203.445 1079.85 197.625 1076.28 190.483L1072.7 192.274ZM1085.29 210.762C1090.07 215.68 1095.16 219.395 1100.57 221.856L1102.23 218.214C1097.34 215.993 1092.65 212.597 1088.16 207.974L1085.29 210.762ZM1100.57 221.856C1105.55 224.117 1110.12 225.123 1114.21 224.63L1113.73 220.659C1110.62 221.033 1106.82 220.3 1102.23 218.214L1100.57 221.856ZM1114.17 224.634C1118.61 224.183 1121.87 221.829 1123.72 217.755L1120.08 216.1C1118.81 218.891 1116.78 220.348 1113.77 220.654L1114.17 224.634ZM1123.72 217.755C1124.99 214.962 1125.07 212.16 1123.7 209.57L1120.16 211.446C1120.86 212.757 1120.92 214.234 1120.08 216.1L1123.72 217.755ZM1123.74 209.653C1122.6 207.249 1120.59 204.82 1117.87 202.355L1115.19 205.319C1117.71 207.602 1119.3 209.62 1120.12 211.363L1123.74 209.653ZM1117.89 202.372C1115.37 200.027 1112.23 197.259 1108.48 194.071L1105.89 197.118C1109.61 200.283 1112.7 203.01 1115.17 205.303L1117.89 202.372ZM1108.54 194.122C1102.52 188.592 1097.67 183.678 1093.96 179.375L1090.93 181.987C1094.77 186.445 1099.75 191.472 1105.83 197.067L1108.54 194.122ZM1093.96 179.375C1090.34 175.179 1088.17 171.072 1087.31 167.055L1083.4 167.892C1084.44 172.724 1086.99 177.422 1090.93 181.987L1093.96 179.375ZM1087.33 167.136C1086.64 163.134 1087.34 158.662 1089.62 153.657L1085.98 152.001C1083.46 157.538 1082.53 162.83 1083.39 167.811L1087.33 167.136ZM1089.62 153.657C1092.37 147.598 1096.19 143.209 1101.03 140.361L1099.01 136.913C1093.35 140.238 1089.02 145.31 1085.98 152.001L1089.62 153.657ZM1101.03 140.366C1106.11 137.41 1111.93 135.931 1118.55 135.974L1118.57 131.974C1111.32 131.927 1104.78 133.556 1099.02 136.907L1101.03 140.366ZM1118.53 135.974C1125.26 136.07 1132.44 137.819 1140.08 141.297L1141.74 137.656C1133.7 133.999 1125.97 132.08 1118.59 131.974L1118.53 135.974ZM1140.08 141.297C1146.75 144.328 1152.55 148.257 1157.5 153.081L1160.29 150.216C1154.99 145.053 1148.8 140.867 1141.74 137.656L1140.08 141.297ZM1157.53 153.106C1162.49 157.764 1166.34 163.486 1169.1 170.303L1172.81 168.806C1169.85 161.49 1165.68 155.274 1160.27 150.191L1157.53 153.106ZM1169.86 167.879L1152.82 178.995L1155.01 182.345L1172.04 171.229L1169.86 167.879ZM1155.68 179.738C1152.44 173.587 1148.93 168.54 1145.13 164.644L1142.27 167.438C1145.73 170.988 1149.03 175.693 1152.14 181.602L1155.68 179.738ZM1145.17 164.679C1141.42 160.651 1137.15 157.536 1132.36 155.359L1130.7 159C1134.99 160.947 1138.83 163.741 1142.24 167.403L1145.17 164.679ZM1132.36 155.359C1129.64 154.122 1126.88 153.26 1124.1 152.783L1123.42 156.726C1125.85 157.141 1128.28 157.896 1130.7 159L1132.36 155.359ZM1124.07 152.779C1121.28 152.341 1118.61 152.565 1116.12 153.5L1117.52 157.245C1119.31 156.576 1121.27 156.388 1123.45 156.731L1124.07 152.779ZM1116.12 153.5C1113.51 154.479 1111.61 156.626 1110.3 159.51L1113.94 161.165C1114.97 158.9 1116.21 157.737 1117.52 157.245L1116.12 153.5ZM1110.3 159.51C1109.1 162.162 1108.75 164.802 1109.55 167.302L1113.36 166.078C1112.94 164.766 1113.03 163.172 1113.94 161.165L1110.3 159.51ZM1109.62 167.48C1110.54 169.635 1112.19 171.835 1114.41 174.082L1117.25 171.269C1115.22 169.213 1113.95 167.423 1113.29 165.9L1109.62 167.48ZM1114.43 174.103C1116.71 176.333 1119.47 178.931 1122.73 181.895L1125.42 178.938C1122.19 175.995 1119.46 173.432 1117.23 171.247L1114.43 174.103ZM1122.78 181.94C1129.45 187.619 1134.85 192.777 1138.98 197.413L1141.97 194.752C1137.67 189.936 1132.13 184.649 1125.37 178.893L1122.78 181.94ZM1138.99 197.426C1143.18 202.042 1145.7 206.474 1146.74 210.717L1150.62 209.769C1149.38 204.694 1146.44 199.686 1141.95 194.739L1138.99 197.426ZM1146.74 210.751C1147.78 214.7 1147.19 219.423 1144.63 225.046L1148.27 226.701C1151.07 220.555 1151.96 214.858 1150.61 209.735L1146.74 210.751ZM1144.63 225.046C1140.52 234.098 1134.1 239.533 1125.32 241.595L1126.23 245.489C1136.33 243.118 1143.7 236.774 1148.27 226.701L1144.63 225.046ZM1125.32 241.595C1116.43 243.682 1106.29 242.25 1094.79 237.021L1093.13 240.662C1105.17 246.135 1116.24 247.837 1126.23 245.489L1125.32 241.595Z" fill="#6B73C2" mask="url(#path-7-outside-4_3630_95213)"/>
</svg>
